<?xml version="1.0" encoding="UTF-8" standalone="no"?>
<svg
   xmlns:dc="http://purl.org/dc/elements/1.1/"
   xmlns:cc="http://creativecommons.org/ns#"
   xmlns:rdf="http://www.w3.org/1999/02/22-rdf-syntax-ns#"
   xmlns:svg="http://www.w3.org/2000/svg"
   xmlns="http://www.w3.org/2000/svg"
   viewBox="0 0 1122.52 793.70667"
   height="793.70667"
   width="1122.52"
   xml:space="preserve"
   id="svg2"
   version="1.1"><metadata
     id="metadata8"><rdf:RDF><cc:Work
         rdf:about=""><dc:format>image/svg+xml</dc:format><dc:type
           rdf:resource="http://purl.org/dc/dcmitype/StillImage" /></cc:Work></rdf:RDF></metadata><defs
     id="defs6"><clipPath
       id="clipPath34"
       clipPathUnits="userSpaceOnUse"><path
         id="path32"
         d="M 0,595.28 H 841.89 V 0 H 0 Z" /></clipPath></defs><g
     transform="matrix(1.3333333,0,0,-1.3333333,0,793.70667)"
     id="g10"><g
       transform="translate(404.168,191.0449)"
       id="g12"><path
         id="path14"
         style="fill:#593c31;fill-opacity:1;fill-rule:nonzero;stroke:none"
         d="M 0,0 11.681,-39.715 H 33.826 L 43.473,0 Z" /></g><g
       transform="translate(380.6514,182.0713)"
       id="g16"><path
         id="path18"
         style="fill:#593c31;fill-opacity:1;fill-rule:nonzero;stroke:none"
         d="m 0,0 23.198,-0.488 7.832,-26.466 -23.691,4.64 z" /></g><g
       transform="translate(296.3892,178.9854)"
       id="g20"><path
         id="path22"
         style="fill:#593c31;fill-opacity:1;fill-rule:nonzero;stroke:none"
         d="M 0,0 83.22,-1.581 86.578,-12.13 1.625,-5.99 Z" /></g><g
       transform="translate(449.124,186.3291)"
       id="g24"><path
         id="path26"
         style="fill:#593c31;fill-opacity:1;fill-rule:nonzero;stroke:none"
         d="M 0,0 H 25.031 L 24.842,-5.124 7.713,-34.119 H -7.72 Z" /></g><g
       id="g28"><g
         clip-path="url(#clipPath34)"
         id="g30"><g
           transform="translate(431.4473,118.8105)"
           id="g36"><path
             id="path38"
             style="fill:#4d4c4e;fill-opacity:1;fill-rule:nonzero;stroke:none"
             d="M 0,0 V -9.924 H -2.082 V 0 l -9.661,13.465 h 2.522 l 4.467,-6.252 c 0.627,-0.884 1.245,-1.755 1.852,-2.605 0.605,-0.85 1.217,-1.711 1.846,-2.577 0.625,0.883 1.243,1.76 1.846,2.62 0.612,0.867 1.228,1.732 1.855,2.592 l 4.465,6.222 h 2.523 z" /></g><g
           transform="translate(389.916,112.708)"
           id="g40"><path
             id="path42"
             style="fill:#4d4c4e;fill-opacity:1;fill-rule:nonzero;stroke:none"
             d="m 0,0 c -0.63,-0.677 -1.354,-1.297 -2.164,-1.851 -0.807,-0.544 -1.718,-0.981 -2.724,-1.328 -0.998,-0.332 -2.118,-0.507 -3.345,-0.507 -1.814,0 -3.436,0.283 -4.874,0.854 -1.432,0.561 -2.599,1.272 -3.525,2.127 -1.149,1.074 -2.035,2.324 -2.662,3.751 -0.622,1.422 -0.929,3.021 -0.929,4.789 0,1.743 0.296,3.32 0.905,4.725 0.605,1.418 1.454,2.63 2.54,3.646 1.116,1.015 2.404,1.784 3.867,2.323 1.463,0.542 3.076,0.808 4.831,0.808 1.066,0 2.049,-0.127 2.95,-0.39 0.892,-0.251 1.717,-0.603 2.471,-1.075 0.75,-0.471 1.425,-1.031 2.031,-1.683 0.603,-0.647 1.164,-1.363 1.671,-2.143 l -1.756,-1.059 c -0.82,1.289 -1.817,2.341 -2.991,3.16 -1.166,0.823 -2.632,1.229 -4.376,1.229 -1.236,0 -2.454,-0.172 -3.646,-0.535 -1.2,-0.342 -2.284,-0.903 -3.233,-1.679 -0.954,-0.764 -1.734,-1.751 -2.309,-2.964 -0.591,-1.211 -0.882,-2.674 -0.882,-4.384 0,-1.624 0.283,-3.025 0.835,-4.22 0.555,-1.183 1.29,-2.172 2.214,-2.963 0.915,-0.797 1.967,-1.378 3.166,-1.773 1.204,-0.387 2.433,-0.585 3.702,-0.585 1.016,0 1.945,0.157 2.793,0.449 0.853,0.311 1.611,0.697 2.295,1.187 0.682,0.497 1.291,1.023 1.812,1.6 0.529,0.576 0.989,1.147 1.38,1.703 L 1.711,2.048 C 1.203,1.359 0.635,0.686 0,0" /></g><g
           transform="translate(414.918,126.4346)"
           id="g44"><path
             id="path46"
             style="fill:#4d4c4e;fill-opacity:1;fill-rule:nonzero;stroke:none"
             d="m 0,0 c -0.544,0.688 -1.069,1.303 -1.576,1.811 -0.511,0.502 -1.052,0.925 -1.628,1.241 -0.576,0.318 -1.194,0.56 -1.857,0.716 -0.662,0.158 -1.408,0.234 -2.252,0.234 -1.053,0 -2.162,-0.166 -3.32,-0.481 -1.156,-0.32 -2.223,-0.855 -3.201,-1.609 -0.979,-0.747 -1.781,-1.736 -2.408,-2.956 -0.647,-1.218 -0.95,-2.719 -0.95,-4.515 0,-1.523 0.254,-2.877 0.769,-4.067 0.521,-1.193 1.235,-2.191 2.136,-2.998 0.905,-0.81 1.962,-1.424 3.168,-1.839 1.208,-0.428 2.511,-0.631 3.895,-0.631 1.094,0 2.211,0.15 3.348,0.448 1.143,0.305 2.198,0.75 3.177,1.336 v 5.179 H -9.182 V -6.12 H 1.371 v -8.221 c -0.762,-0.502 -1.493,-0.926 -2.201,-1.267 -0.717,-0.341 -1.43,-0.621 -2.135,-0.829 -0.718,-0.217 -1.433,-0.373 -2.165,-0.474 -0.731,-0.096 -1.497,-0.144 -2.296,-0.144 -1.56,0 -3.057,0.257 -4.475,0.759 -1.421,0.502 -2.684,1.256 -3.774,2.239 -1.091,0.982 -1.97,2.192 -2.616,3.609 -0.657,1.426 -0.981,3.056 -0.981,4.889 0,2.104 0.378,3.895 1.143,5.351 0.758,1.469 1.722,2.65 2.893,3.573 1.17,0.911 2.45,1.579 3.831,1.98 1.382,0.415 2.699,0.618 3.979,0.618 1.109,0 2.096,-0.102 2.95,-0.309 C -3.613,5.446 -2.831,5.147 -2.121,4.73 -1.407,4.323 -0.747,3.815 -0.132,3.216 0.486,2.6 1.099,1.912 1.729,1.111 Z" /></g><g
           transform="translate(246.3208,226.3594)"
           id="g48"><path
             id="path50"
             style="fill:#4d4c4e;fill-opacity:1;fill-rule:nonzero;stroke:none"
             d="M 0,0 V -20.629 H -4.548 V 0 l -21.079,27.985 h 5.51 l 9.738,-12.999 c 1.365,-1.839 2.712,-3.64 4.04,-5.412 1.315,-1.771 2.662,-3.558 4.025,-5.349 1.368,1.833 2.712,3.648 4.04,5.445 1.32,1.788 2.667,3.59 4.032,5.379 l 9.743,12.936 h 5.503 z" /></g><g
           transform="translate(298.7803,205.7305)"
           id="g52"><path
             id="path54"
             style="fill:#4d4c4e;fill-opacity:1;fill-rule:nonzero;stroke:none"
             d="m 0,0 h -3.332 l -22.485,48.614 h 4.867 l 10.635,-23.056 c 1.494,-3.163 2.948,-6.292 4.359,-9.386 1.411,-3.094 2.841,-6.252 4.291,-9.442 1.457,3.249 2.881,6.4 4.295,9.473 1.412,3.077 2.862,6.192 4.353,9.355 l 10.633,23.056 h 4.866 z" /></g><g
           transform="translate(352.208,226.3594)"
           id="g56"><path
             id="path58"
             style="fill:#4d4c4e;fill-opacity:1;fill-rule:nonzero;stroke:none"
             d="M 0,0 V -20.629 H -4.549 V 0 l -21.076,27.985 h 5.505 l 9.743,-12.999 c 1.363,-1.839 2.71,-3.64 4.03,-5.412 1.326,-1.771 2.667,-3.558 4.037,-5.349 1.364,1.833 2.713,3.648 4.039,5.445 1.312,1.788 2.667,3.59 4.03,5.379 l 9.74,12.936 h 5.508 z" /></g><g
           transform="translate(422.6973,243.6523)"
           id="g60"><path
             id="path62"
             style="fill:#4d4c4e;fill-opacity:1;fill-rule:nonzero;stroke:none"
             d="m 0,0 c -0.44,1.154 -1.37,2.195 -2.775,3.138 -1.422,0.944 -3.437,1.708 -6.059,2.305 -2.63,0.596 -6.126,0.898 -10.476,0.898 h -11.72 v -20.174 h 16.007 c 2.652,0 4.957,0.307 6.926,0.916 1.962,0.623 3.595,1.428 4.899,2.407 1.302,0.987 2.271,2.098 2.915,3.33 0.637,1.243 0.963,2.499 0.963,3.785 C 0.68,-2.284 0.457,-1.155 0,0 m 4.196,-37.922 -20.3,19.799 H -31.03 v -19.799 h -4.552 v 48.614 h 16.785 c 8.198,0 14.251,-1.212 18.156,-3.649 C 3.268,4.611 5.22,1.132 5.22,-3.395 c 0,-1.923 -0.401,-3.689 -1.215,-5.291 -0.809,-1.593 -1.907,-3.015 -3.297,-4.25 -1.387,-1.247 -3.024,-2.265 -4.905,-3.083 -1.872,-0.806 -3.9,-1.381 -6.081,-1.726 l 20.884,-20.177 z" /></g><g
           transform="translate(481.8252,215.8164)"
           id="g64"><path
             id="path66"
             style="fill:#4d4c4e;fill-opacity:1;fill-rule:nonzero;stroke:none"
             d="m 0,0 c -0.746,-2.671 -1.911,-4.814 -3.493,-6.437 -1.577,-1.624 -3.596,-2.783 -6.044,-3.488 -2.461,-0.705 -5.374,-1.062 -8.755,-1.062 -3.329,0 -6.197,0.357 -8.613,1.062 -2.407,0.705 -4.396,1.864 -5.959,3.488 -1.558,1.623 -2.718,3.766 -3.488,6.437 -0.769,2.673 -1.152,5.968 -1.152,9.902 v 28.626 h 4.552 V 10.029 c 0,-3.119 0.224,-5.748 0.67,-7.885 0.447,-2.133 1.227,-3.847 2.336,-5.153 1.113,-1.309 2.608,-2.245 4.484,-2.821 1.877,-0.583 4.273,-0.862 7.17,-0.862 2.996,0 5.435,0.279 7.343,0.862 1.892,0.576 3.403,1.512 4.508,2.821 1.114,1.306 1.881,3.02 2.312,5.153 0.425,2.137 0.636,4.766 0.636,7.885 V 38.528 H 1.119 V 9.902 C 1.119,5.968 0.751,2.673 0,0" /></g><g
           transform="translate(535.792,239.5498)"
           id="g68"><path
             id="path70"
             style="fill:#4d4c4e;fill-opacity:1;fill-rule:nonzero;stroke:none"
             d="m 0,0 c 0,1.283 -0.297,2.558 -0.896,3.813 -0.595,1.26 -1.652,2.377 -3.166,3.361 -1.515,0.981 -3.579,1.774 -6.189,2.372 -2.601,0.596 -5.917,0.897 -9.919,0.897 h -12.372 v -21.197 h 10.447 c 4.437,0 8.079,0.282 10.922,0.862 2.843,0.57 5.081,1.349 6.727,2.335 1.637,0.986 2.782,2.125 3.423,3.424 0.638,1.31 0.961,2.686 0.961,4.133 z M -1.887,-11.206 C -6.179,-13.77 -12.872,-15.05 -21.972,-15.05 H -32.47 v -18.769 h -4.616 v 48.614 h 16.395 c 8.668,0 15.047,-1.297 19.126,-3.903 C 2.51,8.286 4.546,4.656 4.546,0 c 0,-4.907 -2.144,-8.645 -6.433,-11.206" /></g><g
           transform="translate(566.791,236.8613)"
           id="g72"><path
             id="path74"
             style="fill:#4d4c4e;fill-opacity:1;fill-rule:nonzero;stroke:none"
             d="M 0,0 C -0.713,1.662 -1.444,3.313 -2.17,4.964 -2.896,6.606 -3.621,8.3 -4.343,10.055 -5.074,8.394 -5.771,6.75 -6.428,5.125 -7.093,3.498 -7.788,1.876 -8.514,0.255 l -4.802,-11.147 H 4.686 Z m 13.717,-31.131 -7.109,15.884 h -21.91 l -7.047,-15.884 h -4.866 l 21.461,48.614 h 2.877 l 21.523,-48.614 z" /></g><g
           transform="translate(241.2891,269.0674)"
           id="g76"><path
             id="path78"
             style="fill:#4d4c4e;fill-opacity:1;fill-rule:nonzero;stroke:none"
             d="m 0,0 c -0.618,-0.66 -1.318,-1.264 -2.106,-1.8 -0.786,-0.527 -1.67,-0.956 -2.645,-1.288 -0.976,-0.325 -2.061,-0.497 -3.255,-0.497 -1.767,0 -3.335,0.279 -4.738,0.829 -1.39,0.544 -2.528,1.238 -3.426,2.07 -1.12,1.046 -1.98,2.259 -2.587,3.647 -0.604,1.382 -0.909,2.935 -0.909,4.658 0,1.688 0.292,3.222 0.888,4.59 0.585,1.38 1.41,2.561 2.471,3.542 1.078,0.99 2.333,1.736 3.755,2.263 1.419,0.525 2.988,0.785 4.693,0.785 1.037,0 1.993,-0.127 2.867,-0.376 0.871,-0.241 1.672,-0.592 2.402,-1.047 0.73,-0.46 1.39,-1.005 1.975,-1.642 0.588,-0.629 1.13,-1.323 1.628,-2.081 l -1.711,-1.027 c -0.796,1.249 -1.76,2.276 -2.905,3.068 -1.13,0.799 -2.557,1.197 -4.256,1.197 -1.201,0 -2.381,-0.173 -3.541,-0.52 -1.168,-0.332 -2.224,-0.877 -3.143,-1.633 -0.93,-0.741 -1.681,-1.703 -2.249,-2.88 -0.568,-1.174 -0.854,-2.597 -0.854,-4.263 0,-1.577 0.271,-2.939 0.807,-4.099 0.546,-1.149 1.261,-2.112 2.154,-2.882 0.888,-0.774 1.914,-1.343 3.079,-1.726 1.171,-0.374 2.365,-0.563 3.6,-0.563 0.985,0 1.889,0.15 2.714,0.434 0.829,0.296 1.569,0.674 2.235,1.15 0.657,0.486 1.252,0.999 1.761,1.558 0.51,0.56 0.959,1.114 1.336,1.655 L 1.662,1.991 C 1.165,1.322 0.614,0.665 0,0" /></g><g
           transform="translate(268.7388,276.6865)"
           id="g80"><path
             id="path82"
             style="fill:#4d4c4e;fill-opacity:1;fill-rule:nonzero;stroke:none"
             d="m 0,0 c 0,1.575 -0.271,2.942 -0.81,4.106 -0.542,1.172 -1.258,2.131 -2.165,2.901 -0.898,0.778 -1.937,1.343 -3.121,1.726 -1.183,0.378 -2.426,0.564 -3.709,0.564 -1.293,0 -2.525,-0.186 -3.698,-0.564 -1.176,-0.383 -2.208,-0.948 -3.1,-1.726 -0.884,-0.77 -1.604,-1.729 -2.146,-2.901 -0.543,-1.164 -0.813,-2.531 -0.813,-4.106 0,-1.57 0.27,-2.938 0.813,-4.094 0.542,-1.16 1.262,-2.121 2.159,-2.888 0.903,-0.764 1.938,-1.337 3.121,-1.714 1.174,-0.388 2.403,-0.576 3.689,-0.576 1.284,0 2.522,0.188 3.703,0.576 1.17,0.377 2.204,0.95 3.102,1.714 0.907,0.767 1.621,1.728 2.152,2.888 0.526,1.156 0.799,2.524 0.799,4.094 z M 1.024,-4.946 C 0.363,-6.35 -0.514,-7.518 -1.601,-8.44 c -1.095,-0.928 -2.351,-1.622 -3.771,-2.079 -1.424,-0.46 -2.894,-0.685 -4.408,-0.685 -1.513,0 -2.983,0.239 -4.41,0.696 -1.414,0.463 -2.675,1.166 -3.766,2.093 -1.095,0.931 -1.969,2.087 -2.627,3.503 -0.669,1.393 -0.994,3.034 -0.994,4.912 0,1.88 0.325,3.518 0.994,4.922 0.658,1.399 1.532,2.564 2.627,3.498 1.091,0.928 2.352,1.622 3.766,2.07 1.427,0.452 2.897,0.69 4.41,0.69 1.514,0 2.984,-0.238 4.408,-0.69 1.42,-0.448 2.676,-1.142 3.771,-2.07 1.087,-0.934 1.964,-2.099 2.625,-3.498 0.664,-1.404 0.998,-3.057 0.998,-4.946 0,-1.878 -0.334,-3.52 -0.998,-4.922" /></g><g
           transform="translate(304.6489,265.8857)"
           id="g84"><path
             id="path86"
             style="fill:#4d4c4e;fill-opacity:1;fill-rule:nonzero;stroke:none"
             d="m 0,0 v 10.776 c 0,2.936 0.013,5.325 0.032,7.167 C -1.184,16.101 -2.766,13.712 -4.729,10.76 -6.699,7.813 -9.085,4.219 -11.91,0 h -1.363 c -2.828,4.219 -5.222,7.823 -7.173,10.793 -1.951,2.959 -3.533,5.345 -4.743,7.15 0.019,-1.842 0.032,-4.231 0.043,-7.183 C -25.135,7.813 -25.13,4.219 -25.13,0 h -2.053 v 21.573 h 1.964 c 3.074,-4.618 5.656,-8.496 7.747,-11.639 2.096,-3.14 3.731,-5.597 4.907,-7.385 1.181,1.788 2.8,4.245 4.885,7.385 2.085,3.143 4.677,7.021 7.768,11.639 H 2.023 L 2.023,0 Z" /></g><path
           id="path88"
           style="fill:#4d4c4e;fill-opacity:1;fill-rule:nonzero;stroke:none"
           d="m 313.721,287.459 h 2.047 v -21.573 h -2.047 z" /><g
           transform="translate(340.2251,269.4678)"
           id="g90"><path
             id="path92"
             style="fill:#4d4c4e;fill-opacity:1;fill-rule:nonzero;stroke:none"
             d="m 0,0 c -0.494,-0.801 -1.163,-1.478 -2.022,-2.054 -0.888,-0.6 -1.938,-1.074 -3.146,-1.416 -1.195,-0.341 -2.528,-0.515 -3.987,-0.515 -1.221,0 -2.314,0.088 -3.285,0.246 -0.98,0.157 -1.87,0.408 -2.675,0.741 -0.806,0.327 -1.533,0.736 -2.177,1.216 -0.647,0.485 -1.24,1.043 -1.791,1.666 l 1.596,1.306 c 0.799,-0.999 1.86,-1.796 3.214,-2.386 1.344,-0.586 3.061,-0.879 5.145,-0.879 1.301,0 2.458,0.149 3.452,0.45 0.997,0.308 1.855,0.686 2.574,1.171 0.569,0.369 1.01,0.826 1.338,1.345 0.321,0.524 0.481,1.074 0.481,1.67 0,0.767 -0.192,1.387 -0.566,1.834 -0.382,0.442 -0.786,0.783 -1.224,1.034 -0.245,0.133 -0.518,0.257 -0.81,0.372 -0.299,0.11 -0.679,0.231 -1.152,0.384 -0.472,0.137 -1.069,0.295 -1.777,0.465 -0.71,0.174 -1.597,0.37 -2.656,0.595 -1.098,0.251 -2.007,0.457 -2.701,0.627 -0.704,0.179 -1.289,0.326 -1.751,0.45 -0.468,0.138 -0.841,0.269 -1.139,0.389 -0.291,0.119 -0.571,0.255 -0.833,0.388 -0.313,0.172 -0.604,0.374 -0.884,0.611 -0.289,0.233 -0.537,0.519 -0.754,0.85 -0.222,0.336 -0.39,0.71 -0.532,1.132 -0.126,0.432 -0.195,0.903 -0.195,1.413 0,0.743 0.219,1.473 0.641,2.207 0.423,0.721 1.104,1.341 2.029,1.831 0.858,0.437 1.828,0.751 2.92,0.95 1.09,0.207 2.307,0.305 3.648,0.305 1.192,0 2.255,-0.077 3.175,-0.243 0.913,-0.164 1.729,-0.4 2.448,-0.724 0.7,-0.325 1.317,-0.738 1.844,-1.24 0.521,-0.502 0.986,-1.097 1.381,-1.77 l -1.793,-0.946 c -0.267,0.479 -0.593,0.897 -0.978,1.281 -0.39,0.375 -0.858,0.696 -1.411,0.956 -0.554,0.253 -1.21,0.445 -1.978,0.572 -0.764,0.142 -1.659,0.206 -2.688,0.206 -1.152,0 -2.229,-0.09 -3.214,-0.276 -0.981,-0.181 -1.778,-0.426 -2.39,-0.751 -1.074,-0.603 -1.614,-1.418 -1.614,-2.437 0,-0.527 0.132,-0.966 0.409,-1.356 0.278,-0.389 0.649,-0.693 1.099,-0.919 0.259,-0.138 0.558,-0.26 0.862,-0.361 0.316,-0.102 0.711,-0.22 1.184,-0.356 0.474,-0.133 1.048,-0.276 1.732,-0.426 0.689,-0.152 1.539,-0.337 2.563,-0.566 C -7.518,8.85 -6.75,8.669 -6.084,8.514 -5.422,8.359 -4.832,8.198 -4.294,8.051 -3.765,7.894 -3.292,7.722 -2.886,7.547 -2.479,7.372 -2.1,7.152 -1.737,6.907 -1.435,6.715 -1.136,6.48 -0.841,6.204 -0.545,5.937 -0.28,5.623 -0.046,5.271 0.193,4.924 0.377,4.523 0.521,4.075 0.663,3.629 0.735,3.139 0.735,2.614 0.735,1.67 0.492,0.792 0,0" /></g><g
           transform="translate(363.7656,269.4678)"
           id="g94"><path
             id="path96"
             style="fill:#4d4c4e;fill-opacity:1;fill-rule:nonzero;stroke:none"
             d="m 0,0 c -0.492,-0.801 -1.165,-1.478 -2.015,-2.054 -0.895,-0.6 -1.94,-1.074 -3.149,-1.416 -1.196,-0.341 -2.532,-0.515 -3.996,-0.515 -1.209,0 -2.304,0.088 -3.28,0.246 -0.975,0.157 -1.864,0.408 -2.669,0.741 -0.81,0.327 -1.534,0.736 -2.175,1.216 -0.653,0.485 -1.248,1.043 -1.797,1.666 l 1.594,1.306 c 0.796,-0.999 1.864,-1.796 3.216,-2.386 1.347,-0.586 3.058,-0.879 5.142,-0.879 1.31,0 2.465,0.149 3.454,0.45 0.998,0.308 1.854,0.686 2.576,1.171 0.562,0.369 1.015,0.826 1.338,1.345 0.318,0.524 0.478,1.074 0.478,1.67 0,0.767 -0.189,1.387 -0.561,1.834 -0.383,0.442 -0.786,0.783 -1.23,1.034 -0.243,0.133 -0.515,0.257 -0.806,0.372 -0.294,0.11 -0.682,0.231 -1.147,0.384 -0.478,0.137 -1.072,0.295 -1.782,0.465 -0.709,0.174 -1.601,0.37 -2.664,0.595 -1.096,0.251 -1.997,0.457 -2.696,0.627 -0.701,0.179 -1.284,0.326 -1.749,0.45 -0.464,0.138 -0.847,0.269 -1.135,0.389 -0.294,0.119 -0.574,0.255 -0.837,0.388 -0.31,0.172 -0.603,0.374 -0.883,0.611 -0.287,0.233 -0.535,0.519 -0.758,0.85 -0.216,0.336 -0.397,0.71 -0.526,1.132 -0.133,0.432 -0.194,0.903 -0.194,1.413 0,0.743 0.215,1.473 0.635,2.207 0.431,0.721 1.103,1.341 2.034,1.831 0.852,0.437 1.822,0.751 2.915,0.95 1.09,0.207 2.307,0.305 3.656,0.305 1.192,0 2.253,-0.077 3.166,-0.243 0.92,-0.164 1.741,-0.4 2.448,-0.724 0.711,-0.325 1.328,-0.738 1.848,-1.24 0.514,-0.502 0.98,-1.097 1.38,-1.77 l -1.787,-0.946 c -0.271,0.479 -0.605,0.897 -0.983,1.281 -0.392,0.375 -0.864,0.696 -1.407,0.956 -0.552,0.253 -1.213,0.445 -1.98,0.572 -0.767,0.142 -1.667,0.206 -2.685,0.206 -1.16,0 -2.232,-0.09 -3.218,-0.276 -0.985,-0.181 -1.779,-0.426 -2.383,-0.751 -1.082,-0.603 -1.623,-1.418 -1.623,-2.437 0,-0.527 0.139,-0.966 0.412,-1.356 0.275,-0.389 0.641,-0.693 1.093,-0.919 0.265,-0.138 0.554,-0.26 0.871,-0.361 0.319,-0.102 0.709,-0.22 1.182,-0.356 0.469,-0.133 1.045,-0.276 1.732,-0.426 0.681,-0.152 1.532,-0.337 2.556,-0.566 0.874,-0.192 1.639,-0.373 2.302,-0.528 0.668,-0.155 1.266,-0.316 1.792,-0.463 0.534,-0.157 1,-0.329 1.409,-0.504 0.403,-0.175 0.79,-0.395 1.155,-0.64 C -1.435,6.715 -1.133,6.48 -0.841,6.204 -0.548,5.937 -0.277,5.623 -0.045,5.271 0.195,4.924 0.385,4.523 0.521,4.075 0.669,3.629 0.744,3.139 0.744,2.614 0.744,1.67 0.488,0.792 0,0" /></g><g
           transform="translate(380.5669,279.6973)"
           id="g98"><path
             id="path100"
             style="fill:#4d4c4e;fill-opacity:1;fill-rule:nonzero;stroke:none"
             d="M 0,0 C -0.319,0.747 -0.639,1.478 -0.953,2.208 -1.267,2.94 -1.583,3.688 -1.902,4.472 -2.224,3.73 -2.539,3 -2.842,2.27 -3.149,1.557 -3.451,0.84 -3.755,0.118 l -2.157,-4.947 h 8.02 z M 1.72,8.541 C 1.183,8.307 0.63,8.193 0.058,8.193 c -0.265,0 -0.553,0.021 -0.882,0.058 -0.317,0.039 -0.675,0.127 -1.051,0.256 L -2.501,8.71 c -0.132,0.031 -0.335,0.073 -0.597,0.122 -0.27,0.05 -0.529,0.073 -0.799,0.073 -0.354,0 -0.666,-0.056 -0.916,-0.17 -0.259,-0.11 -0.588,-0.423 -0.982,-0.914 l -1.341,1.315 c 0.553,0.679 1.09,1.131 1.619,1.348 0.535,0.214 1.075,0.322 1.62,0.322 0.27,0 0.564,-0.011 0.888,-0.048 0.318,-0.046 0.674,-0.124 1.053,-0.254 l 0.622,-0.206 c 0.134,-0.034 0.332,-0.079 0.596,-0.13 0.264,-0.045 0.531,-0.067 0.796,-0.067 0.171,0 0.334,0.016 0.483,0.043 0.158,0.024 0.304,0.075 0.456,0.154 0.154,0.079 0.311,0.186 0.483,0.327 0.163,0.141 0.366,0.339 0.571,0.581 L 3.359,9.9 C 2.807,9.221 2.269,8.767 1.72,8.541 m 4.372,-22.353 -3.161,7.051 h -9.696 l -3.129,-7.051 h -2.186 l 9.531,21.574 h 1.301 l 9.555,-21.574 z" /></g><g
           transform="translate(414.4971,276.6865)"
           id="g102"><path
             id="path104"
             style="fill:#4d4c4e;fill-opacity:1;fill-rule:nonzero;stroke:none"
             d="m 0,0 c 0,1.575 -0.275,2.942 -0.813,4.106 -0.545,1.172 -1.265,2.131 -2.164,2.901 -0.899,0.778 -1.95,1.343 -3.127,1.726 -1.187,0.378 -2.421,0.564 -3.708,0.564 -1.292,0 -2.523,-0.186 -3.697,-0.564 C -14.685,8.35 -15.72,7.785 -16.61,7.007 -17.503,6.237 -18.218,5.278 -18.755,4.106 -19.3,2.942 -19.569,1.575 -19.569,0 c 0,-1.57 0.269,-2.938 0.814,-4.094 0.537,-1.16 1.262,-2.121 2.154,-2.888 0.905,-0.764 1.94,-1.337 3.116,-1.714 1.175,-0.388 2.41,-0.576 3.695,-0.576 1.289,0 2.526,0.188 3.696,0.576 1.182,0.377 2.218,0.95 3.117,1.714 0.899,0.767 1.617,1.728 2.143,2.888 0.535,1.156 0.798,2.524 0.798,4.094 z M 1.021,-4.946 C 0.353,-6.35 -0.522,-7.518 -1.615,-8.44 c -1.084,-0.928 -2.345,-1.622 -3.769,-2.079 -1.415,-0.46 -2.885,-0.685 -4.406,-0.685 -1.521,0 -2.981,0.239 -4.4,0.696 -1.428,0.463 -2.689,1.166 -3.773,2.093 -1.093,0.931 -1.962,2.087 -2.63,3.503 -0.664,1.393 -0.989,3.034 -0.989,4.912 0,1.88 0.325,3.518 0.989,4.922 0.668,1.399 1.537,2.564 2.63,3.498 1.084,0.928 2.345,1.622 3.773,2.07 1.419,0.452 2.879,0.69 4.4,0.69 1.521,0 2.991,-0.238 4.406,-0.69 1.424,-0.448 2.685,-1.142 3.769,-2.07 1.093,-0.934 1.968,-2.099 2.636,-3.498 0.666,-1.404 0.988,-3.057 0.988,-4.946 0,-1.878 -0.322,-3.52 -0.988,-4.922" /></g><g
           transform="translate(451.6279,282.0625)"
           id="g106"><path
             id="path108"
             style="fill:#4d4c4e;fill-opacity:1;fill-rule:nonzero;stroke:none"
             d="m 0,0 c -0.532,0.672 -1.043,1.27 -1.534,1.767 -0.499,0.484 -1.024,0.896 -1.581,1.203 -0.565,0.307 -1.167,0.548 -1.807,0.694 -0.65,0.154 -1.371,0.232 -2.188,0.232 -1.03,0 -2.105,-0.161 -3.231,-0.472 -1.123,-0.307 -2.158,-0.832 -3.11,-1.563 -0.949,-0.726 -1.731,-1.682 -2.342,-2.873 -0.629,-1.181 -0.928,-2.648 -0.928,-4.388 0,-1.478 0.251,-2.795 0.752,-3.954 0.504,-1.157 1.198,-2.13 2.073,-2.917 0.882,-0.784 1.911,-1.378 3.09,-1.791 1.167,-0.409 2.433,-0.608 3.781,-0.608 1.064,0 2.149,0.149 3.256,0.434 1.11,0.296 2.134,0.732 3.085,1.3 v 5.035 h -8.248 v 1.957 h 10.26 v -7.996 c -0.737,-0.489 -1.445,-0.892 -2.138,-1.23 -0.695,-0.332 -1.386,-0.601 -2.076,-0.807 -0.695,-0.211 -1.396,-0.364 -2.106,-0.46 -0.71,-0.092 -1.455,-0.143 -2.229,-0.143 -1.516,0 -2.974,0.254 -4.356,0.742 -1.378,0.49 -2.603,1.221 -3.666,2.177 -1.061,0.956 -1.916,2.129 -2.541,3.506 -0.636,1.39 -0.955,2.969 -0.955,4.755 0,2.047 0.367,3.782 1.109,5.201 0.735,1.426 1.677,2.575 2.815,3.471 1.139,0.886 2.378,1.536 3.725,1.927 1.338,0.405 2.625,0.605 3.869,0.605 1.075,0 2.037,-0.099 2.865,-0.306 0.837,-0.199 1.601,-0.49 2.292,-0.896 0.693,-0.396 1.337,-0.89 1.931,-1.471 0.604,-0.595 1.195,-1.27 1.808,-2.047 z" /></g><g
           transform="translate(475.3203,270.3584)"
           id="g110"><path
             id="path112"
             style="fill:#4d4c4e;fill-opacity:1;fill-rule:nonzero;stroke:none"
             d="m 0,0 c -0.326,-1.176 -0.846,-2.132 -1.548,-2.854 -0.697,-0.719 -1.595,-1.238 -2.681,-1.548 -1.09,-0.313 -2.392,-0.474 -3.888,-0.474 -1.474,0 -2.75,0.161 -3.821,0.474 -1.073,0.31 -1.953,0.829 -2.65,1.548 -0.683,0.722 -1.199,1.678 -1.545,2.854 -0.338,1.188 -0.513,2.648 -0.513,4.392 v 12.709 h 2.026 V 4.45 c 0,-1.382 0.093,-2.549 0.289,-3.488 0.206,-0.962 0.55,-1.718 1.039,-2.295 0.5,-0.585 1.157,-0.996 1.999,-1.253 0.828,-0.254 1.887,-0.38 3.176,-0.38 1.33,0 2.409,0.126 3.263,0.38 0.837,0.257 1.51,0.668 1.999,1.253 0.492,0.577 0.835,1.333 1.019,2.295 0.192,0.939 0.288,2.106 0.288,3.488 V 17.101 H 0.5 V 4.392 C 0.5,2.648 0.335,1.188 0,0" /></g><g
           transform="translate(491.9463,279.6973)"
           id="g114"><path
             id="path116"
             style="fill:#4d4c4e;fill-opacity:1;fill-rule:nonzero;stroke:none"
             d="M 0,0 C -0.322,0.747 -0.645,1.478 -0.971,2.208 -1.29,2.94 -1.613,3.688 -1.936,4.472 -2.26,3.73 -2.564,3 -2.861,2.27 -3.149,1.557 -3.46,0.84 -3.785,0.118 l -2.133,-4.947 h 7.995 z m 6.084,-13.812 -3.159,7.051 h -9.724 l -3.123,-7.051 h -2.171 l 9.534,21.574 h 1.275 L 8.27,-13.812 Z" /></g><g
           transform="translate(522.4121,282.7207)"
           id="g118"><path
             id="path120"
             style="fill:#4d4c4e;fill-opacity:1;fill-rule:nonzero;stroke:none"
             d="m 0,0 c -0.203,0.508 -0.606,0.973 -1.238,1.39 -0.624,0.415 -1.524,0.761 -2.685,1.018 -1.169,0.271 -2.721,0.401 -4.648,0.401 h -5.205 v -8.955 h 7.105 c 1.182,0 2.197,0.138 3.076,0.413 0.869,0.272 1.599,0.63 2.173,1.062 0.58,0.446 1.007,0.93 1.294,1.482 0.277,0.549 0.427,1.107 0.427,1.674 0,0.496 -0.104,1 -0.299,1.515 m 1.856,-16.835 -9.004,8.788 h -6.628 v -8.788 h -2.018 V 4.738 h 7.448 c 3.645,0 6.328,-0.535 8.063,-1.617 1.731,-1.08 2.599,-2.619 2.599,-4.636 0,-0.849 -0.178,-1.639 -0.542,-2.34 C 1.411,-4.569 0.927,-5.195 0.313,-5.746 -0.299,-6.298 -1.031,-6.75 -1.862,-7.117 -2.699,-7.475 -3.595,-7.728 -4.564,-7.883 l 9.267,-8.952 z" /></g><g
           transform="translate(542.1016,279.6973)"
           id="g122"><path
             id="path124"
             style="fill:#4d4c4e;fill-opacity:1;fill-rule:nonzero;stroke:none"
             d="M 0,0 C -0.32,0.747 -0.641,1.478 -0.969,2.208 -1.289,2.94 -1.605,3.688 -1.936,4.472 -2.252,3.73 -2.565,3 -2.856,2.27 -3.156,1.557 -3.465,0.84 -3.785,0.118 l -2.129,-4.947 h 7.996 z m 6.09,-13.812 -3.162,7.051 h -9.727 l -3.127,-7.051 h -2.156 l 9.521,21.574 h 1.278 l 9.555,-21.574 z" /></g><g
           transform="translate(572.4668,265.8857)"
           id="g126"><path
             id="path128"
             style="fill:#4d4c4e;fill-opacity:1;fill-rule:nonzero;stroke:none"
             d="m 0,0 c -3.531,4.357 -6.505,8.029 -8.926,11.027 -2.426,2.998 -4.383,5.415 -5.858,7.256 0.02,-1.841 0.033,-4.261 0.045,-7.264 C -14.732,8.01 -14.728,4.337 -14.728,0 h -2.047 v 21.573 h 1.82 c 3.525,-4.354 6.507,-8.048 8.945,-11.052 2.431,-3.019 4.38,-5.428 5.841,-7.224 -0.016,1.837 -0.031,4.259 -0.036,7.253 -0.015,2.987 -0.023,6.669 -0.023,11.023 h 2.05 L 1.822,0 Z" /></g><path
           id="path130"
           style="fill:#4d4c4e;fill-opacity:1;fill-rule:nonzero;stroke:none"
           d="m 581.339,287.459 h 2.044 v -21.573 h -2.044 z" /><g
           transform="translate(369.167,383.8135)"
           id="g132"><path
             id="path134"
             style="fill:#593c31;fill-opacity:1;fill-rule:nonzero;stroke:none"
             d="m 0,0 -2.89,1.696 c 4.816,8.209 2.264,18.909 2.234,19.021 l -0.036,0.188 C -1.821,29.456 -1.454,36.083 -1.447,36.35 0.585,54.033 16.957,53.212 17.118,53.194 28.325,52.376 32.177,39.646 32.577,33.152 l -3.49,0.026 C 29.075,33.344 27.952,49.046 16.894,49.849 16.37,49.896 3.543,50.447 1.893,36.07 c 0,0 -0.336,-6.478 0.738,-14.647 C 2.915,20.183 5.291,9.033 0,0" /></g><g
           transform="translate(359.8853,397.2778)"
           id="g136"><path
             id="path138"
             style="fill:#593c31;fill-opacity:1;fill-rule:nonzero;stroke:none"
             d="m 0,0 -2.947,1.602 c 1.916,3.545 1.322,12.041 0.928,15.015 -0.949,6.48 -0.033,12.861 0,13.132 l 0.025,0.112 C 4.225,58.435 28.89,54.826 29.131,54.793 47.302,52.198 45.851,20.003 45.86,19.805 H 42.786 C 42.751,20.481 42.869,49.299 28.615,51.485 27.722,51.619 6.846,54.571 1.293,29.201 1.213,28.592 0.457,22.784 1.304,17.089 1.459,15.858 2.788,5.147 0,0" /></g><g
           transform="translate(448.1875,383.3721)"
           id="g140"><path
             id="path142"
             style="fill:#593c31;fill-opacity:1;fill-rule:nonzero;stroke:none"
             d="m 0,0 c -5.044,4.153 -3.4,16.496 -3.189,17.891 1.78,13.329 0.044,20.767 0.029,20.836 -4.486,14.262 -16.076,11.729 -16.569,11.616 l -0.152,-0.029 C -30.177,48.852 -32.657,33.713 -32.678,33.561 h -3.091 c 0.113,0.732 2.63,18.217 15.376,20.064 1.321,0.267 15.26,2.555 20.464,-13.999 0.102,-0.426 1.932,-8.158 0.058,-22.203 -0.67,-4.561 -0.71,-12.608 2,-14.839 z" /></g><g
           transform="translate(454.5869,397.2778)"
           id="g144"><path
             id="path146"
             style="fill:#593c31;fill-opacity:1;fill-rule:nonzero;stroke:none"
             d="m 0,0 c -2.793,5.147 -1.473,15.858 -1.307,17.058 0.84,5.721 0.087,11.534 0.011,12.143 -5.566,25.37 -26.453,22.418 -27.342,22.284 -13.067,-1.996 -15.103,-17.49 -15.17,-18.14 -0.424,-4.096 -0.448,-5.625 -0.421,-7.27 0.064,-3.456 0.213,-6.171 0.213,-6.177 l -3.568,-0.032 c 0,0.014 -0.236,3.435 -0.165,6.524 0.069,3.607 0.451,6.977 0.472,7.185 0.364,3.359 2.917,18.904 18.127,21.218 0.238,0.046 24.912,3.642 31.142,-24.932 l 0.011,-0.112 c 0.043,-0.271 0.958,-6.652 0,-13.151 C 1.618,13.643 1.023,5.158 2.941,1.602 Z" /></g><g
           transform="translate(347.793,413.8013)"
           id="g148"><path
             id="path150"
             style="fill:#593c31;fill-opacity:1;fill-rule:nonzero;stroke:none"
             d="m 0,0 -2.592,2.122 c 4.532,5.545 3.736,16.942 3.725,17.049 -0.195,6.74 1.631,14.692 1.71,15.034 l 0.074,0.244 c 6.76,16.99 19.424,20.235 19.963,20.363 24.172,6.803 33.69,-17.691 35.186,-22.095 0.134,-0.401 0.204,-0.634 0.206,-0.661 0,0 0.294,-13.783 0.143,-12.508 -0.778,6.881 -3.71,12.699 -3.774,12.89 C 53.566,35.804 45.666,57.762 23.733,51.575 23.208,51.444 12.181,48.524 6.085,33.324 5.858,32.316 4.308,25.149 4.481,19.353 4.508,18.909 5.396,6.589 0,0" /></g><g
           transform="translate(460.1533,422.1387)"
           id="g152"><path
             id="path154"
             style="fill:#593c31;fill-opacity:1;fill-rule:nonzero;stroke:none"
             d="m 0,0 c -1.321,2.226 -0.674,7.908 -0.452,9.593 0.477,3.459 0.006,6.96 0,6.989 -4.879,29.71 -29.694,27.823 -30.75,27.717 l -0.169,-0.003 h -0.277 c -16.459,0 -18.7,-15.951 -18.873,-16.972 l -0.911,-5.443 c 0,0 -1.611,-4.004 -2.474,-10.807 -0.074,-0.596 -0.485,12.06 -0.485,12.06 0,0 0.273,1.235 0.303,1.614 0.143,1.716 0.55,3.757 0.55,3.757 0.022,0.196 2.489,19.147 21.89,19.147 h 0.243 c 1.929,0.126 29.029,1.305 34.266,-30.568 0.027,-0.192 0.54,-4.032 0,-7.939 C 2.439,5.933 2.439,2.445 2.883,1.697 Z" /></g><g
           transform="translate(425.0488,418.2397)"
           id="g156"><path
             id="path158"
             style="fill:#593c31;fill-opacity:1;fill-rule:nonzero;stroke:none"
             d="M 0,0 C -0.843,0 -1.538,0.692 -1.538,1.547 -1.538,2.4 -0.843,3.089 0,3.089 0.861,3.089 1.552,2.4 1.552,1.547 1.552,0.692 0.861,0 0,0" /></g><g
           transform="translate(428.625,414.7896)"
           id="g160"><path
             id="path162"
             style="fill:#593c31;fill-opacity:1;fill-rule:nonzero;stroke:none"
             d="m 0,0 c -0.851,0 -1.54,0.7 -1.54,1.55 0,0.842 0.689,1.545 1.54,1.545 0.854,0 1.547,-0.703 1.547,-1.545 C 1.547,0.7 0.854,0 0,0" /></g><g
           transform="translate(425.0488,411.7007)"
           id="g164"><path
             id="path166"
             style="fill:#593c31;fill-opacity:1;fill-rule:nonzero;stroke:none"
             d="m 0,0 c -0.843,0 -1.538,0.687 -1.538,1.545 0,0.854 0.695,1.544 1.538,1.544 0.861,0 1.552,-0.69 1.552,-1.544 C 1.552,0.687 0.861,0 0,0" /></g><g
           transform="translate(431.9863,411.5322)"
           id="g168"><path
             id="path170"
             style="fill:#593c31;fill-opacity:1;fill-rule:nonzero;stroke:none"
             d="m 0,0 c -0.854,0 -1.549,0.685 -1.549,1.535 0,0.852 0.695,1.547 1.549,1.547 0.848,0 1.547,-0.695 1.547,-1.547 C 1.547,0.685 0.848,0 0,0" /></g><g
           transform="translate(428.417,408.4355)"
           id="g172"><path
             id="path174"
             style="fill:#593c31;fill-opacity:1;fill-rule:nonzero;stroke:none"
             d="m 0,0 c -0.848,0 -1.545,0.687 -1.545,1.544 0,0.85 0.697,1.553 1.545,1.553 0.85,0 1.547,-0.703 1.547,-1.553 C 1.547,0.687 0.85,0 0,0" /></g><g
           transform="translate(421.9736,414.7896)"
           id="g176"><path
             id="path178"
             style="fill:#593c31;fill-opacity:1;fill-rule:nonzero;stroke:none"
             d="m 0,0 c -0.857,0 -1.554,0.7 -1.554,1.55 0,0.842 0.697,1.545 1.554,1.545 0.854,0 1.537,-0.703 1.537,-1.545 C 1.537,0.7 0.854,0 0,0" /></g><g
           transform="translate(383.0898,412.9561)"
           id="g180"><path
             id="path182"
             style="fill:#593c31;fill-opacity:1;fill-rule:nonzero;stroke:none"
             d="m 0,0 c 0,-0.838 -0.69,-1.547 -1.541,-1.547 -0.854,0 -1.546,0.709 -1.546,1.547 0,0.866 0.692,1.553 1.546,1.553 C -0.69,1.553 0,0.866 0,0" /></g><g
           transform="translate(386.5415,416.5215)"
           id="g184"><path
             id="path186"
             style="fill:#593c31;fill-opacity:1;fill-rule:nonzero;stroke:none"
             d="m 0,0 c 0,-0.844 -0.693,-1.534 -1.547,-1.534 -0.863,0 -1.547,0.69 -1.547,1.534 0,0.863 0.684,1.551 1.547,1.551 C -0.693,1.551 0,0.863 0,0" /></g><g
           transform="translate(389.623,412.9561)"
           id="g188"><path
             id="path190"
             style="fill:#593c31;fill-opacity:1;fill-rule:nonzero;stroke:none"
             d="m 0,0 c 0,-0.838 -0.687,-1.547 -1.542,-1.547 -0.847,0 -1.54,0.709 -1.54,1.547 0,0.866 0.693,1.553 1.54,1.553 C -0.687,1.553 0,0.866 0,0" /></g><g
           transform="translate(389.8101,419.8911)"
           id="g192"><path
             id="path194"
             style="fill:#593c31;fill-opacity:1;fill-rule:nonzero;stroke:none"
             d="m 0,0 c 0,-0.852 -0.698,-1.542 -1.542,-1.542 -0.858,0 -1.545,0.69 -1.545,1.542 0,0.855 0.687,1.542 1.545,1.542 C -0.698,1.542 0,0.855 0,0" /></g><g
           transform="translate(392.8945,416.3267)"
           id="g196"><path
             id="path198"
             style="fill:#593c31;fill-opacity:1;fill-rule:nonzero;stroke:none"
             d="m 0,0 c 0,-0.855 -0.686,-1.545 -1.543,-1.545 -0.857,0 -1.541,0.69 -1.541,1.545 0,0.85 0.684,1.544 1.541,1.544 C -0.686,1.544 0,0.85 0,0" /></g><g
           transform="translate(386.5415,409.873)"
           id="g200"><path
             id="path202"
             style="fill:#593c31;fill-opacity:1;fill-rule:nonzero;stroke:none"
             d="m 0,0 c 0,-0.851 -0.693,-1.544 -1.547,-1.544 -0.863,0 -1.547,0.693 -1.547,1.544 0,0.847 0.684,1.536 1.547,1.536 C -0.693,1.536 0,0.847 0,0" /></g><g
           transform="translate(422.4414,428.71)"
           id="g204"><path
             id="path206"
             style="fill:#593c31;fill-opacity:1;fill-rule:nonzero;stroke:none"
             d="m 0,0 c 1.264,-1.136 2.395,-2.421 3.551,-3.68 0.292,-0.313 1.803,0.267 1.531,0.559 -1.159,1.262 -2.29,2.544 -3.55,3.687 C 1.199,0.863 -0.271,0.243 0,0" /></g><g
           transform="translate(429.0488,430.936)"
           id="g208"><path
             id="path210"
             style="fill:#593c31;fill-opacity:1;fill-rule:nonzero;stroke:none"
             d="m 0,0 c 1.834,-1.739 2.511,-4.324 3.935,-6.338 0.356,-0.509 1.923,0.064 1.499,0.67 C 4.004,-3.65 3.344,-1.082 1.496,0.673 1.037,1.109 -0.498,0.475 0,0" /></g><g
           transform="translate(435.7676,429.4077)"
           id="g212"><path
             id="path214"
             style="fill:#593c31;fill-opacity:1;fill-rule:nonzero;stroke:none"
             d="m 0,0 c 1.558,-2.333 2.227,-4.985 3.108,-7.606 0.22,-0.66 1.839,-0.203 1.621,0.433 C 3.816,-4.463 3.108,-1.735 1.498,0.679 1.141,1.213 -0.422,0.636 0,0" /></g><g
           transform="translate(441.5498,421.1313)"
           id="g216"><path
             id="path218"
             style="fill:#593c31;fill-opacity:1;fill-rule:nonzero;stroke:none"
             d="m 0,0 c -0.668,-2.979 -1.549,-5.893 -2.164,-8.883 -0.093,-0.463 1.521,-0.189 1.609,0.257 0.618,2.993 1.498,5.903 2.162,8.877 C 1.709,0.71 0.1,0.443 0,0" /></g><g
           transform="translate(442.8096,412.1631)"
           id="g220"><path
             id="path222"
             style="fill:#593c31;fill-opacity:1;fill-rule:nonzero;stroke:none"
             d="m 0,0 c 0,-1.893 -1.645,-4.295 -2.433,-6.002 -1.068,-2.354 -2.018,-4.678 -2.887,-7.107 -0.121,-0.327 1.448,-0.146 1.6,0.274 0.866,2.431 1.792,4.778 2.897,7.11 0.874,1.842 2.438,4.109 2.438,6.152 C 1.615,0.716 0,0.478 0,0" /></g><g
           transform="translate(442.0488,402.2671)"
           id="g224"><path
             id="path226"
             style="fill:#593c31;fill-opacity:1;fill-rule:nonzero;stroke:none"
             d="m 0,0 c -0.322,-3.591 -1.529,-7.137 -2.147,-10.689 -0.075,-0.443 1.531,-0.15 1.609,0.271 0.634,3.612 1.83,7.195 2.156,10.858 C 1.648,0.708 0.048,0.521 0,0" /></g><g
           transform="translate(443.0615,389.8486)"
           id="g228"><path
             id="path230"
             style="fill:#593c31;fill-opacity:1;fill-rule:nonzero;stroke:none"
             d="m 0,0 c 0.616,-1.824 0.256,-4.146 0.256,-6.063 0,-2.581 -0.072,-4.904 0.761,-7.378 0.117,-0.356 1.73,0.127 1.623,0.431 -0.73,2.166 -0.762,4.12 -0.762,6.397 0,2.185 0.456,4.965 -0.251,7.048 C 1.499,0.79 -0.108,0.305 0,0" /></g><g
           transform="translate(448.1875,382.2622)"
           id="g232"><path
             id="path234"
             style="fill:#593c31;fill-opacity:1;fill-rule:nonzero;stroke:none"
             d="M 0,0 C 1.319,-1.905 1.88,-4.237 3.304,-6.083 3.651,-6.536 5.218,-5.97 4.81,-5.435 3.389,-3.602 2.826,-1.269 1.509,0.641 1.19,1.099 -0.382,0.553 0,0" /></g><g
           transform="translate(449.2119,388.5825)"
           id="g236"><path
             id="path238"
             style="fill:#593c31;fill-opacity:1;fill-rule:nonzero;stroke:none"
             d="m 0,0 c 0.931,-0.928 1.86,-1.857 2.794,-2.79 1.004,-0.999 1.718,-2.233 2.655,-3.295 0.424,-0.489 1.98,0.126 1.496,0.668 -0.82,0.936 -1.49,1.978 -2.298,2.921 C 3.69,-1.376 2.541,-0.366 1.496,0.68 1.042,1.136 -0.499,0.513 0,0" /></g><g
           transform="translate(448.5684,394.5786)"
           id="g240"><path
             id="path242"
             style="fill:#593c31;fill-opacity:1;fill-rule:nonzero;stroke:none"
             d="M 0,0 C 2.279,-1.685 4.474,-3.588 6.719,-5.328 7.226,-5.722 8.69,-5.002 7.982,-4.459 5.731,-2.714 3.549,-0.81 1.264,0.863 0.745,1.249 -0.711,0.51 0,0" /></g><g
           transform="translate(420.7158,435.3291)"
           id="g244"><path
             id="path246"
             style="fill:#593c31;fill-opacity:1;fill-rule:nonzero;stroke:none"
             d="M 0,0 C 0.159,0.435 0.159,0.807 0.141,1.267 0.108,2.207 0.347,3.049 0.624,3.934 0.849,4.626 1.381,5.326 1.741,5.965 2.225,6.826 2.599,7.755 3.233,8.522 3.622,8.987 2.024,8.797 1.746,8.463 0.717,7.215 0.054,5.599 -0.72,4.188 -1.129,3.431 -1.323,2.625 -1.457,1.791 -1.57,1.09 -1.37,0.417 -1.611,-0.253 -1.759,-0.657 -0.17,-0.462 0,0" /></g><g
           transform="translate(425.1191,438.1694)"
           id="g248"><path
             id="path250"
             style="fill:#593c31;fill-opacity:1;fill-rule:nonzero;stroke:none"
             d="M 0,0 C 1.48,2.777 3.441,5.185 5.97,7.087 6.851,7.758 5.521,8.231 4.909,7.774 2.188,5.722 0.051,3.138 -1.549,0.15 -1.965,-0.633 -0.318,-0.593 0,0" /></g><g
           transform="translate(429.8467,438.4751)"
           id="g252"><path
             id="path254"
             style="fill:#593c31;fill-opacity:1;fill-rule:nonzero;stroke:none"
             d="M 0,0 C 0.545,1.389 2.471,2.541 3.623,3.339 4.988,4.283 6.466,5.045 8.004,5.656 9.056,6.076 8.093,6.608 7.361,6.319 5.46,5.563 3.645,4.584 1.994,3.374 0.722,2.453 -1.027,1.33 -1.622,-0.198 -1.83,-0.733 -0.207,-0.538 0,0" /></g><g
           transform="translate(435.7676,437.8521)"
           id="g256"><path
             id="path258"
             style="fill:#593c31;fill-opacity:1;fill-rule:nonzero;stroke:none"
             d="M 0,0 C 2.668,0.5 5.52,0.636 8.234,0.884 8.982,0.956 9.615,1.78 8.484,1.676 5.762,1.426 2.929,1.298 0.244,0.789 -0.479,0.655 -1.132,-0.211 0,0" /></g><g
           transform="translate(442.5127,435.062)"
           id="g260"><path
             id="path262"
             style="fill:#593c31;fill-opacity:1;fill-rule:nonzero;stroke:none"
             d="m 0,0 c 1.491,-0.545 3.521,-0.166 5.086,-0.166 0.895,0 1.263,1.123 0.162,1.123 C 3.997,0.957 2.144,0.612 0.951,1.042 0.3,1.283 -0.957,0.347 0,0" /></g><g
           transform="translate(445.2783,430.0376)"
           id="g264"><path
             id="path266"
             style="fill:#593c31;fill-opacity:1;fill-rule:nonzero;stroke:none"
             d="M 0,0 C 1.772,-1.274 3.771,-2.485 5.746,-3.388 6.453,-3.714 7.618,-2.686 6.665,-2.25 4.811,-1.395 2.909,-0.232 1.242,0.963 0.628,1.403 -0.775,0.548 0,0" /></g><g
           transform="translate(447.9395,424.2119)"
           id="g268"><path
             id="path270"
             style="fill:#593c31;fill-opacity:1;fill-rule:nonzero;stroke:none"
             d="M 0,0 C 0.537,-1.031 1.428,-1.667 2.159,-2.533 2.596,-3.051 4.143,-2.432 3.66,-1.854 2.92,-0.98 2.031,-0.347 1.493,0.685 1.198,1.256 -0.37,0.698 0,0" /></g><g
           transform="translate(449.6719,415.0566)"
           id="g272"><path
             id="path274"
             style="fill:#593c31;fill-opacity:1;fill-rule:nonzero;stroke:none"
             d="m 0,0 c 0.665,-1.122 1.137,-2.408 1.724,-3.578 0.282,-0.558 1.861,-0.04 1.62,0.433 -0.618,1.248 -1.126,2.59 -1.84,3.782 C 1.227,1.102 -0.35,0.586 0,0" /></g><g
           transform="translate(449.1514,405.5708)"
           id="g276"><path
             id="path278"
             style="fill:#593c31;fill-opacity:1;fill-rule:nonzero;stroke:none"
             d="M 0,0 C 0.508,-1.422 1.119,-2.777 1.644,-4.189 1.816,-4.664 3.42,-4.173 3.265,-3.755 2.744,-2.341 2.13,-0.986 1.622,0.433 1.455,0.908 -0.155,0.424 0,0" /></g><g
           transform="translate(449.2744,398.7271)"
           id="g280"><path
             id="path282"
             style="fill:#593c31;fill-opacity:1;fill-rule:nonzero;stroke:none"
             d="M 0,0 C 0.305,-1.454 1.672,-2.146 2.883,-2.772 3.586,-3.13 4.74,-2.112 3.81,-1.633 2.907,-1.17 1.848,-0.657 1.627,0.432 1.457,1.227 -0.167,0.798 0,0" /></g><g
           transform="translate(414.0723,457.7495)"
           id="g284"><path
             id="path286"
             style="fill:#593c31;fill-opacity:1;fill-rule:nonzero;stroke:none"
             d="m 0,0 c 0.83,-0.718 1.956,-1.127 2.98,-1.517 1.508,-0.573 2.999,-1.155 4.499,-1.781 0.446,-0.184 1.7,0.484 1.523,0.559 C 7.743,-2.218 6.521,-1.611 5.226,-1.187 3.974,-0.767 2.547,-0.318 1.525,0.561 1.191,0.845 -0.257,0.222 0,0" /></g><g
           transform="translate(419.4297,460.9194)"
           id="g288"><path
             id="path290"
             style="fill:#593c31;fill-opacity:1;fill-rule:nonzero;stroke:none"
             d="m 0,0 c 1.518,-0.481 2.861,-1.492 4.289,-2.2 1.762,-0.879 3.563,-1.673 5.321,-2.546 0.6,-0.294 2.043,0.526 1.266,0.913 -1.77,0.866 -3.567,1.668 -5.332,2.54 C 4.003,-0.529 2.6,0.537 0.945,1.058 0.283,1.27 -0.971,0.31 0,0" /></g><g
           transform="translate(427.7773,463.5059)"
           id="g292"><path
             id="path294"
             style="fill:#593c31;fill-opacity:1;fill-rule:nonzero;stroke:none"
             d="m 0,0 c 3.218,-3.597 7.004,-6.598 10.15,-10.267 0.452,-0.529 1.998,0.099 1.492,0.695 C 8.496,-5.892 4.709,-2.905 1.492,0.7 1.032,1.215 -0.518,0.583 0,0" /></g><g
           transform="translate(438.5469,461.3813)"
           id="g296"><path
             id="path298"
             style="fill:#593c31;fill-opacity:1;fill-rule:nonzero;stroke:none"
             d="m 0,0 c 3.117,-3.453 6.082,-6.919 8.063,-11.175 0.267,-0.567 1.851,-0.059 1.625,0.432 C 7.675,-6.421 4.676,-2.88 1.51,0.639 1.125,1.066 -0.422,0.47 0,0" /></g><g
           transform="translate(449.4023,455.7832)"
           id="g300"><path
             id="path302"
             style="fill:#593c31;fill-opacity:1;fill-rule:nonzero;stroke:none"
             d="m 0,0 c 1.57,-3.937 2.846,-7.961 3.929,-12.044 0.157,-0.599 1.784,-0.166 1.625,0.433 C 4.473,-7.522 3.192,-3.506 1.628,0.427 1.387,1.028 -0.217,0.545 0,0" /></g><g
           transform="translate(414.2549,466.1675)"
           id="g304"><path
             id="path306"
             style="fill:#593c31;fill-opacity:1;fill-rule:nonzero;stroke:none"
             d="M 0,0 C 0.509,2.411 2.468,4.521 3.562,6.721 3.935,7.472 2.299,7.333 2.04,6.806 0.887,4.502 -1.097,2.371 -1.633,-0.182 -1.773,-0.863 -0.125,-0.609 0,0" /></g><g
           transform="translate(419.8252,469.27)"
           id="g308"><path
             id="path310"
             style="fill:#593c31;fill-opacity:1;fill-rule:nonzero;stroke:none"
             d="M 0,0 C 2.497,2.739 6.05,4.091 8.794,6.528 9.621,7.264 8.321,7.782 7.725,7.25 4.88,4.725 1.243,3.308 -1.353,0.463 -2.042,-0.292 -0.479,-0.529 0,0" /></g><g
           transform="translate(427.6816,470.8311)"
           id="g312"><path
             id="path314"
             style="fill:#593c31;fill-opacity:1;fill-rule:nonzero;stroke:none"
             d="M 0,0 C 1.942,1.737 5.483,1.982 7.967,2.474 8.998,2.686 8.674,3.819 7.664,3.607 4.839,3.046 1.154,2.76 -1.09,0.764 -1.908,0.024 -0.62,-0.554 0,0" /></g><g
           transform="translate(435.2139,469.7729)"
           id="g316"><path
             id="path318"
             style="fill:#593c31;fill-opacity:1;fill-rule:nonzero;stroke:none"
             d="m 0,0 c 1.724,0.091 3.333,0.545 4.99,1.004 2.537,0.69 5.157,1.063 7.75,1.465 0.81,0.128 1.318,1.16 0.198,0.986 C 11.056,3.164 9.183,2.848 7.313,2.474 4.938,2.009 2.625,1.111 0.195,0.985 -0.641,0.938 -1.119,-0.057 0,0" /></g><g
           transform="translate(446.6436,466.835)"
           id="g320"><path
             id="path322"
             style="fill:#593c31;fill-opacity:1;fill-rule:nonzero;stroke:none"
             d="M 0,0 C 3.32,-0.029 6.608,-0.379 9.871,-0.951 10.659,-1.082 11.537,0.014 10.45,0.202 7.034,0.784 3.619,1.123 0.152,1.149 -0.759,1.163 -1.104,0.014 0,0" /></g><g
           transform="translate(453.1025,463.041)"
           id="g324"><path
             id="path326"
             style="fill:#593c31;fill-opacity:1;fill-rule:nonzero;stroke:none"
             d="M 0,0 C 1.16,-0.516 2.282,-1.099 3.427,-1.644 4.481,-2.146 5.988,-2.587 6.89,-3.337 7.461,-3.813 8.861,-2.993 8.132,-2.376 7.272,-1.66 5.946,-1.288 4.935,-0.78 3.612,-0.123 2.28,0.523 0.937,1.125 0.229,1.435 -0.95,0.425 0,0" /></g><g
           transform="translate(458.2773,457.3062)"
           id="g328"><path
             id="path330"
             style="fill:#593c31;fill-opacity:1;fill-rule:nonzero;stroke:none"
             d="m 0,0 c 0.523,-1.325 1.745,-2.055 2.904,-2.78 1.673,-1.049 3.678,-2.094 5.133,-3.409 0.42,-0.374 1.938,0.249 1.511,0.633 -1.243,1.12 -2.795,1.751 -4.153,2.728 C 4.091,-1.892 2.247,-1.146 1.623,0.433 1.402,0.987 -0.199,0.497 0,0" /></g><g
           transform="translate(462.2715,448.9419)"
           id="g332"><path
             id="path334"
             style="fill:#593c31;fill-opacity:1;fill-rule:nonzero;stroke:none"
             d="m 0,0 c 0.859,-2.154 3.352,-3.568 4.998,-5.032 0.368,-0.326 1.859,0.283 1.511,0.59 C 4.932,-3.03 2.448,-1.633 1.624,0.433 1.43,0.912 -0.162,0.403 0,0" /></g><g
           transform="translate(464.5557,441.1338)"
           id="g336"><path
             id="path338"
             style="fill:#593c31;fill-opacity:1;fill-rule:nonzero;stroke:none"
             d="M 0,0 C 0.688,-2.493 3.245,-4.247 3.804,-6.839 3.962,-7.582 5.586,-7.16 5.425,-6.411 5.188,-5.275 4.496,-4.314 3.946,-3.306 3.266,-2.072 2.002,-0.944 1.626,0.43 1.42,1.17 -0.207,0.731 0,0" /></g><g
           transform="translate(465.3184,431.8198)"
           id="g340"><path
             id="path342"
             style="fill:#593c31;fill-opacity:1;fill-rule:nonzero;stroke:none"
             d="M 0,0 C 0.139,-0.854 0.682,-1.651 1.073,-2.405 1.857,-3.891 2.784,-5.411 3.226,-7.036 3.423,-7.784 5.047,-7.354 4.85,-6.605 4.537,-5.44 3.957,-4.32 3.394,-3.251 2.828,-2.166 1.825,-0.795 1.622,0.436 1.499,1.176 -0.126,0.768 0,0" /></g><g
           transform="translate(463.6025,423.2529)"
           id="g344"><path
             id="path346"
             style="fill:#593c31;fill-opacity:1;fill-rule:nonzero;stroke:none"
             d="m 0,0 c 0.112,-0.911 0.651,-1.497 1.058,-2.301 0.428,-0.842 0.9,-1.657 1.415,-2.453 0.815,-1.258 1.403,-2.709 2.337,-3.885 0.294,-0.377 1.851,0.176 1.518,0.601 C 5.323,-6.774 4.666,-5.187 3.784,-3.829 3.061,-2.701 1.788,-0.887 1.625,0.433 1.568,0.871 -0.069,0.526 0,0" /></g><g
           transform="translate(356.5767,466.2612)"
           id="g348"><path
             id="path350"
             style="fill:#593c31;fill-opacity:1;fill-rule:nonzero;stroke:none"
             d="M 0,0 C -1.338,-0.602 -2.631,-1.298 -3.965,-1.906 -5.004,-2.379 -6.3,-2.795 -7.166,-3.53 c -0.842,-0.724 0.451,-1.32 1.082,-0.784 0.731,0.626 1.988,0.984 2.848,1.412 1.307,0.657 2.63,1.304 3.965,1.91 C 1.738,-0.538 0.839,0.379 0,0" /></g><g
           transform="translate(351.2378,458.939)"
           id="g352"><path
             id="path354"
             style="fill:#593c31;fill-opacity:1;fill-rule:nonzero;stroke:none"
             d="m 0,0 c -0.599,-1.531 -2.416,-2.181 -3.637,-3.132 -1.313,-1.021 -2.881,-1.606 -4.132,-2.726 -0.697,-0.625 0.917,-0.585 1.299,-0.248 1.449,1.298 3.407,2.328 5.061,3.373 1.215,0.771 2.484,1.549 3.031,2.939 C 1.822,0.725 0.209,0.518 0,0" /></g><g
           transform="translate(346.6914,451.1763)"
           id="g356"><path
             id="path358"
             style="fill:#593c31;fill-opacity:1;fill-rule:nonzero;stroke:none"
             d="m 0,0 c -0.454,-1.382 -1.69,-2.387 -2.61,-3.466 -1.057,-1.235 -2.239,-2.144 -3.375,-3.274 -0.414,-0.409 1.175,-0.262 1.488,0.051 0.603,0.607 1.395,0.997 1.983,1.619 0.618,0.655 1.163,1.384 1.743,2.068 0.878,1.024 1.95,1.933 2.38,3.25 C 1.756,0.687 0.149,0.475 0,0" /></g><g
           transform="translate(346.79,442.8276)"
           id="g360"><path
             id="path362"
             style="fill:#593c31;fill-opacity:1;fill-rule:nonzero;stroke:none"
             d="m 0,0 c -0.79,-1.08 -2.383,-1.873 -3.47,-2.63 -0.941,-0.657 -2.05,-1.533 -2.619,-2.538 -0.447,-0.781 1.201,-0.773 1.55,-0.171 1.264,2.21 4.419,2.861 5.892,4.88 C 1.962,0.371 0.423,0.585 0,0" /></g><g
           transform="translate(346.1768,435.4092)"
           id="g364"><path
             id="path366"
             style="fill:#593c31;fill-opacity:1;fill-rule:nonzero;stroke:none"
             d="m 0,0 c -0.369,-1.184 -1.513,-2.413 -2.208,-3.412 -0.689,-0.997 -1.427,-2.028 -1.87,-3.157 -0.349,-0.868 1.285,-0.844 1.547,-0.176 0.546,1.363 1.502,2.635 2.365,3.822 0.602,0.834 1.414,1.752 1.716,2.741 C 1.822,0.716 0.206,0.685 0,0" /></g><g
           transform="translate(345.3716,425.5171)"
           id="g368"><path
             id="path370"
             style="fill:#593c31;fill-opacity:1;fill-rule:nonzero;stroke:none"
             d="m 0,0 c -0.12,-1.313 -1.416,-3.053 -2.092,-4.169 -0.837,-1.393 -1.554,-3.034 -2.573,-4.297 -0.403,-0.495 1.21,-0.313 1.488,0.034 1.04,1.291 1.681,2.913 2.579,4.3 0.427,0.666 0.791,1.368 1.154,2.055 0.409,0.783 0.979,1.416 1.056,2.317 C 1.666,0.793 0.039,0.459 0,0" /></g><g
           transform="translate(460.3691,418.6914)"
           id="g372"><path
             id="path374"
             style="fill:#593c31;fill-opacity:1;fill-rule:nonzero;stroke:none"
             d="M 0,0 C 0.091,-1.657 0.235,-3.311 0.566,-4.944 0.703,-5.617 2.336,-5.2 2.191,-4.508 1.854,-2.886 1.711,-1.213 1.622,0.438 1.588,1.083 -0.038,0.728 0,0" /></g><g
           transform="translate(455.8008,441.7026)"
           id="g376"><path
             id="path378"
             style="fill:#593c31;fill-opacity:1;fill-rule:nonzero;stroke:none"
             d="m 0,0 v -3.707 c 0,-1.039 0.352,-2.899 -0.185,-3.813 -0.147,-0.243 1.356,-0.142 1.606,0.275 0.472,0.799 0.2,2.016 0.2,2.921 V 0.441 C 1.621,0.748 0,0.492 0,0" /></g><g
           transform="translate(403.6094,457.4507)"
           id="g380"><path
             id="path382"
             style="fill:#593c31;fill-opacity:1;fill-rule:nonzero;stroke:none"
             d="M 0,0 C 0.471,2.183 0.272,4.39 0.256,6.6 0.245,7.461 -1.397,7.218 -1.393,6.478 -1.372,4.27 -1.176,2.065 -1.649,-0.118 -1.822,-0.925 -0.157,-0.722 0,0" /></g><g
           transform="translate(399.6035,463.3105)"
           id="g384"><path
             id="path386"
             style="fill:#593c31;fill-opacity:1;fill-rule:nonzero;stroke:none"
             d="M 0,0 C -1.553,2.657 -1.884,5.89 -3.236,8.629 -3.553,9.287 -5.157,8.787 -4.855,8.199 -3.461,5.361 -3.096,2.055 -1.493,-0.678 -1.158,-1.246 0.404,-0.678 0,0" /></g><g
           transform="translate(394.041,468.1904)"
           id="g388"><path
             id="path390"
             style="fill:#593c31;fill-opacity:1;fill-rule:nonzero;stroke:none"
             d="M 0,0 C -1.441,1.282 -2.558,2.942 -3.896,4.34 -5.292,5.785 -6.795,7.103 -8.242,8.493 -8.534,8.784 -9.998,8.169 -9.773,7.958 -8.327,6.555 -6.826,5.243 -5.431,3.792 -4.087,2.397 -2.982,0.746 -1.531,-0.54 -1.217,-0.818 0.219,-0.187 0,0" /></g><g
           transform="translate(384.9087,472.0146)"
           id="g392"><path
             id="path394"
             style="fill:#593c31;fill-opacity:1;fill-rule:nonzero;stroke:none"
             d="m 0,0 c -0.672,0.497 -1.383,0.692 -2.127,1.096 -0.842,0.462 -1.66,1.226 -2.584,1.507 -1.844,0.555 -3.597,1.258 -5.513,1.55 -0.704,0.112 -1.692,-0.863 -0.603,-1.029 1.58,-0.251 3.054,-0.82 4.56,-1.317 1.045,-0.348 1.932,-0.994 2.869,-1.561 0.691,-0.423 1.456,-0.604 2.126,-1.099 C -0.785,-1.208 0.692,-0.505 0,0" /></g><g
           transform="translate(363.6587,472.1675)"
           id="g396"><path
             id="path398"
             style="fill:#593c31;fill-opacity:1;fill-rule:nonzero;stroke:none"
             d="M 0,0 C 2.968,-0.078 5.918,-0.639 8.883,-0.768 9.476,-0.794 10.623,0.068 9.527,0.115 6.557,0.248 3.613,0.806 0.646,0.884 0.054,0.9 -1.096,0.027 0,0" /></g><g
           transform="translate(355.8662,470.0508)"
           id="g400"><path
             id="path402"
             style="fill:#593c31;fill-opacity:1;fill-rule:nonzero;stroke:none"
             d="M 0,0 C 1.176,-0.524 2.416,-0.762 3.652,-1.056 4.345,-1.216 5.04,-1.62 5.691,-1.884 6.381,-2.165 6.98,-2.047 7.608,-2.542 7.972,-2.814 9.387,-2.17 9.139,-1.978 8.15,-1.216 6.649,-1.072 5.479,-0.602 4.204,-0.083 2.806,-0.011 1.528,0.558 1.09,0.755 -0.188,0.085 0,0" /></g><g
           transform="translate(396.7471,435.2939)"
           id="g404"><path
             id="path406"
             style="fill:#593c31;fill-opacity:1;fill-rule:nonzero;stroke:none"
             d="M 0,0 C -0.985,1.714 -2.05,3.368 -3.04,5.072 -3.348,5.615 -4.909,5.064 -4.661,4.637 -3.669,2.932 -2.607,1.272 -1.622,-0.433 -1.31,-0.969 0.247,-0.427 0,0" /></g><g
           transform="translate(391.4961,437.8491)"
           id="g408"><path
             id="path410"
             style="fill:#593c31;fill-opacity:1;fill-rule:nonzero;stroke:none"
             d="M 0,0 C -1.834,1.378 -3.295,3.196 -5.334,4.311 -5.989,4.668 -7.394,3.787 -6.571,3.338 -4.538,2.229 -3.079,0.411 -1.243,-0.98 -0.634,-1.435 0.764,-0.583 0,0" /></g><g
           transform="translate(384.2383,438.9209)"
           id="g412"><path
             id="path414"
             style="fill:#593c31;fill-opacity:1;fill-rule:nonzero;stroke:none"
             d="M 0,0 C -2.044,0.692 -3.704,2.178 -5.831,2.792 -6.534,2.995 -7.75,1.983 -6.77,1.696 -4.64,1.08 -2.993,-0.398 -0.939,-1.093 -0.237,-1.328 0.978,-0.329 0,0" /></g><g
           transform="translate(378.7246,438.4561)"
           id="g416"><path
             id="path418"
             style="fill:#593c31;fill-opacity:1;fill-rule:nonzero;stroke:none"
             d="m 0,0 c -0.075,0.008 -0.871,0.395 -0.828,0.387 -0.811,0.286 -1.713,0.273 -2.536,0.58 -0.407,0.153 -0.957,0.045 -1.38,0.045 -0.714,0 -1.377,0.396 -2.1,0.506 -0.79,0.117 -1.656,-1.005 -0.563,-1.166 0.615,-0.096 1.116,-0.512 1.729,-0.512 0.618,0 1.28,0.077 1.88,-0.142 0.57,-0.217 1.105,-0.361 1.711,-0.375 0.534,-0.008 0.97,-0.446 1.524,-0.488 C 0.224,-1.245 1.102,-0.096 0,0" /></g><g
           transform="translate(367.4717,434.1025)"
           id="g420"><path
             id="path422"
             style="fill:#593c31;fill-opacity:1;fill-rule:nonzero;stroke:none"
             d="M 0,0 C 1.625,0 3.165,0.145 4.777,0.264 5.581,0.321 6.117,1.258 4.995,1.176 3.529,1.063 2.105,0.933 0.627,0.933 0.014,0.933 -1.099,0 0,0" /></g><g
           transform="translate(363.1299,427.7236)"
           id="g424"><path
             id="path426"
             style="fill:#593c31;fill-opacity:1;fill-rule:nonzero;stroke:none"
             d="M 0,0 C 0.718,0.083 1.338,0.272 1.972,0.625 2.843,1.109 3.832,1.192 4.82,1.259 5.659,1.323 6.13,2.36 5.005,2.277 4.249,2.223 3.497,2.071 2.733,2.031 1.825,1.983 1.108,1.123 0.189,1.018 -0.642,0.919 -1.12,-0.131 0,0" /></g><g
           transform="translate(393.5342,426.8311)"
           id="g428"><path
             id="path430"
             style="fill:#593c31;fill-opacity:1;fill-rule:nonzero;stroke:none"
             d="m 0,0 c -1.752,-0.206 -3.377,-1.199 -4.924,-1.977 -0.973,-0.486 0.516,-0.581 0.972,-0.355 1.13,0.563 2.421,1.421 3.689,1.579 C 0.463,-0.67 1.134,0.139 0,0" /></g><g
           transform="translate(389.2383,429.6587)"
           id="g432"><path
             id="path434"
             style="fill:#593c31;fill-opacity:1;fill-rule:nonzero;stroke:none"
             d="m 0,0 c -2.685,-0.735 -4.506,-2.683 -5.976,-4.962 -0.417,-0.64 1.222,-0.492 1.515,-0.035 1.152,1.777 2.542,3.586 4.685,4.171 C 1.191,-0.562 0.976,0.267 0,0" /></g><g
           transform="translate(381.6812,429.6616)"
           id="g436"><path
             id="path438"
             style="fill:#593c31;fill-opacity:1;fill-rule:nonzero;stroke:none"
             d="M 0,0 C -0.171,-2.168 -1.41,-4.103 -1.515,-6.336 -1.553,-7.098 0.087,-6.807 0.119,-6.17 0.224,-3.937 1.458,-2.007 1.635,0.168 1.693,0.924 0.056,0.641 0,0" /></g><g
           transform="translate(375.6016,426.4893)"
           id="g440"><path
             id="path442"
             style="fill:#593c31;fill-opacity:1;fill-rule:nonzero;stroke:none"
             d="m 0,0 c 0.24,-0.933 0.135,-1.85 0.257,-2.795 0.128,-1.011 0.846,-1.852 0.75,-2.897 -0.069,-0.775 1.579,-0.502 1.635,0.155 0.081,0.869 -0.226,1.526 -0.563,2.32 C 1.622,-2.148 1.92,-0.719 1.622,0.433 1.445,1.117 -0.18,0.684 0,0" /></g><g
           transform="translate(372.6191,421.0488)"
           id="g444"><path
             id="path446"
             style="fill:#593c31;fill-opacity:1;fill-rule:nonzero;stroke:none"
             d="m 0,0 c 0.647,-0.714 0.898,-1.684 1.576,-2.32 0.794,-0.743 1.654,-1.299 2.237,-2.242 0.316,-0.54 1.886,0.01 1.495,0.666 -0.486,0.803 -1.173,1.37 -1.896,1.961 C 2.589,-1.254 2.225,-0.124 1.499,0.67 1.06,1.146 -0.487,0.526 0,0" /></g><g
           transform="translate(372.0518,416.853)"
           id="g448"><path
             id="path450"
             style="fill:#593c31;fill-opacity:1;fill-rule:nonzero;stroke:none"
             d="M 0,0 C 0.851,-2.239 2.989,-4.174 3.301,-6.59 3.374,-7.181 5.006,-6.804 4.92,-6.157 4.61,-3.73 2.469,-1.791 1.621,0.436 1.391,1.044 -0.219,0.564 0,0" /></g><g
           transform="translate(371.7983,410.52)"
           id="g452"><path
             id="path454"
             style="fill:#593c31;fill-opacity:1;fill-rule:nonzero;stroke:none"
             d="M 0,0 C 0.794,-2.178 2.288,-3.934 3.365,-5.97 3.669,-6.556 5.23,-5.989 4.854,-5.279 3.827,-3.333 2.381,-1.655 1.617,0.436 1.368,1.124 -0.254,0.66 0,0" /></g><g
           transform="translate(372.8169,400.6196)"
           id="g456"><path
             id="path458"
             style="fill:#593c31;fill-opacity:1;fill-rule:nonzero;stroke:none"
             d="m 0,0 c 0.425,-1.169 1.325,-1.966 2.086,-2.922 0.87,-1.083 1.672,-2.209 2.541,-3.288 0.445,-0.56 1.992,0.065 1.49,0.702 C 5.352,-4.546 4.601,-3.576 3.863,-2.593 3.122,-1.608 2.047,-0.739 1.611,0.437 1.357,1.157 -0.258,0.696 0,0" /></g><g
           transform="translate(372.8169,392.7627)"
           id="g460"><path
             id="path462"
             style="fill:#593c31;fill-opacity:1;fill-rule:nonzero;stroke:none"
             d="M 0,0 C 0.734,-1.887 1.641,-3.754 2.536,-5.581 2.881,-6.292 4.481,-5.813 4.155,-5.148 3.262,-3.328 2.354,-1.452 1.611,0.437 1.328,1.167 -0.281,0.708 0,0" /></g><g
           transform="translate(370.2666,385.0713)"
           id="g464"><path
             id="path466"
             style="fill:#593c31;fill-opacity:1;fill-rule:nonzero;stroke:none"
             d="m 0,0 c -0.053,-0.874 -0.288,-1.695 -0.51,-2.544 -0.255,-0.949 0,-2.307 0,-3.294 0,-0.891 1.649,-0.677 1.649,0.111 v 2.763 c 0,1.038 0.449,2.021 0.511,3.065 C 1.705,0.987 0.046,0.784 0,0" /></g><g
           transform="translate(365.7163,383.2271)"
           id="g468"><path
             id="path470"
             style="fill:#593c31;fill-opacity:1;fill-rule:nonzero;stroke:none"
             d="m 0,0 c -0.061,-0.987 -0.361,-1.915 -0.636,-2.858 -0.155,-0.524 -0.385,-0.968 -0.636,-1.46 -0.243,-0.481 -0.182,-1.248 -0.588,-1.571 -0.7,-0.553 0.93,-0.43 1.269,-0.164 0.779,0.632 0.755,1.612 1.193,2.485 0.565,1.126 0.935,2.544 1.015,3.812 C 1.648,0.799 0.032,0.449 0,0" /></g><g
           transform="translate(363.1836,387.5078)"
           id="g472"><path
             id="path474"
             style="fill:#593c31;fill-opacity:1;fill-rule:nonzero;stroke:none"
             d="m 0,0 c -0.441,-0.577 -0.994,-1.026 -1.444,-1.6 -0.649,-0.837 -1.192,-1.709 -2.039,-2.374 -0.35,-0.279 1.166,-0.12 1.47,0.119 0.622,0.487 1.085,1.033 1.534,1.658 0.639,0.888 1.422,1.62 2.082,2.483 C 1.709,0.432 0.291,0.391 0,0" /></g><g
           transform="translate(366.1489,392.0654)"
           id="g476"><path
             id="path478"
             style="fill:#593c31;fill-opacity:1;fill-rule:nonzero;stroke:none"
             d="m 0,0 c -1.819,-0.378 -3.243,-1.921 -5.031,-2.341 -0.97,-0.231 -0.8,-0.815 0.157,-0.595 0.786,0.188 1.488,0.61 2.245,0.9 0.377,0.138 0.709,0.273 1.071,0.449 0.414,0.202 0.839,0.803 1.289,0.886 C 0.398,-0.561 1.131,0.218 0,0" /></g><g
           transform="translate(365.7075,398.9722)"
           id="g480"><path
             id="path482"
             style="fill:#593c31;fill-opacity:1;fill-rule:nonzero;stroke:none"
             d="m 0,0 c -0.355,-1.776 -2.655,-3.412 -3.897,-4.568 -0.71,-0.656 0.894,-0.699 1.311,-0.308 1.44,1.333 3.803,3.022 4.215,5.063 C 1.764,0.845 0.125,0.588 0,0" /></g><g
           transform="translate(365.2593,403.6333)"
           id="g484"><path
             id="path486"
             style="fill:#593c31;fill-opacity:1;fill-rule:nonzero;stroke:none"
             d="m 0,0 c -0.326,-0.495 -0.63,-0.995 -0.985,-1.465 -0.418,-0.551 -0.631,-1.303 -1.188,-1.715 -0.729,-0.537 0.909,-0.519 1.298,-0.23 1.018,0.753 1.699,2.344 2.38,3.402 C 1.9,0.606 0.268,0.422 0,0" /></g><g
           transform="translate(365.2324,408.8145)"
           id="g488"><path
             id="path490"
             style="fill:#593c31;fill-opacity:1;fill-rule:nonzero;stroke:none"
             d="m 0,0 c -0.612,-0.385 -0.863,-1.053 -1.335,-1.574 -0.662,-0.738 -1.404,-1.416 -2.104,-2.116 -0.724,-0.708 0.847,-0.956 1.346,-0.455 0.597,0.583 1.182,1.184 1.778,1.769 0.414,0.415 0.903,1.358 1.384,1.652 C 2.002,-0.139 0.65,0.403 0,0" /></g><g
           transform="translate(364.8418,413.2266)"
           id="g492"><path
             id="path494"
             style="fill:#593c31;fill-opacity:1;fill-rule:nonzero;stroke:none"
             d="m 0,0 c -0.753,-0.794 -1.383,-1.66 -2.034,-2.538 -0.603,-0.816 0.938,-0.962 1.343,-0.42 0.651,0.876 1.279,1.748 2.028,2.533 C 2.032,0.308 0.458,0.486 0,0" /></g><g
           transform="translate(365.2168,418.2397)"
           id="g496"><path
             id="path498"
             style="fill:#593c31;fill-opacity:1;fill-rule:nonzero;stroke:none"
             d="m 0,0 c -1.139,-1.047 -2.152,-2.02 -3.18,-3.183 -0.692,-0.782 0.855,-1.128 1.377,-0.537 0.932,1.056 1.861,1.956 2.899,2.91 C 1.905,-0.066 0.639,0.585 0,0" /></g><g
           transform="translate(365.1577,421.7324)"
           id="g500"><path
             id="path502"
             style="fill:#593c31;fill-opacity:1;fill-rule:nonzero;stroke:none"
             d="m 0,0 c -1.069,-0.235 -1.713,-1.108 -2.825,-1.216 -0.743,-0.083 -1.379,-0.914 -0.248,-0.796 0.628,0.067 1.198,0.23 1.79,0.441 0.519,0.178 0.967,0.756 1.473,0.868 C 1.17,-0.486 0.965,0.217 0,0" /></g><g
           transform="translate(365.5991,425.4468)"
           id="g504"><path
             id="path506"
             style="fill:#593c31;fill-opacity:1;fill-rule:nonzero;stroke:none"
             d="m 0,0 c -1.343,-0.107 -2.478,-0.716 -3.762,-1.058 -0.99,-0.259 -0.737,-1.211 0.258,-0.951 1.116,0.288 2.159,0.882 3.325,0.974 C 0.673,-0.964 1.123,0.088 0,0" /></g><g
           transform="translate(396.1758,451.6646)"
           id="g508"><path
             id="path510"
             style="fill:#593c31;fill-opacity:1;fill-rule:nonzero;stroke:none"
             d="M 0,0 C -0.439,0.811 -0.578,1.729 -1.018,2.539 -1.549,3.536 -2.26,4.407 -2.723,5.444 -3.055,6.173 -4.66,5.698 -4.346,5.008 -3.899,4.019 -3.305,3.151 -2.732,2.234 -2.152,1.315 -1.999,0.225 -1.48,-0.727 -1.125,-1.376 0.413,-0.761 0,0" /></g><g
           transform="translate(391.1133,453.6587)"
           id="g512"><path
             id="path514"
             style="fill:#593c31;fill-opacity:1;fill-rule:nonzero;stroke:none"
             d="M 0,0 C -1.04,1.283 -2.76,2.504 -4.166,3.364 -4.622,3.647 -6.122,2.987 -5.458,2.576 -4.136,1.769 -2.482,0.569 -1.506,-0.642 -1.157,-1.075 0.408,-0.507 0,0" /></g><g
           transform="translate(384.4971,454.6104)"
           id="g516"><path
             id="path518"
             style="fill:#593c31;fill-opacity:1;fill-rule:nonzero;stroke:none"
             d="M 0,0 C -1.032,0.277 -1.981,0.689 -2.885,1.264 -3.679,1.766 -4.712,1.905 -5.575,2.282 -6.194,2.551 -7.463,1.664 -6.533,1.261 -5.402,0.767 -4.28,0.368 -3.175,-0.177 -2.458,-0.538 -1.732,-0.81 -0.954,-1.026 -0.318,-1.197 0.967,-0.265 0,0" /></g><g
           transform="translate(378.9365,454.0405)"
           id="g520"><path
             id="path522"
             style="fill:#593c31;fill-opacity:1;fill-rule:nonzero;stroke:none"
             d="m 0,0 c -1.069,0.139 -1.898,0.871 -2.893,1.219 -0.896,0.312 -2.003,0.312 -2.943,0.555 -0.538,0.135 -1.92,-0.673 -0.99,-0.908 0.981,-0.248 2.133,-0.279 3.082,-0.599 0.975,-0.339 1.7,-1.042 2.763,-1.179 C -0.458,-0.97 0.927,-0.12 0,0" /></g><g
           transform="translate(375.4355,452.1333)"
           id="g524"><path
             id="path526"
             style="fill:#593c31;fill-opacity:1;fill-rule:nonzero;stroke:none"
             d="m 0,0 c -0.781,0.112 -1.526,0.708 -2.291,0.755 -0.653,0.04 -1.292,0.153 -1.944,0.233 -1.516,0.182 -3.122,0.238 -4.648,0.278 -0.753,0.014 -1.676,-1.112 -0.569,-1.139 1.547,-0.042 3.089,-0.211 4.639,-0.278 1.5,-0.075 2.79,-0.785 4.239,-0.996 C 0.2,-1.256 1.089,-0.155 0,0" /></g><g
           transform="translate(369.6235,450.0137)"
           id="g528"><path
             id="path530"
             style="fill:#593c31;fill-opacity:1;fill-rule:nonzero;stroke:none"
             d="m 0,0 c -1.967,0 -3.875,0.146 -5.834,0.253 -0.641,0.035 -1.718,-0.897 -0.62,-0.961 1.956,-0.11 3.867,-0.257 5.839,-0.257 C 0.016,-0.965 1.1,0 0,0" /></g><g
           transform="translate(365.8096,446.2534)"
           id="g532"><path
             id="path534"
             style="fill:#593c31;fill-opacity:1;fill-rule:nonzero;stroke:none"
             d="m 0,0 h -4.564 c -0.692,0 -1.699,-1.047 -0.599,-1.047 h 4.564 C 0.091,-1.047 1.098,0 0,0" /></g><g
           transform="translate(361.5576,442.3789)"
           id="g536"><path
             id="path538"
             style="fill:#593c31;fill-opacity:1;fill-rule:nonzero;stroke:none"
             d="m 0,0 c -1.699,-0.158 -3.377,-0.396 -5.037,-0.799 -0.983,-0.246 -0.758,-1.067 0.217,-0.824 1.508,0.375 3.06,0.572 4.604,0.714 C 0.581,-0.836 1.125,0.102 0,0" /></g><g
           transform="translate(358.9585,436.8491)"
           id="g540"><path
             id="path542"
             style="fill:#593c31;fill-opacity:1;fill-rule:nonzero;stroke:none"
             d="m 0,0 c -1.812,-0.435 -4.223,-0.903 -5.484,-2.385 -0.412,-0.474 1.2,-0.305 1.491,0.041 0.751,0.88 2.976,1.383 4.17,1.677 C 1.151,-0.433 0.962,0.236 0,0" /></g><g
           transform="translate(355.0991,430.0781)"
           id="g544"><path
             id="path546"
             style="fill:#593c31;fill-opacity:1;fill-rule:nonzero;stroke:none"
             d="m 0,0 c -0.55,-1.037 -1.227,-1.975 -1.926,-2.913 -0.607,-0.818 0.931,-0.964 1.341,-0.417 0.764,1.029 1.518,2.06 2.128,3.188 C 1.961,0.636 0.31,0.575 0,0" /></g><g
           transform="translate(360.3804,456.7954)"
           id="g548"><path
             id="path550"
             style="fill:#593c31;fill-opacity:1;fill-rule:nonzero;stroke:none"
             d="m 0,0 c -0.083,-1.694 -0.495,-4.002 -1.621,-5.32 -0.64,-0.756 0.926,-0.806 1.32,-0.342 1.319,1.536 1.843,3.853 1.931,5.844 C 1.664,0.914 0.027,0.612 0,0" /></g><g
           transform="translate(367.8057,462.1968)"
           id="g552"><path
             id="path554"
             style="fill:#593c31;fill-opacity:1;fill-rule:nonzero;stroke:none"
             d="m 0,0 c -1.096,-1.357 -1.4,-3.306 -2.284,-4.818 -0.353,-0.591 1.261,-0.361 1.499,0.037 0.472,0.817 0.783,1.716 1.264,2.536 0.435,0.737 0.449,1.571 1.02,2.28 C 1.9,0.537 0.287,0.366 0,0" /></g><g
           transform="translate(374.3926,463.4878)"
           id="g556"><path
             id="path558"
             style="fill:#593c31;fill-opacity:1;fill-rule:nonzero;stroke:none"
             d="m 0,0 c -0.657,-0.757 -1.047,-1.66 -1.451,-2.568 -0.502,-1.149 -1.269,-2.096 -1.397,-3.37 -0.059,-0.642 1.569,-0.324 1.621,0.206 0.101,0.983 0.601,1.667 1.014,2.533 0.521,1.093 0.92,2.25 1.723,3.177 C 1.964,0.504 0.334,0.384 0,0" /></g><g
           transform="translate(382.6904,463.1953)"
           id="g560"><path
             id="path562"
             style="fill:#593c31;fill-opacity:1;fill-rule:nonzero;stroke:none"
             d="m 0,0 c -1.958,-0.457 -2.933,-2.717 -4.474,-3.848 -0.312,-0.227 1.162,-0.064 1.465,0.153 0.668,0.489 1.223,1.023 1.763,1.649 0.183,0.205 1.144,1.552 1.362,1.606 C 1.074,-0.229 0.943,0.215 0,0" /></g><g
           transform="translate(414.6367,392.9824)"
           id="g564"><path
             id="path566"
             style="fill:#593c31;fill-opacity:1;fill-rule:nonzero;stroke:none"
             d="M 0,0 -0.892,21.807 -15.402,22.005 -16.137,0 Z" /></g><g
           transform="translate(414.7637,389.6865)"
           id="g568"><path
             id="path570"
             style="fill:#593c31;fill-opacity:1;fill-rule:nonzero;stroke:none"
             d="m 0,0 h -16.37 l -0.765,-23.083 H 0.934 Z" /></g><g
           transform="translate(397.5195,363.3081)"
           id="g572"><path
             id="path574"
             style="fill:#593c31;fill-opacity:1;fill-rule:nonzero;stroke:none"
             d="M 0,0 -0.803,-24.324 H 19.299 L 18.313,0 Z" /></g><g
           transform="translate(624.0068,301.1016)"
           id="g576"><path
             id="path578"
             style="fill:none;stroke:#593c31;stroke-width:1;stroke-linecap:butt;stroke-linejoin:miter;stroke-miterlimit:10;stroke-dasharray:none;stroke-opacity:1"
             d="m 0,0 c 0,-119.885 -97.188,-217.076 -217.076,-217.076 -119.887,0 -217.07,97.191 -217.07,217.076 0,119.888 97.183,217.074 217.07,217.074 C -97.188,217.074 0,119.888 0,0 Z" /></g><path
           id="path580"
           style="fill:#593c31;fill-opacity:1;fill-rule:nonzero;stroke:none"
           d="m 297.576,298.807 h -9.412 v 3.908 h 9.412 z" /><path
           id="path582"
           style="fill:#593c31;fill-opacity:1;fill-rule:nonzero;stroke:none"
           d="m 302.286,302.715 h -9.417 v 3.909 h 9.417 z" /><path
           id="path584"
           style="fill:#593c31;fill-opacity:1;fill-rule:nonzero;stroke:none"
           d="m 306.996,306.624 h -9.42 v 3.915 h 9.42 z" /><path
           id="path586"
           style="fill:#593c31;fill-opacity:1;fill-rule:nonzero;stroke:none"
           d="m 311.704,310.539 h -9.418 v 3.905 h 9.418 z" /><path
           id="path588"
           style="fill:#593c31;fill-opacity:1;fill-rule:nonzero;stroke:none"
           d="m 306.996,314.444 h -9.42 v 3.91 h 9.42 z" /><path
           id="path590"
           style="fill:#593c31;fill-opacity:1;fill-rule:nonzero;stroke:none"
           d="m 302.286,318.354 h -9.417 v 3.909 h 9.417 z" /><path
           id="path592"
           style="fill:#593c31;fill-opacity:1;fill-rule:nonzero;stroke:none"
           d="m 297.576,322.264 h -9.412 v 3.91 h 9.412 z" /><path
           id="path594"
           style="fill:#593c31;fill-opacity:1;fill-rule:nonzero;stroke:none"
           d="m 571.927,298.823 h -9.413 v 3.909 h 9.413 z" /><path
           id="path596"
           style="fill:#593c31;fill-opacity:1;fill-rule:nonzero;stroke:none"
           d="m 576.641,302.732 h -9.419 v 3.91 h 9.419 z" /><path
           id="path598"
           style="fill:#593c31;fill-opacity:1;fill-rule:nonzero;stroke:none"
           d="m 581.347,306.643 h -9.42 v 3.908 h 9.42 z" /><path
           id="path600"
           style="fill:#593c31;fill-opacity:1;fill-rule:nonzero;stroke:none"
           d="m 586.061,310.551 h -9.42 v 3.914 h 9.42 z" /><path
           id="path602"
           style="fill:#593c31;fill-opacity:1;fill-rule:nonzero;stroke:none"
           d="m 581.347,314.465 h -9.42 v 3.909 h 9.42 z" /><path
           id="path604"
           style="fill:#593c31;fill-opacity:1;fill-rule:nonzero;stroke:none"
           d="m 576.641,318.374 h -9.419 v 3.907 h 9.419 z" /><path
           id="path606"
           style="fill:#593c31;fill-opacity:1;fill-rule:nonzero;stroke:none"
           d="m 571.927,322.28 h -9.413 v 3.913 h 9.413 z" /><path
           id="path608"
           style="fill:#593c31;fill-opacity:1;fill-rule:nonzero;stroke:none"
           d="m 275.849,298.807 h -9.422 v 3.908 h 9.422 z" /><path
           id="path610"
           style="fill:#593c31;fill-opacity:1;fill-rule:nonzero;stroke:none"
           d="m 280.556,302.715 h -9.415 v 3.909 h 9.415 z" /><path
           id="path612"
           style="fill:#593c31;fill-opacity:1;fill-rule:nonzero;stroke:none"
           d="m 285.264,306.624 h -9.415 v 3.915 h 9.415 z" /><path
           id="path614"
           style="fill:#593c31;fill-opacity:1;fill-rule:nonzero;stroke:none"
           d="m 289.97,310.539 h -9.414 v 3.905 h 9.414 z" /><path
           id="path616"
           style="fill:#593c31;fill-opacity:1;fill-rule:nonzero;stroke:none"
           d="m 285.264,314.444 h -9.415 v 3.91 h 9.415 z" /><path
           id="path618"
           style="fill:#593c31;fill-opacity:1;fill-rule:nonzero;stroke:none"
           d="m 280.556,318.354 h -9.415 v 3.909 h 9.415 z" /><path
           id="path620"
           style="fill:#593c31;fill-opacity:1;fill-rule:nonzero;stroke:none"
           d="m 275.849,322.264 h -9.422 v 3.91 h 9.422 z" /><path
           id="path622"
           style="fill:#593c31;fill-opacity:1;fill-rule:nonzero;stroke:none"
           d="m 368.514,298.807 h -9.417 v 3.908 h 9.417 z" /><path
           id="path624"
           style="fill:#593c31;fill-opacity:1;fill-rule:nonzero;stroke:none"
           d="m 373.229,302.715 h -9.423 v 3.909 h 9.423 z" /><path
           id="path626"
           style="fill:#593c31;fill-opacity:1;fill-rule:nonzero;stroke:none"
           d="m 377.934,306.624 h -9.419 v 3.915 h 9.419 z" /><path
           id="path628"
           style="fill:#593c31;fill-opacity:1;fill-rule:nonzero;stroke:none"
           d="m 382.643,310.539 h -9.414 v 3.905 h 9.414 z" /><path
           id="path630"
           style="fill:#593c31;fill-opacity:1;fill-rule:nonzero;stroke:none"
           d="m 377.934,314.444 h -9.419 v 3.91 h 9.419 z" /><path
           id="path632"
           style="fill:#593c31;fill-opacity:1;fill-rule:nonzero;stroke:none"
           d="m 373.229,318.354 h -9.423 v 3.909 h 9.423 z" /><path
           id="path634"
           style="fill:#593c31;fill-opacity:1;fill-rule:nonzero;stroke:none"
           d="m 368.514,322.264 h -9.417 v 3.91 h 9.417 z" /><path
           id="path636"
           style="fill:#593c31;fill-opacity:1;fill-rule:nonzero;stroke:none"
           d="m 234.098,326.177 h 9.415 v -3.908 h -9.415 z" /><path
           id="path638"
           style="fill:#593c31;fill-opacity:1;fill-rule:nonzero;stroke:none"
           d="m 229.383,322.27 h 9.42 v -3.912 h -9.42 z" /><path
           id="path640"
           style="fill:#593c31;fill-opacity:1;fill-rule:nonzero;stroke:none"
           d="m 224.672,318.358 h 9.425 v -3.91 h -9.425 z" /><path
           id="path642"
           style="fill:#593c31;fill-opacity:1;fill-rule:nonzero;stroke:none"
           d="m 219.967,314.448 h 9.417 v -3.909 h -9.417 z" /><path
           id="path644"
           style="fill:#593c31;fill-opacity:1;fill-rule:nonzero;stroke:none"
           d="m 224.672,310.539 h 9.425 v -3.915 h -9.425 z" /><path
           id="path646"
           style="fill:#593c31;fill-opacity:1;fill-rule:nonzero;stroke:none"
           d="m 229.383,306.624 h 9.42 v -3.909 h -9.42 z" /><path
           id="path648"
           style="fill:#593c31;fill-opacity:1;fill-rule:nonzero;stroke:none"
           d="m 234.098,302.715 h 9.415 v -3.908 h -9.415 z" /><path
           id="path650"
           style="fill:#593c31;fill-opacity:1;fill-rule:nonzero;stroke:none"
           d="m 325.806,326.174 h 9.403 v -3.901 h -9.403 z" /><path
           id="path652"
           style="fill:#593c31;fill-opacity:1;fill-rule:nonzero;stroke:none"
           d="m 321.105,322.272 h 9.404 v -3.908 h -9.404 z" /><path
           id="path654"
           style="fill:#593c31;fill-opacity:1;fill-rule:nonzero;stroke:none"
           d="m 316.404,318.365 h 9.402 v -3.9 h -9.402 z" /><path
           id="path656"
           style="fill:#593c31;fill-opacity:1;fill-rule:nonzero;stroke:none"
           d="m 311.704,314.465 h 9.401 v -3.902 h -9.401 z" /><path
           id="path658"
           style="fill:#593c31;fill-opacity:1;fill-rule:nonzero;stroke:none"
           d="m 316.404,310.563 h 9.402 v -3.911 h -9.402 z" /><path
           id="path660"
           style="fill:#593c31;fill-opacity:1;fill-rule:nonzero;stroke:none"
           d="m 321.105,306.651 h 9.404 v -3.905 h -9.404 z" /><path
           id="path662"
           style="fill:#593c31;fill-opacity:1;fill-rule:nonzero;stroke:none"
           d="m 325.806,302.746 h 9.403 v -3.897 h -9.403 z" /><path
           id="path664"
           style="fill:#593c31;fill-opacity:1;fill-rule:nonzero;stroke:none"
           d="m 254.819,326.174 h 9.412 v -3.907 h -9.412 z" /><path
           id="path666"
           style="fill:#593c31;fill-opacity:1;fill-rule:nonzero;stroke:none"
           d="m 250.115,322.267 h 9.409 v -3.907 h -9.409 z" /><path
           id="path668"
           style="fill:#593c31;fill-opacity:1;fill-rule:nonzero;stroke:none"
           d="m 245.407,318.36 h 9.412 v -3.907 h -9.412 z" /><path
           id="path670"
           style="fill:#593c31;fill-opacity:1;fill-rule:nonzero;stroke:none"
           d="m 240.698,314.453 h 9.417 v -3.908 h -9.417 z" /><path
           id="path672"
           style="fill:#593c31;fill-opacity:1;fill-rule:nonzero;stroke:none"
           d="m 245.407,310.545 h 9.412 v -3.908 h -9.412 z" /><path
           id="path674"
           style="fill:#593c31;fill-opacity:1;fill-rule:nonzero;stroke:none"
           d="m 250.115,306.637 h 9.409 v -3.91 h -9.409 z" /><path
           id="path676"
           style="fill:#593c31;fill-opacity:1;fill-rule:nonzero;stroke:none"
           d="m 254.819,302.727 h 9.412 v -3.909 h -9.412 z" /><path
           id="path678"
           style="fill:#593c31;fill-opacity:1;fill-rule:nonzero;stroke:none"
           d="m 346.5,326.174 h 9.415 v -3.91 H 346.5 Z" /><path
           id="path680"
           style="fill:#593c31;fill-opacity:1;fill-rule:nonzero;stroke:none"
           d="m 341.792,322.264 h 9.414 v -3.909 h -9.414 z" /><path
           id="path682"
           style="fill:#593c31;fill-opacity:1;fill-rule:nonzero;stroke:none"
           d="m 337.085,318.354 h 9.414 v -3.91 h -9.414 z" /><path
           id="path684"
           style="fill:#593c31;fill-opacity:1;fill-rule:nonzero;stroke:none"
           d="m 332.371,314.444 h 9.42 v -3.905 h -9.42 z" /><path
           id="path686"
           style="fill:#593c31;fill-opacity:1;fill-rule:nonzero;stroke:none"
           d="m 337.085,310.539 h 9.414 v -3.915 h -9.414 z" /><path
           id="path688"
           style="fill:#593c31;fill-opacity:1;fill-rule:nonzero;stroke:none"
           d="m 341.792,306.624 h 9.414 v -3.909 h -9.414 z" /><path
           id="path690"
           style="fill:#593c31;fill-opacity:1;fill-rule:nonzero;stroke:none"
           d="m 346.5,302.715 h 9.415 v -3.908 H 346.5 Z" /><path
           id="path692"
           style="fill:#593c31;fill-opacity:1;fill-rule:nonzero;stroke:none"
           d="m 388.61,298.807 h -9.417 v 3.908 h 9.417 z" /><path
           id="path694"
           style="fill:#593c31;fill-opacity:1;fill-rule:nonzero;stroke:none"
           d="m 393.318,302.715 h -9.419 v 3.909 h 9.419 z" /><path
           id="path696"
           style="fill:#593c31;fill-opacity:1;fill-rule:nonzero;stroke:none"
           d="m 398.024,306.624 h -9.414 v 3.915 h 9.414 z" /><path
           id="path698"
           style="fill:#593c31;fill-opacity:1;fill-rule:nonzero;stroke:none"
           d="m 402.729,310.539 h -9.411 v 3.905 h 9.411 z" /><path
           id="path700"
           style="fill:#593c31;fill-opacity:1;fill-rule:nonzero;stroke:none"
           d="m 398.024,314.444 h -9.414 v 3.91 h 9.414 z" /><path
           id="path702"
           style="fill:#593c31;fill-opacity:1;fill-rule:nonzero;stroke:none"
           d="m 393.318,318.354 h -9.419 v 3.909 h 9.419 z" /><path
           id="path704"
           style="fill:#593c31;fill-opacity:1;fill-rule:nonzero;stroke:none"
           d="m 388.61,322.264 h -9.417 v 3.91 h 9.417 z" /><path
           id="path706"
           style="fill:#593c31;fill-opacity:1;fill-rule:nonzero;stroke:none"
           d="m 480.902,298.807 h -9.419 v 3.908 h 9.419 z" /><path
           id="path708"
           style="fill:#593c31;fill-opacity:1;fill-rule:nonzero;stroke:none"
           d="m 485.604,302.715 h -9.413 v 3.909 h 9.413 z" /><path
           id="path710"
           style="fill:#593c31;fill-opacity:1;fill-rule:nonzero;stroke:none"
           d="m 490.32,306.624 h -9.418 v 3.915 h 9.418 z" /><path
           id="path712"
           style="fill:#593c31;fill-opacity:1;fill-rule:nonzero;stroke:none"
           d="m 495.026,310.539 h -9.422 v 3.905 h 9.422 z" /><path
           id="path714"
           style="fill:#593c31;fill-opacity:1;fill-rule:nonzero;stroke:none"
           d="m 490.32,314.444 h -9.418 v 3.91 h 9.418 z" /><path
           id="path716"
           style="fill:#593c31;fill-opacity:1;fill-rule:nonzero;stroke:none"
           d="m 485.604,318.354 h -9.413 v 3.909 h 9.413 z" /><path
           id="path718"
           style="fill:#593c31;fill-opacity:1;fill-rule:nonzero;stroke:none"
           d="m 480.902,322.264 h -9.419 v 3.91 h 9.419 z" /><path
           id="path720"
           style="fill:#593c31;fill-opacity:1;fill-rule:nonzero;stroke:none"
           d="m 459.172,298.807 h -9.411 v 3.908 h 9.411 z" /><path
           id="path722"
           style="fill:#593c31;fill-opacity:1;fill-rule:nonzero;stroke:none"
           d="m 463.88,302.715 h -9.416 v 3.909 h 9.416 z" /><path
           id="path724"
           style="fill:#593c31;fill-opacity:1;fill-rule:nonzero;stroke:none"
           d="m 468.589,306.624 h -9.417 v 3.915 h 9.417 z" /><path
           id="path726"
           style="fill:#593c31;fill-opacity:1;fill-rule:nonzero;stroke:none"
           d="m 473.301,310.539 h -9.421 v 3.905 h 9.421 z" /><path
           id="path728"
           style="fill:#593c31;fill-opacity:1;fill-rule:nonzero;stroke:none"
           d="m 468.589,314.444 h -9.417 v 3.91 h 9.417 z" /><path
           id="path730"
           style="fill:#593c31;fill-opacity:1;fill-rule:nonzero;stroke:none"
           d="m 463.88,318.354 h -9.416 v 3.909 h 9.416 z" /><path
           id="path732"
           style="fill:#593c31;fill-opacity:1;fill-rule:nonzero;stroke:none"
           d="m 459.172,322.264 h -9.411 v 3.91 h 9.411 z" /><path
           id="path734"
           style="fill:#593c31;fill-opacity:1;fill-rule:nonzero;stroke:none"
           d="m 551.842,298.807 h -9.42 v 3.908 h 9.42 z" /><path
           id="path736"
           style="fill:#593c31;fill-opacity:1;fill-rule:nonzero;stroke:none"
           d="m 556.549,302.715 h -9.416 v 3.909 h 9.416 z" /><path
           id="path738"
           style="fill:#593c31;fill-opacity:1;fill-rule:nonzero;stroke:none"
           d="m 561.256,306.624 h -9.414 v 3.915 h 9.414 z" /><path
           id="path740"
           style="fill:#593c31;fill-opacity:1;fill-rule:nonzero;stroke:none"
           d="m 565.962,310.539 h -9.413 v 3.905 h 9.413 z" /><path
           id="path742"
           style="fill:#593c31;fill-opacity:1;fill-rule:nonzero;stroke:none"
           d="m 561.256,314.444 h -9.414 v 3.91 h 9.414 z" /><path
           id="path744"
           style="fill:#593c31;fill-opacity:1;fill-rule:nonzero;stroke:none"
           d="m 556.549,318.354 h -9.416 v 3.909 h 9.416 z" /><path
           id="path746"
           style="fill:#593c31;fill-opacity:1;fill-rule:nonzero;stroke:none"
           d="m 551.842,322.264 h -9.42 v 3.91 h 9.42 z" /><path
           id="path748"
           style="fill:#593c31;fill-opacity:1;fill-rule:nonzero;stroke:none"
           d="m 416.792,326.174 h 9.417 v -3.91 h -9.417 z" /><path
           id="path750"
           style="fill:#593c31;fill-opacity:1;fill-rule:nonzero;stroke:none"
           d="m 412.081,322.264 h 9.411 v -3.909 h -9.411 z" /><path
           id="path752"
           style="fill:#593c31;fill-opacity:1;fill-rule:nonzero;stroke:none"
           d="m 407.375,318.354 h 9.417 v -3.91 h -9.417 z" /><path
           id="path754"
           style="fill:#593c31;fill-opacity:1;fill-rule:nonzero;stroke:none"
           d="m 402.661,314.444 h 9.42 v -3.905 h -9.42 z" /><path
           id="path756"
           style="fill:#593c31;fill-opacity:1;fill-rule:nonzero;stroke:none"
           d="m 407.375,310.539 h 9.417 v -3.915 h -9.417 z" /><path
           id="path758"
           style="fill:#593c31;fill-opacity:1;fill-rule:nonzero;stroke:none"
           d="m 412.081,306.624 h 9.411 v -3.909 h -9.411 z" /><path
           id="path760"
           style="fill:#593c31;fill-opacity:1;fill-rule:nonzero;stroke:none"
           d="m 416.792,302.715 h 9.417 v -3.908 h -9.417 z" /><path
           id="path762"
           style="fill:#593c31;fill-opacity:1;fill-rule:nonzero;stroke:none"
           d="m 509.154,326.174 h 9.416 v -3.91 h -9.416 z" /><path
           id="path764"
           style="fill:#593c31;fill-opacity:1;fill-rule:nonzero;stroke:none"
           d="m 504.446,322.264 h 9.417 v -3.909 h -9.417 z" /><path
           id="path766"
           style="fill:#593c31;fill-opacity:1;fill-rule:nonzero;stroke:none"
           d="m 499.732,318.354 h 9.422 v -3.91 h -9.422 z" /><path
           id="path768"
           style="fill:#593c31;fill-opacity:1;fill-rule:nonzero;stroke:none"
           d="m 495.026,314.444 h 9.42 v -3.905 h -9.42 z" /><path
           id="path770"
           style="fill:#593c31;fill-opacity:1;fill-rule:nonzero;stroke:none"
           d="m 499.732,310.539 h 9.422 v -3.915 h -9.422 z" /><path
           id="path772"
           style="fill:#593c31;fill-opacity:1;fill-rule:nonzero;stroke:none"
           d="m 504.446,306.624 h 9.417 v -3.909 h -9.417 z" /><path
           id="path774"
           style="fill:#593c31;fill-opacity:1;fill-rule:nonzero;stroke:none"
           d="m 509.154,302.715 h 9.416 v -3.908 h -9.416 z" /><path
           id="path776"
           style="fill:#593c31;fill-opacity:1;fill-rule:nonzero;stroke:none"
           d="m 438.146,326.174 h 9.425 v -3.91 h -9.425 z" /><path
           id="path778"
           style="fill:#593c31;fill-opacity:1;fill-rule:nonzero;stroke:none"
           d="m 433.441,322.264 h 9.419 v -3.909 h -9.419 z" /><path
           id="path780"
           style="fill:#593c31;fill-opacity:1;fill-rule:nonzero;stroke:none"
           d="m 428.734,318.354 h 9.412 v -3.91 h -9.412 z" /><path
           id="path782"
           style="fill:#593c31;fill-opacity:1;fill-rule:nonzero;stroke:none"
           d="m 424.027,314.444 h 9.414 v -3.905 h -9.414 z" /><path
           id="path784"
           style="fill:#593c31;fill-opacity:1;fill-rule:nonzero;stroke:none"
           d="m 428.734,310.539 h 9.412 v -3.915 h -9.412 z" /><path
           id="path786"
           style="fill:#593c31;fill-opacity:1;fill-rule:nonzero;stroke:none"
           d="m 433.441,306.624 h 9.419 v -3.909 h -9.419 z" /><path
           id="path788"
           style="fill:#593c31;fill-opacity:1;fill-rule:nonzero;stroke:none"
           d="m 438.146,302.715 h 9.425 v -3.908 h -9.425 z" /><path
           id="path790"
           style="fill:#593c31;fill-opacity:1;fill-rule:nonzero;stroke:none"
           d="m 529.811,326.174 h 9.399 v -3.904 h -9.399 z" /><path
           id="path792"
           style="fill:#593c31;fill-opacity:1;fill-rule:nonzero;stroke:none"
           d="m 525.105,322.27 h 9.401 v -3.905 h -9.401 z" /><path
           id="path794"
           style="fill:#593c31;fill-opacity:1;fill-rule:nonzero;stroke:none"
           d="m 520.4,318.365 h 9.41 v -3.906 h -9.41 z" /><path
           id="path796"
           style="fill:#593c31;fill-opacity:1;fill-rule:nonzero;stroke:none"
           d="m 515.697,314.459 h 9.408 v -3.904 h -9.408 z" /><path
           id="path798"
           style="fill:#593c31;fill-opacity:1;fill-rule:nonzero;stroke:none"
           d="m 520.4,310.555 h 9.41 v -3.903 h -9.41 z" /><path
           id="path800"
           style="fill:#593c31;fill-opacity:1;fill-rule:nonzero;stroke:none"
           d="m 525.105,306.651 h 9.401 v -3.908 h -9.401 z" /><path
           id="path802"
           style="fill:#593c31;fill-opacity:1;fill-rule:nonzero;stroke:none"
           d="m 529.811,302.743 h 9.399 v -3.9 h -9.399 z" /><path
           id="path804"
           style="fill:#593c31;fill-opacity:1;fill-rule:nonzero;stroke:none"
           d="M 586.964,326.247 H 220.079 v 1.274 h 366.885 z" /><g
           transform="translate(587.25,297.9395)"
           id="g806"><path
             id="path808"
             style="fill:#593c31;fill-opacity:1;fill-rule:nonzero;stroke:none"
             d="M 0,0 H -366.877 V 1.275 L 0,1.278 Z" /></g></g></g></g></svg>