<?xml version="1.0" encoding="UTF-8" standalone="no"?>
<svg
   xmlns:dc="http://purl.org/dc/elements/1.1/"
   xmlns:cc="http://creativecommons.org/ns#"
   xmlns:rdf="http://www.w3.org/1999/02/22-rdf-syntax-ns#"
   xmlns:svg="http://www.w3.org/2000/svg"
   xmlns="http://www.w3.org/2000/svg"
   viewBox="0 0 1023.92 196.32001"
   height="196.32001"
   width="1023.92"
   xml:space="preserve"
   id="svg2"
   version="1.1"><metadata
     id="metadata8"><rdf:RDF><cc:Work
         rdf:about=""><dc:format>image/svg+xml</dc:format><dc:type
           rdf:resource="http://purl.org/dc/dcmitype/StillImage" /></cc:Work></rdf:RDF></metadata><defs
     id="defs6"><clipPath
       id="clipPath118"
       clipPathUnits="userSpaceOnUse"><path
         id="path116"
         d="m 3032.57,1205.5 -0.08,-0.21 h -39.45 c -23.23,0 -42.26,-19 -42.26,-42.23 V 312.488 c 0,-23.226 19.03,-42.238 42.26,-42.238 h 476.03 l -0.02,0.16 h 0.02 c 236.47,0 359.4,109.559 359.4,259.149 v 2.664 c 0,128.293 -77.56,192.394 -197.74,227.121 100.17,34.715 166.96,102.851 166.96,213.679 v 2.696 c 0,64.141 -24.03,112.231 -57.45,145.621 -54.72,54.77 -136.23,84.16 -265.83,84.16 z m 222.56,-236.773 h 134.88 c 66.79,0 100.16,-22.715 100.16,-64.141 v -2.645 c 0,-41.398 -32.04,-64.152 -98.83,-64.152 h -136.21 z m 0,-323.211 h 157.59 c 68.11,0 101.55,-28.047 101.55,-68.125 v -2.668 c 0,-40.039 -34.75,-68.153 -102.88,-68.153 h -156.26 z" /></clipPath><linearGradient
       id="linearGradient126"
       spreadMethod="pad"
       gradientTransform="matrix(718.906,887.775,887.775,-718.906,2961.92,283.4)"
       gradientUnits="userSpaceOnUse"
       y2="0"
       x2="1"
       y1="0"
       x1="0"><stop
         id="stop120"
         offset="0"
         style="stop-opacity:1;stop-color:#214922" /><stop
         id="stop122"
         offset="0.76591377"
         style="stop-opacity:1;stop-color:#37a83f" /><stop
         id="stop124"
         offset="1"
         style="stop-opacity:1;stop-color:#37a83f" /></linearGradient><clipPath
       id="clipPath136"
       clipPathUnits="userSpaceOnUse"><path
         id="path134"
         d="m 3925.63,1205.5 -0.03,-0.21 h -43.48 c -23.23,0 -42.21,-19 -42.21,-42.23 V 312.488 c 0,-23.226 18.98,-42.238 42.21,-42.238 h 228.09 c 23.24,0 42.26,19.012 42.26,42.238 v 182.715 c 0,23.192 14.37,42.176 32.04,42.176 h 33.4 c 0.74,0 11.79,-15.828 24.61,-35.242 l 129.81,-196.625 c 12.79,-19.383 42.26,-35.262 65.48,-35.262 h 272.17 c 1.48,0 2.92,0.078 4.22,0.16 h 38.01 l -217.69,317.926 c 113.54,54.805 184.33,149.648 184.33,285.898 v 2.637 c 0,96.152 -29.4,165.639 -85.5,221.809 -65.46,65.4 -170.99,106.82 -336.62,106.82 z m 226.9,-261.871 h 136.27 c 72.1,0 118.9,-29.383 118.9,-89.473 v -2.722 c 0,-57.414 -45.43,-90.813 -120.26,-90.813 h -134.91 z" /></clipPath><linearGradient
       id="linearGradient144"
       spreadMethod="pad"
       gradientTransform="matrix(643.235,918.634,918.634,-643.235,3942.64,218.61)"
       gradientUnits="userSpaceOnUse"
       y2="0"
       x2="1"
       y1="0"
       x1="0"><stop
         id="stop138"
         offset="0"
         style="stop-opacity:1;stop-color:#214922" /><stop
         id="stop140"
         offset="0.76591377"
         style="stop-opacity:1;stop-color:#37a83f" /><stop
         id="stop142"
         offset="1"
         style="stop-opacity:1;stop-color:#37a83f" /></linearGradient><clipPath
       id="clipPath154"
       clipPathUnits="userSpaceOnUse"><path
         id="path152"
         d="m 6601.36,1205.29 c -23.23,0 -42.27,-19 -42.27,-42.23 V 312.488 c 0,-23.226 19.04,-42.238 42.27,-42.238 h 228.06 c 23.25,0 42.29,19.012 42.29,42.238 v 850.572 c 0,23.23 -19.04,42.23 -42.29,42.23 z" /></clipPath><linearGradient
       id="linearGradient162"
       spreadMethod="pad"
       gradientTransform="matrix(297.853,916.697,916.697,-297.853,6566.48,279.41)"
       gradientUnits="userSpaceOnUse"
       y2="0"
       x2="1"
       y1="0"
       x1="0"><stop
         id="stop156"
         offset="0"
         style="stop-opacity:1;stop-color:#214922" /><stop
         id="stop158"
         offset="0.76591377"
         style="stop-opacity:1;stop-color:#37a83f" /><stop
         id="stop160"
         offset="1"
         style="stop-opacity:1;stop-color:#37a83f" /></linearGradient><clipPath
       id="clipPath172"
       clipPathUnits="userSpaceOnUse"><path
         id="path170"
         d="m 6966.79,1205.29 c -23.25,0 -42.2,-19 -42.2,-42.23 V 312.488 c 0,-23.226 18.95,-42.238 42.2,-42.238 h 667.58 c 23.27,0 42.19,19.012 42.19,42.238 v 182.715 c 0,23.192 -18.92,42.176 -42.19,42.176 h -355.01 c -23.23,0 -42.23,19.062 -42.23,42.258 v 583.423 c 0,23.23 -19.01,42.23 -42.26,42.23 z" /></clipPath><linearGradient
       id="linearGradient180"
       spreadMethod="pad"
       gradientTransform="matrix(502.14,773.227,773.227,-502.14,6984.33,250.78)"
       gradientUnits="userSpaceOnUse"
       y2="0"
       x2="1"
       y1="0"
       x1="0"><stop
         id="stop174"
         offset="0"
         style="stop-opacity:1;stop-color:#214922" /><stop
         id="stop176"
         offset="0.76591377"
         style="stop-opacity:1;stop-color:#37a83f" /><stop
         id="stop178"
         offset="1"
         style="stop-opacity:1;stop-color:#37a83f" /></linearGradient><clipPath
       id="clipPath190"
       clipPathUnits="userSpaceOnUse"><path
         id="path188"
         d="m 5939.97,1205.61 c -164.28,-42.02 -251.81,-157.27 -251.81,-298.005 v -2.89 c 0,-197.668 184.33,-257.805 394.07,-300.5 13.75,-2.801 25.65,-5.313 36.05,-7.488 71.37,-16.446 93.58,-30.598 93.58,-53.801 v -2.664 c 0,-25.364 -24.06,-40.039 -80.19,-40.039 -4.06,0 -8.17,0.105 -12.31,0.156 -3.36,0.137 -6.8,0.164 -10.15,0.351 -2.04,0.059 -4.08,0.157 -6.1,0.262 -7.3,0.43 -14.51,0.86 -21.58,1.524 l -0.61,0.031 c -7.12,0.633 -14.17,1.414 -21.01,2.285 -71.88,9.324 -144.66,33.242 -212.57,75.281 l -0.8,0.422 c -1.28,0.75 -2.66,1.66 -3.92,2.52 -22.96,15.078 -53.63,8.574 -68.55,-9.18 l -77.31,-92.441 -59.32,-70.754 0.06,-0.078 -0.06,-0.024 c 79.63,-69.879 182.76,-116.789 299.12,-140.219 h 331.86 c 162.57,39.59 261.28,146.063 261.28,299.297 v 2.696 c 0,188.32 -160.22,257.839 -399.37,301.882 -98.83,18.653 -124.21,34.7 -124.21,60.118 v 2.421 c 0,22.754 21.36,38.77 68.1,38.77 86.83,0 191.35,-33.613 249.06,-71.582 26.5,-17.422 42.58,-5.176 56.11,13.672 l 127.64,176.797 -0.1,0.08 0.1,0.13 c -68.57,54.16 -147.39,91.16 -241.68,110.97 z" /></clipPath><linearGradient
       id="linearGradient198"
       spreadMethod="pad"
       gradientTransform="matrix(557.096,891.54,891.54,-557.096,5825.54,284.86)"
       gradientUnits="userSpaceOnUse"
       y2="0"
       x2="1"
       y1="0"
       x1="0"><stop
         id="stop192"
         offset="0"
         style="stop-opacity:1;stop-color:#214922" /><stop
         id="stop194"
         offset="0.76591377"
         style="stop-opacity:1;stop-color:#37a83f" /><stop
         id="stop196"
         offset="1"
         style="stop-opacity:1;stop-color:#37a83f" /></linearGradient><clipPath
       id="clipPath208"
       clipPathUnits="userSpaceOnUse"><path
         id="path206"
         d="m 5715.2,270.25 h -254.79 c -1.28,0 -2.56,0.051 -3.85,0.16 -22.2,1.789 -45.84,18.68 -53.86,39.129 l -25.2,65.52 c -8.52,21.562 -34.49,39.222 -57.72,39.222 h -230.47 c -23.2,0 -49.04,-17.769 -57.31,-39.441 l -23.55,-65.149 c -7.87,-20.453 -31.32,-37.48 -53.5,-39.281 -1.28,-0.109 -2.57,-0.16 -3.84,-0.16 h -249.49 c -1.28,0 -2.53,0.051 -3.73,0.16 -20.72,1.781 -30.68,18.551 -22.16,38.789 l 172.26,411.731 353.51,-232.797 366.23,235.523 173.39,-414.457 c 8.46,-20.238 -1.47,-37.008 -22.18,-38.789 -1.21,-0.109 -2.46,-0.16 -3.74,-0.16 m -502.16,253.801 -361.57,205.187 185.68,443.802 c 5.62,13.5 18.29,25.46 32.61,32.46 0.07,0.04 0.15,0.07 0.22,0.11 h 276.91 c 0.07,-0.04 0.14,-0.07 0.22,-0.11 14.35,-7 26.91,-18.96 32.61,-32.46 L 5565.43,729.145 5213.04,524.051" /></clipPath><linearGradient
       id="linearGradient216"
       spreadMethod="pad"
       gradientTransform="matrix(756.268,852.405,852.405,-756.268,4852.33,124.77)"
       gradientUnits="userSpaceOnUse"
       y2="0"
       x2="1"
       y1="0"
       x1="0"><stop
         id="stop210"
         offset="0"
         style="stop-opacity:1;stop-color:#214922" /><stop
         id="stop212"
         offset="0.76591377"
         style="stop-opacity:1;stop-color:#37a83f" /><stop
         id="stop214"
         offset="1"
         style="stop-opacity:1;stop-color:#37a83f" /></linearGradient><clipPath
       id="clipPath228"
       clipPathUnits="userSpaceOnUse"><path
         id="path226"
         d="m 5201.5,488.133 -353.51,232.797 3.48,8.308 361.57,-205.187 352.39,205.094 2.3,-5.489 -366.23,-235.523" /></clipPath><linearGradient
       id="linearGradient234"
       spreadMethod="pad"
       gradientTransform="matrix(756.268,852.405,852.405,-756.268,4852.33,124.77)"
       gradientUnits="userSpaceOnUse"
       y2="0"
       x2="1"
       y1="0"
       x1="0"><stop
         id="stop230"
         offset="0"
         style="stop-opacity:1;stop-color:#1e3d22" /><stop
         id="stop232"
         offset="1"
         style="stop-opacity:1;stop-color:#308741" /></linearGradient><clipPath
       id="clipPath244"
       clipPathUnits="userSpaceOnUse"><path
         id="path242"
         d="m 4734.36,795.484 472.53,-283.777 472.52,283.777 -472.52,283.746 z" /></clipPath><linearGradient
       id="linearGradient250"
       spreadMethod="pad"
       gradientTransform="matrix(945.059,0,0,-945.059,4734.36,795.466)"
       gradientUnits="userSpaceOnUse"
       y2="0"
       x2="1"
       y1="0"
       x1="0"><stop
         id="stop246"
         offset="0"
         style="stop-opacity:1;stop-color:#f36717" /><stop
         id="stop248"
         offset="1"
         style="stop-opacity:1;stop-color:#fab10b" /></linearGradient><clipPath
       id="clipPath260"
       clipPathUnits="userSpaceOnUse"><path
         id="path258"
         d="m 5036.96,795.484 c 0,-93.855 76.08,-169.961 169.93,-169.961 93.89,0 169.99,76.106 169.99,169.961 0,93.907 -76.1,169.934 -169.99,169.934 -93.85,0 -169.93,-76.027 -169.93,-169.934" /></clipPath><linearGradient
       id="linearGradient270"
       spreadMethod="pad"
       gradientTransform="matrix(339.922,0,0,-339.922,5036.96,795.466)"
       gradientUnits="userSpaceOnUse"
       y2="0"
       x2="1"
       y1="0"
       x1="0"><stop
         id="stop262"
         offset="0"
         style="stop-opacity:1;stop-color:#264185" /><stop
         id="stop264"
         offset="0.00613403"
         style="stop-opacity:1;stop-color:#264185" /><stop
         id="stop266"
         offset="0.97634623"
         style="stop-opacity:1;stop-color:#3871ba" /><stop
         id="stop268"
         offset="1"
         style="stop-opacity:1;stop-color:#3871ba" /></linearGradient></defs><g
     transform="matrix(1.3333333,0,0,-1.3333333,0,196.32)"
     id="g10"><g
       transform="scale(0.1)"
       id="g12"><path
         id="path14"
         style="fill:#231f20;fill-opacity:1;fill-rule:nonzero;stroke:none"
         d="M 0,1030.8 H 27.2773 L 114.16,900.613 201.074,1030.8 h 27.317 V 792.195 H 201.414 V 985.477 L 114.52,857.664 h -1.368 L 26.2969,985.184 V 792.195 H 0 V 1030.8" /><path
         id="path16"
         style="fill:#231f20;fill-opacity:1;fill-rule:nonzero;stroke:none"
         d="m 287.363,968.473 h 26.242 V 792.242 h -26.242 z m -1.738,67.417 h 30 v -28.96 h -30 v 28.96" /><path
         id="path18"
         style="fill:#231f20;fill-opacity:1;fill-rule:nonzero;stroke:none"
         d="m 367.883,968.453 h 26.211 V 937.75 c 11.66,19.094 29.976,34.473 60.308,34.473 42.641,0 67.524,-28.672 67.524,-70.606 V 792.242 h -26.211 v 102.883 c 0,32.781 -17.746,53.164 -48.735,53.164 -30.359,0 -52.886,-22.07 -52.886,-55.156 V 792.242 h -26.211 v 176.211" /><path
         id="path20"
         style="fill:#231f20;fill-opacity:1;fill-rule:nonzero;stroke:none"
         d="m 573.645,968.473 h 26.289 V 792.242 h -26.289 z m -1.68,67.417 h 29.937 v -28.96 h -29.937 v 28.96" /><path
         id="path22"
         style="fill:#231f20;fill-opacity:1;fill-rule:nonzero;stroke:none"
         d="m 639.551,814.742 13.308,18.731 c 19.067,-14.325 40.161,-22.528 60.996,-22.528 21.125,0 36.489,10.918 36.489,27.977 v 0.676 c 0,17.742 -20.84,24.531 -43.949,31.023 -27.633,7.824 -58.336,17.422 -58.336,49.797 v 0.652 c 0,30.285 25.253,50.469 59.961,50.469 21.484,0 45.332,-7.566 63.418,-19.473 l -11.887,-19.785 c -16.387,10.586 -35.149,17.063 -52.188,17.063 -20.84,0 -34.051,-10.879 -34.051,-25.547 v -0.645 c 0,-16.816 21.793,-23.222 45.34,-30.382 27.254,-8.204 56.493,-18.739 56.493,-50.418 v -0.684 c 0,-33.43 -27.567,-52.871 -62.684,-52.871 -25.195,0 -53.176,9.902 -72.91,25.945" /><path
         id="path24"
         style="fill:#231f20;fill-opacity:1;fill-rule:nonzero;stroke:none"
         d="M 823.113,838.922 V 945.27 h -24.508 v 23.203 h 24.508 v 53.177 h 26.235 v -53.177 h 55.894 V 945.27 H 849.348 V 842.352 c 0,-21.485 11.953,-29.297 29.683,-29.297 8.781,0 16.313,1.687 25.531,6.121 v -22.469 c -9.218,-4.805 -19.101,-7.519 -31.742,-7.519 -28.203,0 -49.707,13.964 -49.707,49.734" /><path
         id="path26"
         style="fill:#231f20;fill-opacity:1;fill-rule:nonzero;stroke:none"
         d="m 1034.55,1044.44 27.28,-12.63 -38.88,-36.783 h -20.43 z m 34.42,-153.67 c -3.02,31.992 -21.5,59.226 -56.2,59.226 -30.36,0 -53.559,-25.176 -57.309,-59.226 z m -51.46,-79.825 c 24.22,0 41.2,9.903 55.59,24.91 l 16.29,-14.667 c -17.71,-19.766 -39.2,-33.067 -72.57,-33.067 -48.351,0 -87.941,37.227 -87.941,92.031 0,51.164 35.816,92.071 84.531,92.071 52.18,0 82.13,-41.582 82.13,-93.438 0,-2.41 0,-5.066 -0.3,-9.199 H 955.461 c 3.75,-37.168 31.016,-58.641 62.049,-58.641" /><path
         id="path28"
         style="fill:#231f20;fill-opacity:1;fill-rule:nonzero;stroke:none"
         d="m 1135.01,968.453 h 26.29 v -46.035 c 12.93,29.328 38.48,50.461 71.87,49.043 v -28.242 h -2.07 c -38.46,0 -69.8,-27.664 -69.8,-80.809 v -70.168 h -26.29 v 176.211" /><path
         id="path30"
         style="fill:#231f20;fill-opacity:1;fill-rule:nonzero;stroke:none"
         d="m 1268.78,968.473 h 26.31 V 792.242 h -26.31 z m -1.68,67.417 h 29.98 v -28.96 h -29.98 v 28.96" /><path
         id="path32"
         style="fill:#231f20;fill-opacity:1;fill-rule:nonzero;stroke:none"
         d="m 1495.2,879.488 v 0.664 c 0,37.864 -28.29,68.879 -65.44,68.879 -38.18,0 -64.39,-31.015 -64.39,-68.242 v -0.637 c 0,-37.8 27.89,-68.484 65.06,-68.484 38.17,0 64.77,30.684 64.77,67.82 m -156.79,0 v 0.664 c 0,49.786 38.87,92.024 92.02,92.024 52.79,0 91.72,-41.614 91.72,-91.387 v -0.637 c 0,-49.785 -39.22,-92 -92.39,-92 -52.88,0 -91.35,41.582 -91.35,91.336" /><path
         id="path34"
         style="fill:#231f20;fill-opacity:1;fill-rule:nonzero;stroke:none"
         d="m 1801.01,880.152 v 0.715 c 0,40.516 -31.06,67.742 -63.74,67.742 -34.12,0 -62.06,-25.183 -62.06,-67.742 v -0.715 c 0,-41.55 28.66,-68.152 62.06,-68.152 32.68,0 63.74,27.598 63.74,68.152 m -152.75,-0.261 v 0.554 c 0,57.676 41.95,91.731 84.25,91.731 32.72,0 53.77,-17.707 67.44,-37.531 v 106.375 h 26.27 V 792.223 h -26.27 v 35.468 c -14.28,-21.152 -35.1,-39.199 -67.44,-39.199 -42.3,0 -84.25,33.371 -84.25,91.399" /><path
         id="path36"
         style="fill:#231f20;fill-opacity:1;fill-rule:nonzero;stroke:none"
         d="m 1994.49,857.02 v 16.367 c -12.94,3.777 -29.99,7.48 -51.49,7.48 -32.72,0 -51.38,-14.328 -51.38,-35.449 v -0.684 c 0,-22.148 20.43,-35.187 44.22,-35.187 32.44,0 58.65,19.504 58.65,47.473 m -129.52,-13.723 v 0.754 c 0,37.812 30.71,57.597 75.3,57.597 22.55,0 38.19,-3.097 53.92,-7.558 v 5.515 c 0,31.301 -19.11,47.676 -52.17,47.676 -20.8,0 -37.19,-5.066 -53.52,-12.597 l -7.83,21.464 c 19.42,8.879 38.2,15 64.11,15 24.8,0 44.25,-6.796 56.89,-19.414 12.24,-12.246 18.36,-29.316 18.36,-51.757 V 792.223 h -25.84 v 26.289 c -12.33,-15.731 -32.43,-30.02 -63.42,-30.02 -33.08,0 -65.8,18.731 -65.8,54.805" /><path
         id="path38"
         style="fill:#231f20;fill-opacity:1;fill-rule:nonzero;stroke:none"
         d="m 405.77,550.652 v 0.633 c 0,67.766 51.156,123.371 124.418,123.371 45,0 71.874,-14.972 94.097,-36.73 l -33.457,-38.594 c -18.367,16.73 -37.066,26.953 -60.984,26.953 -40.196,0 -69.207,-33.437 -69.207,-74.344 v -0.656 c 0,-40.965 28.316,-74.969 69.207,-74.969 27.265,0 44.011,10.918 62.707,27.957 l 33.418,-33.761 c -24.516,-26.211 -51.821,-42.571 -97.832,-42.571 -70.227,0 -122.367,54.157 -122.367,122.711" /><path
         id="path40"
         style="fill:#231f20;fill-opacity:1;fill-rule:nonzero;stroke:none"
         d="m 657.996,496.383 v 118.281 h 51.816 V 512.82 c 0,-24.679 11.536,-37.168 31.333,-37.168 19.785,0 32.332,12.489 32.332,37.168 v 101.844 h 51.828 V 431.961 h -51.828 v 25.988 c -11.875,-15.418 -27.215,-29.379 -53.45,-29.379 -39.226,0 -62.031,25.918 -62.031,67.813" /><path
         id="path42"
         style="fill:#231f20;fill-opacity:1;fill-rule:nonzero;stroke:none"
         d="m 870.918,431.961 h 51.8477 V 680.777 H 870.918 Z" /><path
         id="path44"
         style="fill:#231f20;fill-opacity:1;fill-rule:nonzero;stroke:none"
         d="m 976.699,483.766 v 86.535 H 954.91 v 44.363 h 21.789 v 46.68 h 51.841 v -46.68 h 42.97 v -44.363 h -42.97 V 492.32 c 0,-11.933 5.08,-17.742 16.68,-17.742 9.56,0 18.09,2.449 25.55,6.465 V 439.5 c -10.9,-6.469 -23.48,-10.539 -40.9,-10.539 -31.686,0 -53.171,12.617 -53.171,54.805" /><path
         id="path46"
         style="fill:#231f20;fill-opacity:1;fill-rule:nonzero;stroke:none"
         d="m 1105.01,496.383 v 118.281 h 51.86 V 512.82 c 0,-24.679 11.51,-37.168 31.32,-37.168 19.77,0 32.34,12.489 32.34,37.168 v 101.844 h 51.81 V 431.961 h -51.81 v 25.988 c -11.9,-15.418 -27.24,-29.379 -53.47,-29.379 -39.22,0 -62.05,25.918 -62.05,67.813" /><path
         id="path48"
         style="fill:#231f20;fill-opacity:1;fill-rule:nonzero;stroke:none"
         d="m 1315.6,614.664 h 51.84 v -36.738 c 10.54,25.168 27.54,41.594 58.25,40.148 v -54.14 h -2.71 c -34.42,0 -55.54,-20.832 -55.54,-64.454 v -67.519 h -51.84 v 182.703" /><path
         id="path50"
         style="fill:#231f20;fill-opacity:1;fill-rule:nonzero;stroke:none"
         d="m 1554.31,496.383 v 9.211 c -8.85,4.121 -20.43,6.844 -33.01,6.844 -22.16,0 -35.79,-8.876 -35.79,-25.204 V 486.5 c 0,-13.984 11.57,-22.059 28.27,-22.059 24.15,0 40.53,13.153 40.53,31.942 M 1435.42,484.5 v 0.691 c 0,39.836 30.29,58.235 73.55,58.235 18.46,0 31.69,-3.008 44.69,-7.5 v 3.086 c 0,21.465 -13.3,33.367 -39.2,33.367 -19.74,0 -33.75,-3.738 -50.45,-9.824 l -12.95,39.523 c 20.08,8.875 39.89,14.57 70.88,14.57 28.33,0 48.77,-7.453 61.69,-20.371 13.66,-13.652 19.8,-33.722 19.8,-58.215 V 431.961 h -50.14 v 19.801 c -12.63,-14 -29.98,-23.192 -55.16,-23.192 -34.45,0 -62.71,19.75 -62.71,55.93" /><path
         id="path52"
         style="fill:#163a5b;fill-opacity:1;fill-rule:nonzero;stroke:none"
         d="m 3015.95,84.7188 c 9.12,0 16.19,2.4218 21.25,7.1523 5.02,4.8672 7.52,10.7579 7.52,17.8279 v 0.52 c 0,8.172 -2.58,14.39 -7.89,18.609 -5.27,4.262 -12.48,6.391 -21.58,6.391 h -28.09 V 84.7188 Z m -65.17,83.2932 h 67.53 c 9.9,0 18.75,-1.383 26.54,-4.121 7.77,-2.743 14.42,-6.621 19.84,-11.692 5.42,-5.019 9.58,-11.039 12.49,-18.027 2.91,-7 4.37,-14.781 4.37,-23.262 v -0.469 c 0,-9.589 -1.73,-17.9996 -5.19,-25.2301 -3.45,-7.2421 -8.23,-13.332 -14.29,-18.1797 -6.03,-4.871 -13.13,-8.5703 -21.22,-10.9804 -8.11,-2.461 -16.8,-3.6524 -26.07,-3.6524 h -27.62 V 2.80078 h -36.38 V 168.012" /><path
         id="path54"
         style="fill:#163a5b;fill-opacity:1;fill-rule:nonzero;stroke:none"
         d="m 3329.84,222.789 30.91,-13.488 -30.19,-28.289 h -27.39 z M 3339.75,72 3317.8,125.531 3295.83,72 Z m -38.26,97.219 h 33.54 L 3405.84,2.80078 h -38.04 l -15.08,37.07812 h -69.86 L 3267.78,2.80078 h -37.09 l 70.8,166.41822" /><path
         id="path56"
         style="fill:#163a5b;fill-opacity:1;fill-rule:nonzero;stroke:none"
         d="m 3606.18,134.531 h -50.27 v 33.481 h 136.89 v -33.481 h -50.27 V 2.80078 h -36.35 V 134.531" /><path
         id="path58"
         style="fill:#163a5b;fill-opacity:1;fill-rule:nonzero;stroke:none"
         d="m 3930.22,87.7695 c 8.97,0 15.85,2.1407 20.66,6.4024 4.77,4.2187 7.19,9.9101 7.19,16.9761 v 0.481 c 0,7.883 -2.54,13.781 -7.53,17.699 -5.07,3.934 -12.04,5.891 -21.02,5.891 h -36.08 V 87.7695 Z m -73.14,80.2425 h 75.49 c 20.93,0 36.99,-5.582 48.16,-16.731 9.45,-9.429 14.17,-22.031 14.17,-37.761 v -0.45 c 0,-13.4098 -3.29,-24.2614 -9.83,-32.6911 -6.52,-8.4375 -15.02,-14.6406 -25.56,-18.5703 l 40.32,-59.00782 h -42.46 l -35.43,52.87892 h -28.5 V 2.80078 h -36.36 V 168.012" /><path
         id="path60"
         style="fill:#163a5b;fill-opacity:1;fill-rule:nonzero;stroke:none"
         d="m 4165.74,2.80078 h 36.3594 v 165.211 H 4165.74 Z" /><path
         id="path62"
         style="fill:#163a5b;fill-opacity:1;fill-rule:nonzero;stroke:none"
         d="M 4474.67,72 4452.75,125.531 4430.78,72 Z m -38.22,97.219 h 33.52 l 70.8,-166.41822 h -38.01 l -15.09,37.07812 h -69.85 L 4402.71,2.80078 h -37.06 l 70.8,166.41822" /><path
         id="path64"
         style="fill:#163a5b;fill-opacity:1;fill-rule:nonzero;stroke:none"
         d="M 4989.64,168.012 H 5114 V 135.68 h -88.49 v -33.508 h 77.86 V 69.8594 h -77.86 v -34.711 h 89.67 V 2.80078 H 4989.64 V 168.012" /><path
         id="path66"
         style="fill:#163a5b;fill-opacity:1;fill-rule:nonzero;stroke:none"
         d="m 5348.59,35.6016 c 7.45,0 14.2,1.207 20.35,3.5703 6.08,2.3593 11.33,5.75 15.66,10.1172 4.36,4.4218 7.71,9.6093 10.14,15.6015 2.46,5.9805 3.66,12.6797 3.66,20.0508 v 0.5078 c 0,7.2305 -1.2,13.9024 -3.66,20.0388 -2.43,6.141 -5.78,11.403 -10.14,15.813 -4.33,4.41 -9.58,7.801 -15.66,10.269 -6.15,2.399 -12.9,3.649 -20.35,3.649 h -28.05 V 35.6016 Z m -64.41,132.4104 h 64.41 c 12.92,0 24.77,-2.082 35.56,-6.25 10.72,-4.141 20.04,-9.961 27.86,-17.321 7.78,-7.39 13.75,-16.089 18.03,-26.082 4.24,-10.007 6.38,-20.8199 6.38,-32.4879 v -0.4219 c 0,-11.668 -2.14,-22.5273 -6.38,-32.5703 -4.28,-10.0898 -10.25,-18.8203 -18.03,-26.207 -7.82,-7.4336 -17.14,-13.2227 -27.86,-17.46096 -10.79,-4.24219 -22.64,-6.41016 -35.56,-6.41016 h -64.41 V 168.012" /><path
         id="path68"
         style="fill:#163a5b;fill-opacity:1;fill-rule:nonzero;stroke:none"
         d="m 5674.02,0.230469 c -22.14,0 -39.62,6.121091 -52.37,18.429731 -12.71,12.25 -19.12,30.5898 -19.12,54.9609 v 94.3909 h 36.34 V 74.5781 c 0,-13.539 3.17,-23.7187 9.47,-30.5586 6.28,-6.8593 15.02,-10.2812 26.21,-10.2812 11.1,0 19.85,3.3125 26.16,9.9336 6.27,6.6172 9.43,16.5 9.43,29.7187 v 94.6214 h 36.41 V 74.7891 c 0,-12.5391 -1.72,-23.4883 -5.1,-32.8086 -3.44,-9.2891 -8.28,-17 -14.53,-23.2188 -6.29,-6.2109 -13.95,-10.86326 -22.87,-13.93358 -8.99,-3.0664 -18.98,-4.597651 -30.03,-4.597651" /><path
         id="path70"
         style="fill:#163a5b;fill-opacity:1;fill-rule:nonzero;stroke:none"
         d="m 5997.4,0 c -12.13,0 -23.36,2.21094 -33.78,6.62109 -10.38,4.39841 -19.31,10.39841 -26.88,18.03911 -7.58,7.6289 -13.45,16.6289 -17.72,27.0195 -4.2,10.3789 -6.35,21.4609 -6.35,33.2617 v 0.5078 c 0,11.7891 2.15,22.8208 6.35,33.1208 4.27,10.328 10.14,19.391 17.72,27.149 7.57,7.769 16.6,13.91 27.16,18.453 10.53,4.449 22.14,6.68 34.89,6.68 7.76,0 14.78,-0.622 21.16,-1.872 6.36,-1.269 12.15,-3 17.3,-5.179 5.25,-2.192 9.98,-4.922 14.44,-8.039 4.37,-3.133 8.46,-6.59 12.25,-10.391 l -23.09,-26.691 c -6.46,5.84 -13.06,10.422 -19.7,13.691 -6.75,3.309 -14.26,4.949 -22.56,4.949 -6.91,0 -13.35,-1.308 -19.27,-3.961 -5.93,-2.668 -10.97,-6.398 -15.19,-11.14 -4.3,-4.688 -7.56,-10.16 -9.92,-16.348 -2.38,-6.2499 -3.51,-12.8905 -3.51,-19.9999 v -0.4219 c 0,-7.1094 1.13,-13.7695 3.51,-20.0703 2.36,-6.2969 5.6,-11.8086 9.81,-16.5586 4.14,-4.6719 9.19,-8.3984 15.09,-11.1797 5.93,-2.75 12.35,-4.1211 19.48,-4.1211 9.46,0 17.42,1.711 23.92,5.1602 6.51,3.4922 13.03,8.1914 19.49,14.1992 L 6065.09,29.5 c -4.19,-4.5703 -8.64,-8.6211 -13.21,-12.2891 -4.57,-3.6211 -9.51,-6.7226 -14.98,-9.31246 C 6031.5,5.30859 6025.56,3.37109 6019.07,2 6012.64,0.671875 6005.4,0 5997.4,0" /><path
         id="path72"
         style="fill:#163a5b;fill-opacity:1;fill-rule:nonzero;stroke:none"
         d="M 6325.44,72 6303.5,125.531 6281.52,72 Z m -38.25,97.219 h 33.49 L 6391.56,2.80078 h -38.06 l -15.09,37.07812 h -69.87 L 6253.45,2.80078 h -37.03 l 70.77,166.41822" /><path
         id="path74"
         style="fill:#163a5b;fill-opacity:1;fill-rule:nonzero;stroke:none"
         d="m 6617.84,35.6016 c 7.39,0 14.15,1.207 20.31,3.5703 6.1,2.3593 11.33,5.75 15.68,10.1172 4.32,4.4218 7.71,9.6093 10.14,15.6015 2.44,5.9805 3.69,12.6797 3.69,20.0508 v 0.5078 c 0,7.2305 -1.25,13.9024 -3.69,20.0388 -2.43,6.141 -5.82,11.403 -10.14,15.813 -4.35,4.41 -9.58,7.801 -15.68,10.269 -6.16,2.399 -12.92,3.649 -20.31,3.649 h -28.09 V 35.6016 Z m -64.4,132.4104 h 64.4 c 12.9,0 24.73,-2.082 35.53,-6.25 10.73,-4.141 20.05,-9.961 27.85,-17.321 7.79,-7.39 13.77,-16.089 18.05,-26.082 4.21,-10.007 6.36,-20.8199 6.36,-32.4879 v -0.4219 c 0,-11.668 -2.15,-22.5273 -6.36,-32.5703 -4.28,-10.0898 -10.26,-18.8203 -18.05,-26.207 -7.8,-7.4336 -17.12,-13.2227 -27.85,-17.46096 -10.8,-4.24219 -22.63,-6.41016 -35.53,-6.41016 h -64.4 V 168.012" /><path
         id="path76"
         style="fill:#163a5b;fill-opacity:1;fill-rule:nonzero;stroke:none"
         d="m 6955.1,33.5195 c 7.19,0 13.9,1.3321 20.05,4.0117 6.12,2.6407 11.37,6.3477 15.69,11.0469 4.34,4.7617 7.72,10.2305 10.15,16.4219 2.46,6.25 3.66,12.8906 3.66,19.9414 v 0.5078 c 0,7.0391 -1.2,13.75 -3.66,20.0388 -2.43,6.293 -5.89,11.801 -10.38,16.563 -4.49,4.687 -9.8,8.398 -15.94,11.148 -6.12,2.813 -12.81,4.121 -20.02,4.121 -7.45,0 -14.18,-1.308 -20.24,-3.961 -6.02,-2.668 -11.24,-6.398 -15.53,-11.14 -4.36,-4.688 -7.72,-10.16 -10.17,-16.348 -2.45,-6.2499 -3.66,-12.8905 -3.66,-19.9999 v -0.4219 c 0,-7.1094 1.21,-13.7695 3.66,-20.0703 2.45,-6.2969 5.89,-11.8086 10.41,-16.5586 4.45,-4.6719 9.74,-8.3984 15.8,-11.1797 6.04,-2.75 12.79,-4.1211 20.18,-4.1211 z M 6954.65,0 c -12.78,0 -24.47,2.23828 -35.22,6.71875 -10.7,4.47265 -19.93,10.51175 -27.73,18.17965 -7.74,7.5899 -13.83,16.6133 -18.16,26.8828 -4.29,10.3086 -6.51,21.3594 -6.51,33.1602 v 0.5078 c 0,11.7891 2.28,22.8208 6.6,33.1208 4.46,10.328 10.54,19.391 18.34,27.149 7.77,7.769 17.02,13.91 27.86,18.453 10.74,4.449 22.51,6.68 35.27,6.68 12.73,0 24.45,-2.231 35.18,-6.68 10.69,-4.543 19.92,-10.602 27.69,-18.211 7.79,-7.633 13.83,-16.582 18.2,-26.91 4.3,-10.27 6.52,-21.3205 6.52,-33.1799 v -0.4219 c 0,-11.8281 -2.22,-22.8281 -6.67,-33.1601 -4.39,-10.3282 -10.47,-19.3399 -18.3,-27.1485 -7.76,-7.789 -17.03,-13.9492 -27.84,-18.42185 C 6979.15,2.23828 6967.38,0 6954.65,0" /><path
         id="path78"
         style="fill:#163a5b;fill-opacity:1;fill-rule:nonzero;stroke:none"
         d="m 7284.56,87.7695 c 8.95,0 15.86,2.1407 20.64,6.4024 4.77,4.2187 7.2,9.9101 7.2,16.9761 v 0.481 c 0,7.883 -2.54,13.781 -7.59,17.699 -5.01,3.934 -12,5.891 -20.94,5.891 h -36.12 V 87.7695 Z m -73.22,80.2425 h 75.53 c 20.94,0 36.99,-5.582 48.2,-16.731 9.45,-9.429 14.15,-22.031 14.15,-37.761 v -0.45 c 0,-13.4098 -3.29,-24.2614 -9.84,-32.6911 -6.5,-8.4375 -15.01,-14.6406 -25.55,-18.5703 l 40.32,-59.00782 h -42.44 l -35.39,52.87892 h -28.57 V 2.80078 h -36.41 V 168.012" /><path
         id="path80"
         style="fill:#163a5b;fill-opacity:1;fill-rule:nonzero;stroke:none"
         d="M 7613.32,72 7591.36,125.531 7569.41,72 Z m -38.28,97.219 h 33.58 L 7679.39,2.80078 h -38.01 L 7626.3,39.8789 h -69.88 L 7541.34,2.80078 h -37.09 l 70.79,166.41822" /><path
         id="path82"
         style="fill:#231f20;fill-opacity:1;fill-rule:nonzero;stroke:none"
         d="m 3037.65,1301.5 c -12.89,0 -24.67,2.13 -35.3,6.38 -10.62,4.24 -19.72,10.12 -27.36,17.69 -7.64,7.53 -13.57,16.53 -17.79,26.92 -4.26,10.36 -6.42,21.71 -6.42,33.97 v 0.46 c 0,11.81 2.2,22.88 6.51,33.15 4.33,10.32 10.36,19.39 18.05,27.18 7.68,7.79 16.84,13.94 27.39,18.39 10.52,4.49 22.1,6.73 34.7,6.73 7.36,0 14.1,-0.5 20.19,-1.54 6.02,-1.03 11.65,-2.49 16.86,-4.35 5.18,-1.93 10.06,-4.28 14.63,-7.11 4.56,-2.81 8.97,-6.03 13.18,-9.67 l -22.87,-27.59 c -3.16,2.65 -6.29,5.01 -9.42,7.07 -3.15,2.06 -6.41,3.77 -9.81,5.19 -3.4,1.43 -7.04,2.52 -10.98,3.27 -3.93,0.79 -8.26,1.22 -12.98,1.22 -6.63,0 -12.75,-1.38 -18.52,-4.16 -5.75,-2.77 -10.77,-6.45 -15.11,-11.11 -4.31,-4.64 -7.72,-10.08 -10.15,-16.33 -2.42,-6.19 -3.63,-12.89 -3.63,-19.97 v -0.48 c 0,-7.58 1.21,-14.55 3.63,-20.92 2.43,-6.41 5.9,-11.96 10.39,-16.66 4.5,-4.75 9.77,-8.41 15.8,-11.05 6.06,-2.56 12.82,-3.91 20.21,-3.91 13.5,0 24.93,3.37 34.2,10.02 v 23.78 h -36.58 v 31.37 h 71.76 v -71.73 c -8.49,-7.26 -18.61,-13.44 -30.35,-18.52 -11.7,-5.13 -25.13,-7.69 -40.23,-7.69" /><path
         id="path84"
         style="fill:#231f20;fill-opacity:1;fill-rule:nonzero;stroke:none"
         d="m 3383.39,1335 c 7.24,0 13.93,1.36 20.08,4.03 6.14,2.68 11.36,6.36 15.66,11.1 4.36,4.71 7.72,10.14 10.17,16.4 2.43,6.22 3.66,12.86 3.66,19.93 v 0.46 c 0,7.1 -1.23,13.78 -3.66,20.07 -2.45,6.31 -5.89,11.81 -10.38,16.52 -4.5,4.74 -9.83,8.48 -15.94,11.19 -6.13,2.78 -12.81,4.16 -20.08,4.16 -7.39,0 -14.08,-1.34 -20.15,-4 -6.06,-2.72 -11.26,-6.41 -15.59,-11.09 -4.32,-4.74 -7.68,-10.21 -10.14,-16.43 -2.46,-6.22 -3.65,-12.87 -3.65,-19.94 v -0.48 c 0,-7.08 1.19,-13.77 3.65,-20.03 2.46,-6.31 5.86,-11.82 10.39,-16.54 4.48,-4.69 9.77,-8.44 15.79,-11.21 6.07,-2.75 12.79,-4.14 20.19,-4.14 z m -0.49,-33.5 c -12.73,0 -24.43,2.25 -35.12,6.72 -10.74,4.49 -19.98,10.53 -27.76,18.16 -7.77,7.64 -13.82,16.64 -18.19,26.9 -4.3,10.34 -6.48,21.4 -6.48,33.18 v 0.46 c 0,11.81 2.22,22.88 6.61,33.15 4.42,10.32 10.5,19.39 18.32,27.18 7.78,7.79 17.03,13.94 27.85,18.39 10.76,4.49 22.52,6.73 35.26,6.73 12.72,0 24.45,-2.24 35.17,-6.73 10.71,-4.45 19.96,-10.55 27.72,-18.17 7.79,-7.65 13.83,-16.61 18.18,-26.92 4.33,-10.3 6.49,-21.35 6.49,-33.15 v -0.48 c 0,-11.81 -2.19,-22.85 -6.62,-33.15 -4.4,-10.31 -10.47,-19.36 -18.29,-27.15 -7.77,-7.78 -17.08,-13.91 -27.85,-18.4 -10.76,-4.47 -22.52,-6.72 -35.29,-6.72" /><path
         id="path86"
         style="fill:#231f20;fill-opacity:1;fill-rule:nonzero;stroke:none"
         d="m 3648.68,1469.54 h 40.12 l 43.18,-116.36 43.18,116.36 h 39.21 l -66.79,-166.38 h -32.14 l -66.76,166.38" /><path
         id="path88"
         style="fill:#231f20;fill-opacity:1;fill-rule:nonzero;stroke:none"
         d="m 3999.36,1469.54 h 124.36 v -32.36 h -88.49 v -33.49 h 77.9 v -32.31 h -77.9 v -34.7 h 89.66 v -32.35 h -125.53 v 165.21" /><path
         id="path90"
         style="fill:#231f20;fill-opacity:1;fill-rule:nonzero;stroke:none"
         d="m 4390.19,1389.29 c 8.97,0 15.85,2.14 20.66,6.36 4.78,4.27 7.18,9.93 7.18,17 v 0.49 c 0,7.85 -2.5,13.77 -7.56,17.7 -5.03,3.92 -12.04,5.89 -20.98,5.89 h -36.12 v -47.44 z m -73.15,80.25 h 75.5 c 20.93,0 36.99,-5.58 48.15,-16.76 9.45,-9.42 14.18,-22.02 14.18,-37.78 v -0.44 c 0,-13.39 -3.29,-24.27 -9.8,-32.71 -6.56,-8.4 -15.08,-14.57 -25.63,-18.49 l 40.36,-59.03 h -42.47 l -35.39,52.87 h -28.57 v -52.87 h -36.33 v 165.21" /><path
         id="path92"
         style="fill:#231f20;fill-opacity:1;fill-rule:nonzero;stroke:none"
         d="m 4647.2,1469.54 h 33.5 l 77.44,-101.7 v 101.7 h 35.85 v -165.21 h -30.9 l -80.01,105.01 v -105.01 h -35.88 v 165.21" /><path
         id="path94"
         style="fill:#231f20;fill-opacity:1;fill-rule:nonzero;stroke:none"
         d="m 5073.91,1335 c 7.2,0 13.9,1.36 20.05,4.03 6.16,2.68 11.36,6.36 15.69,11.1 4.32,4.71 7.72,10.14 10.14,16.4 2.46,6.22 3.67,12.86 3.67,19.93 v 0.46 c 0,7.1 -1.21,13.78 -3.67,20.07 -2.42,6.31 -5.9,11.81 -10.38,16.52 -4.48,4.74 -9.79,8.48 -15.9,11.19 -6.18,2.78 -12.85,4.16 -20.08,4.16 -7.39,0 -14.12,-1.34 -20.19,-4 -6.05,-2.72 -11.24,-6.41 -15.58,-11.09 -4.31,-4.74 -7.72,-10.21 -10.15,-16.43 -2.42,-6.22 -3.63,-12.87 -3.63,-19.94 v -0.48 c 0,-7.08 1.21,-13.77 3.63,-20.03 2.43,-6.31 5.9,-11.82 10.38,-16.54 4.51,-4.69 9.78,-8.44 15.81,-11.21 6.06,-2.75 12.81,-4.14 20.21,-4.14 z m -0.48,-33.5 c -12.74,0 -24.48,2.25 -35.19,6.72 -10.67,4.49 -19.93,10.53 -27.73,18.16 -7.78,7.64 -13.83,16.64 -18.16,26.9 -4.31,10.34 -6.48,21.4 -6.48,33.18 v 0.46 c 0,11.81 2.21,22.88 6.59,33.15 4.43,10.32 10.52,19.39 18.32,27.18 7.76,7.79 17.06,13.94 27.84,18.39 10.78,4.49 22.52,6.73 35.29,6.73 12.73,0 24.45,-2.24 35.16,-6.73 10.71,-4.45 19.93,-10.55 27.71,-18.17 7.82,-7.65 13.87,-16.61 18.16,-26.92 4.36,-10.3 6.52,-21.35 6.52,-33.15 v -0.48 c 0,-11.81 -2.21,-22.85 -6.65,-33.15 -4.37,-10.31 -10.45,-19.36 -18.28,-27.15 -7.76,-7.78 -17.06,-13.91 -27.81,-18.4 -10.78,-4.47 -22.57,-6.72 -35.29,-6.72" /><path
         id="path96"
         style="fill:#231f20;fill-opacity:1;fill-rule:nonzero;stroke:none"
         d="m 5583.69,1469.54 h 125.77 v -32.81 h -89.47 v -35.64 h 78.86 v -32.8 h -78.86 v -63.96 h -36.3 v 165.21" /><path
         id="path98"
         style="fill:#231f20;fill-opacity:1;fill-rule:nonzero;stroke:none"
         d="m 5898.07,1469.54 h 124.36 v -32.36 h -88.51 v -33.49 h 77.83 v -32.31 h -77.83 v -34.7 h 89.63 v -32.35 h -125.48 v 165.21" /><path
         id="path100"
         style="fill:#231f20;fill-opacity:1;fill-rule:nonzero;stroke:none"
         d="m 6280.12,1337.14 c 7.38,0 14.14,1.18 20.28,3.54 6.16,2.36 11.38,5.72 15.71,10.16 4.31,4.43 7.71,9.61 10.15,15.58 2.41,5.92 3.66,12.65 3.66,20.04 v 0.46 c 0,7.24 -1.25,13.94 -3.66,20.07 -2.44,6.15 -5.84,11.4 -10.15,15.81 -4.33,4.42 -9.55,7.84 -15.71,10.28 -6.14,2.42 -12.9,3.65 -20.28,3.65 h -28.06 v -99.59 z m -64.48,132.4 h 64.48 c 12.89,0 24.73,-2.1 35.52,-6.24 10.76,-4.2 20.05,-9.96 27.82,-17.35 7.8,-7.4 13.84,-16.11 18.06,-26.09 4.26,-9.98 6.39,-20.82 6.39,-32.46 v -0.48 c 0,-11.65 -2.13,-22.53 -6.39,-32.54 -4.22,-10.09 -10.26,-18.82 -18.06,-26.21 -7.77,-7.39 -17.06,-13.21 -27.82,-17.43 -10.79,-4.28 -22.63,-6.41 -35.52,-6.41 h -64.48 v 165.21" /><path
         id="path102"
         style="fill:#231f20;fill-opacity:1;fill-rule:nonzero;stroke:none"
         d="m 6559.76,1469.54 h 124.37 v -32.36 h -88.47 v -33.49 h 77.88 v -32.31 h -77.88 v -34.7 h 89.67 v -32.35 h -125.57 v 165.21" /><path
         id="path104"
         style="fill:#231f20;fill-opacity:1;fill-rule:nonzero;stroke:none"
         d="m 6950.62,1389.29 c 8.97,0 15.85,2.14 20.66,6.36 4.77,4.27 7.18,9.93 7.18,17 v 0.49 c 0,7.85 -2.54,13.77 -7.53,17.7 -5.1,3.92 -12.06,5.89 -21.03,5.89 h -36.09 v -47.44 z m -73.17,80.25 h 75.51 c 20.91,0 36.97,-5.58 48.14,-16.76 9.48,-9.42 14.14,-22.02 14.14,-37.78 v -0.44 c 0,-13.39 -3.26,-24.27 -9.76,-32.71 -6.57,-8.4 -15.09,-14.57 -25.58,-18.49 l 40.31,-59.03 h -42.43 l -35.44,52.87 h -28.53 v -52.87 h -36.36 v 165.21" /><path
         id="path106"
         style="fill:#231f20;fill-opacity:1;fill-rule:nonzero;stroke:none"
         d="m 7302.5,1373.49 -21.97,53.55 -21.95,-53.55 z m -38.25,97.23 h 33.52 l 70.77,-166.39 h -37.95 l -15.09,37.05 h -69.88 l -15.08,-37.05 h -37.11 l 70.82,166.39" /><path
         id="path108"
         style="fill:#231f20;fill-opacity:1;fill-rule:nonzero;stroke:none"
         d="m 7553.58,1469.54 h 36.36 v -132.4 h 82.35 v -32.81 h -118.71 v 165.21" /><path
         id="path110"
         style="fill:#fddd04;fill-opacity:1;fill-rule:nonzero;stroke:none"
         d="m 7676.64,315.301 c 0,-24.692 -20.25,-44.891 -44.97,-44.891 H 2996.32 c -24.78,0 -44.98,20.199 -44.98,44.891 v 845.249 c 0,24.75 20.2,44.95 44.98,44.95 h 4635.35 c 24.72,0 44.97,-20.2 44.97,-44.95 V 315.301" /><g
         id="g112"><g
           clip-path="url(#clipPath118)"
           id="g114"><path
             id="path128"
             style="fill:url(#linearGradient126);fill-opacity:1;fill-rule:nonzero;stroke:none"
             d="m 3032.57,1205.5 -0.08,-0.21 h -39.45 c -23.23,0 -42.26,-19 -42.26,-42.23 V 312.488 c 0,-23.226 19.03,-42.238 42.26,-42.238 h 476.03 l -0.02,0.16 h 0.02 c 236.47,0 359.4,109.559 359.4,259.149 v 2.664 c 0,128.293 -77.56,192.394 -197.74,227.121 100.17,34.715 166.96,102.851 166.96,213.679 v 2.696 c 0,64.141 -24.03,112.231 -57.45,145.621 -54.72,54.77 -136.23,84.16 -265.83,84.16 z m 222.56,-236.773 h 134.88 c 66.79,0 100.16,-22.715 100.16,-64.141 v -2.645 c 0,-41.398 -32.04,-64.152 -98.83,-64.152 h -136.21 z m 0,-323.211 h 157.59 c 68.11,0 101.55,-28.047 101.55,-68.125 v -2.668 c 0,-40.039 -34.75,-68.153 -102.88,-68.153 h -156.26 v 138.946" /></g></g><g
         id="g130"><g
           clip-path="url(#clipPath136)"
           id="g132"><path
             id="path146"
             style="fill:url(#linearGradient144);fill-opacity:1;fill-rule:nonzero;stroke:none"
             d="m 3925.63,1205.5 -0.03,-0.21 h -43.48 c -23.23,0 -42.21,-19 -42.21,-42.23 V 312.488 c 0,-23.226 18.98,-42.238 42.21,-42.238 h 228.09 c 23.24,0 42.26,19.012 42.26,42.238 v 182.715 c 0,23.192 14.37,42.176 32.04,42.176 h 33.4 c 0.74,0 11.79,-15.828 24.61,-35.242 l 129.81,-196.625 c 12.79,-19.383 42.26,-35.262 65.48,-35.262 h 272.17 c 1.48,0 2.92,0.078 4.22,0.16 h 38.01 l -217.69,317.926 c 113.54,54.805 184.33,149.648 184.33,285.898 v 2.637 c 0,96.152 -29.4,165.639 -85.5,221.809 -65.46,65.4 -170.99,106.82 -336.62,106.82 z m 226.9,-261.871 h 136.27 c 72.1,0 118.9,-29.383 118.9,-89.473 v -2.722 c 0,-57.414 -45.43,-90.813 -120.26,-90.813 h -134.91 v 183.008" /></g></g><g
         id="g148"><g
           clip-path="url(#clipPath154)"
           id="g150"><path
             id="path164"
             style="fill:url(#linearGradient162);fill-opacity:1;fill-rule:nonzero;stroke:none"
             d="m 6601.36,1205.29 c -23.23,0 -42.27,-19 -42.27,-42.23 V 312.488 c 0,-23.226 19.04,-42.238 42.27,-42.238 h 228.06 c 23.25,0 42.29,19.012 42.29,42.238 v 850.572 c 0,23.23 -19.04,42.23 -42.29,42.23 h -228.06" /></g></g><g
         id="g166"><g
           clip-path="url(#clipPath172)"
           id="g168"><path
             id="path182"
             style="fill:url(#linearGradient180);fill-opacity:1;fill-rule:nonzero;stroke:none"
             d="m 6966.79,1205.29 c -23.25,0 -42.2,-19 -42.2,-42.23 V 312.488 c 0,-23.226 18.95,-42.238 42.2,-42.238 h 667.58 c 23.27,0 42.19,19.012 42.19,42.238 v 182.715 c 0,23.192 -18.92,42.176 -42.19,42.176 h -355.01 c -23.23,0 -42.23,19.062 -42.23,42.258 v 583.423 c 0,23.23 -19.01,42.23 -42.26,42.23 h -228.08" /></g></g><g
         id="g184"><g
           clip-path="url(#clipPath190)"
           id="g186"><path
             id="path200"
             style="fill:url(#linearGradient198);fill-opacity:1;fill-rule:nonzero;stroke:none"
             d="m 5939.97,1205.61 c -164.28,-42.02 -251.81,-157.27 -251.81,-298.005 v -2.89 c 0,-197.668 184.33,-257.805 394.07,-300.5 13.75,-2.801 25.65,-5.313 36.05,-7.488 71.37,-16.446 93.58,-30.598 93.58,-53.801 v -2.664 c 0,-25.364 -24.06,-40.039 -80.19,-40.039 -4.06,0 -8.17,0.105 -12.31,0.156 -3.36,0.137 -6.8,0.164 -10.15,0.351 -2.04,0.059 -4.08,0.157 -6.1,0.262 -7.3,0.43 -14.51,0.86 -21.58,1.524 l -0.61,0.031 c -7.12,0.633 -14.17,1.414 -21.01,2.285 -71.88,9.324 -144.66,33.242 -212.57,75.281 l -0.8,0.422 c -1.28,0.75 -2.66,1.66 -3.92,2.52 -22.96,15.078 -53.63,8.574 -68.55,-9.18 l -77.31,-92.441 -59.32,-70.754 0.06,-0.078 -0.06,-0.024 c 79.63,-69.879 182.76,-116.789 299.12,-140.219 h 331.86 c 162.57,39.59 261.28,146.063 261.28,299.297 v 2.696 c 0,188.32 -160.22,257.839 -399.37,301.882 -98.83,18.653 -124.21,34.7 -124.21,60.118 v 2.421 c 0,22.754 21.36,38.77 68.1,38.77 86.83,0 191.35,-33.613 249.06,-71.582 26.5,-17.422 42.58,-5.176 56.11,13.672 l 127.64,176.797 -0.1,0.08 0.1,0.13 c -68.57,54.16 -147.39,91.16 -241.68,110.97 h -325.38" /></g></g><g
         id="g202"><g
           clip-path="url(#clipPath208)"
           id="g204"><path
             id="path218"
             style="fill:url(#linearGradient216);fill-opacity:1;fill-rule:nonzero;stroke:none"
             d="m 5715.2,270.25 h -254.79 c -1.28,0 -2.56,0.051 -3.85,0.16 -22.2,1.789 -45.84,18.68 -53.86,39.129 l -25.2,65.52 c -8.52,21.562 -34.49,39.222 -57.72,39.222 h -230.47 c -23.2,0 -49.04,-17.769 -57.31,-39.441 l -23.55,-65.149 c -7.87,-20.453 -31.32,-37.48 -53.5,-39.281 -1.28,-0.109 -2.57,-0.16 -3.84,-0.16 h -249.49 c -1.28,0 -2.53,0.051 -3.73,0.16 -20.72,1.781 -30.68,18.551 -22.16,38.789 l 172.26,411.731 353.51,-232.797 366.23,235.523 173.39,-414.457 c 8.46,-20.238 -1.47,-37.008 -22.18,-38.789 -1.21,-0.109 -2.46,-0.16 -3.74,-0.16 m -502.16,253.801 -361.57,205.187 185.68,443.802 c 5.62,13.5 18.29,25.46 32.61,32.46 0.07,0.04 0.15,0.07 0.22,0.11 h 276.91 c 0.07,-0.04 0.14,-0.07 0.22,-0.11 14.35,-7 26.91,-18.96 32.61,-32.46 L 5565.43,729.145 5213.04,524.051" /></g></g><path
         id="path220"
         style="fill:#a89d21;fill-opacity:1;fill-rule:nonzero;stroke:none"
         d="m 4847.99,720.93 -112.88,74.34 116.36,-66.032 -3.48,-8.308 m 719.74,2.726 -2.3,5.489 113.98,66.339 -111.68,-71.828" /><g
         id="g222"><g
           clip-path="url(#clipPath228)"
           id="g224"><path
             id="path236"
             style="fill:url(#linearGradient234);fill-opacity:1;fill-rule:nonzero;stroke:none"
             d="m 5201.5,488.133 -353.51,232.797 3.48,8.308 361.57,-205.187 352.39,205.094 2.3,-5.489 -366.23,-235.523" /></g></g><g
         id="g238"><g
           clip-path="url(#clipPath244)"
           id="g240"><path
             id="path252"
             style="fill:url(#linearGradient250);fill-opacity:1;fill-rule:nonzero;stroke:none"
             d="M 4734.36,795.484 5206.89,511.707 5679.41,795.484 5206.89,1079.23 4734.36,795.484" /></g></g><g
         id="g254"><g
           clip-path="url(#clipPath260)"
           id="g256"><path
             id="path272"
             style="fill:url(#linearGradient270);fill-opacity:1;fill-rule:nonzero;stroke:none"
             d="m 5036.96,795.484 c 0,-93.855 76.08,-169.961 169.93,-169.961 93.89,0 169.99,76.106 169.99,169.961 0,93.907 -76.1,169.934 -169.99,169.934 -93.85,0 -169.93,-76.027 -169.93,-169.934" /></g></g><path
         id="path274"
         style="fill:#ffffff;fill-opacity:1;fill-rule:nonzero;stroke:none"
         d="m 5044.6,846.043 c -3.15,-10.195 -5.39,-20.852 -6.59,-31.77 107.01,30.723 236.44,4.493 331.75,-67.527 3.04,10.137 5.18,20.652 6.22,31.414 -96.79,68.047 -223.08,93.723 -331.38,67.883" /></g></g></svg>