<?xml version="1.0" encoding="UTF-8" standalone="no"?>
<svg
   xmlns:dc="http://purl.org/dc/elements/1.1/"
   xmlns:cc="http://creativecommons.org/ns#"
   xmlns:rdf="http://www.w3.org/1999/02/22-rdf-syntax-ns#"
   xmlns:svg="http://www.w3.org/2000/svg"
   xmlns="http://www.w3.org/2000/svg"
   viewBox="0 0 226.82668 88.506668"
   height="88.506668"
   width="226.82668"
   xml:space="preserve"
   id="svg2"
   version="1.1"><metadata
     id="metadata8"><rdf:RDF><cc:Work
         rdf:about=""><dc:format>image/svg+xml</dc:format><dc:type
           rdf:resource="http://purl.org/dc/dcmitype/StillImage" /></cc:Work></rdf:RDF></metadata><defs
     id="defs6" /><g
     transform="matrix(1.3333333,0,0,-1.3333333,0,88.506667)"
     id="g10"><g
       transform="scale(0.1)"
       id="g12"><path
         id="path14"
         style="fill:#1d3c85;fill-opacity:1;fill-rule:nonzero;stroke:none"
         d="m 474.797,39.6094 h 751.57 v 8.24219 h -751.57 z" /><path
         id="path16"
         style="fill:#1d3c85;fill-opacity:1;fill-rule:nonzero;stroke:none"
         d="m 652.785,0 h 387.742 V 47.7734 H 652.785 Z" /><path
         id="path18"
         style="fill:#1d3c85;fill-opacity:1;fill-rule:nonzero;stroke:none"
         d="m 474.797,239.18 h 751.57 v 8.23438 h -751.57 z" /><path
         id="path20"
         style="fill:#1d3c85;fill-opacity:1;fill-rule:nonzero;stroke:none"
         d="M 1040.2,239.375 V 663.832 H 652.695 L 652.5,239.375 h 387.7" /><path
         id="path22"
         style="fill:#ffffff;fill-opacity:1;fill-rule:nonzero;stroke:none"
         d="m 835.586,557.133 c 0,0 -12.313,0.832 -14.531,1.523 -2.207,0.688 -6.219,2.906 -6.641,4.153 -0.41,1.242 0.137,4.425 2.766,3.183 2.636,-1.246 3.672,-2.906 9.14,-3.32 2.344,-0.184 5.875,-0.762 6.297,-0.695 l 2.969,-4.844" /><path
         id="path24"
         style="fill:#ffffff;fill-opacity:1;fill-rule:nonzero;stroke:none"
         d="m 718,598.695 c 3.738,-2.902 21.59,-18.406 35.293,-21.035 h 8.855 v 6.504 h 7.2 v -6.512 h 4.422 v -16.183 h -4.286 v -23.942 l 2.352,-2.351 1.66,9.551 c 0,0 0.137,0.828 1.945,1.382 1.797,0.551 3.172,1.106 3.172,1.106 0,0 2.5,5.812 1.524,9.687 -0.293,1.2 2.355,-1.656 3.183,-2.906 0.5,-0.75 1.887,-5.117 1.7,-8.18 -0.176,-2.961 -0.372,-3.628 -0.801,-6.707 -0.223,-1.648 -4.551,-6.765 -7.403,-9.472 0,0 1.797,-1.379 1.946,-2.075 l 5.672,1.11 2.628,-4.844 18.126,-9.965 -7.286,-18.175 -17.765,15.96 -7.742,1.52 2.351,4.293 -4.988,2.769 v -77.964 c 0,0 1.941,-0.918 3.789,-3.688 l 2.215,0.367 -3.504,9.043 c 0,0 -0.371,1.473 0.73,3.137 1.114,1.664 3.137,1.844 2.59,4.246 -0.558,2.399 -1.66,6.27 -3.183,8.207 l 3.64,-0.601 c 0,0 5.305,-5.856 6.27,-8.301 0.234,-0.571 1.808,-6.688 1.757,-8.074 -0.027,-0.743 -0.925,-11.207 -0.964,-11.485 l 3.269,-1.015 22.344,44.96 -12,-0.042 c 7.039,11.867 12.578,35.191 15.098,38.285 4.304,5.293 9.043,11.812 16.238,16.605 4.433,2.953 27.656,8.043 27.656,8.043 l 2.492,6.508 -19.797,2.348 3.606,5.539 -4.57,6.644 c 0,0 -2.071,6.504 -1.661,7.473 0.418,0.969 11.211,12.176 11.211,12.176 l -4.289,18.961 c 0,0 2.207,1.386 5.676,-2.77 0,0 8.719,3.184 8.301,-4.148 -0.078,-1.309 -0.645,-4.336 -4.844,-3.645 -1.262,0.207 -1.711,0.832 -2.121,1.383 l -0.508,-0.551 1.524,-4.57 14.804,-2.813 2.493,3.735 -0.411,0.328 c 0,0 -5.617,-1.91 -6.367,4.148 -0.148,1.11 1.102,4.75 5.164,3.692 0,0 0.645,-0.184 1.614,-0.598 0,0 1.289,3.598 4.753,2.945 0.684,-0.125 3.36,-0.55 3.645,-4.191 0,0 5.672,1.058 5.488,-4.707 -0.039,-1.145 -1.66,-3.785 -4.101,-3.457 -0.918,0.117 -3,0.965 -3.332,1.195 -0.321,0.234 -0.274,-0.187 -0.176,-0.601 0.09,-0.415 0.781,-4.012 0.781,-4.012 l 14.395,-2.766 3.547,3.414 c 0,0 -0.09,0.524 -0.325,0.598 -0.41,0.141 -4.656,-1.707 -6.367,2.258 -0.164,0.39 -1.375,4.75 3.977,5.586 0.683,0.109 3.183,0.136 5.027,-3.004 0,0 2.824,2.066 4.934,2.125 1.101,0.031 2.031,-0.231 2.949,-0.645 l -10.703,-15.961 0.652,-0.093 c 0,0 0.363,-0.043 0.781,-0.184 0.41,-0.137 3.371,-0.691 4.473,-1.797 0.332,-0.34 0.695,-7.336 0.098,-8.535 -0.274,-0.539 -4.344,-6.918 -6.231,-8.629 0,0 0.957,-11.578 -0.144,-19.605 -0.911,-6.567 -6.282,-17.528 -12.825,-31.918 -1.269,-2.778 -3.933,-8.614 -5.574,-12.09 -0.722,-1.539 -0.39,-9.594 -0.39,-10.52 0,-0.922 -0.911,-0.203 -2.493,0.559 -1.113,0.527 -2.839,1.449 -2.636,0.137 0,0 0.949,-38.801 2.746,-49.961 0.293,-1.793 3.601,1.109 18.828,-8.672 3.914,-2.516 27.558,-22.414 42.988,-26.016 7.11,-1.66 25.535,1.633 20.828,19.711 -0.82,3.148 -6.269,10.582 -12.89,16.457 -4.618,4.09 -25.008,21.957 -28.418,29.148 -2.43,5.118 -10.332,15.504 6.269,34.508 2.414,2.758 23.996,23.25 33.946,32.477 3.007,2.781 19.003,21.312 11.445,37.09 -3.223,6.734 -14.668,17.25 -28.692,7.011 -1.609,-1.179 -5.351,-6.64 -4.238,-11.441 0,0 9.785,-4.398 11.067,-7.844 3.816,-10.277 -1.563,-27.121 -2.676,-28.875 l -2.856,-2.304 c 0,0 0.832,6.363 0.364,9.683 -0.457,3.324 -1.375,7.473 -2.02,8.676 l -3.418,1.566 c 0,0 3.231,-14.484 -0.644,-18.82 -0.832,-0.926 -22.883,-14.668 -29.25,-24.73 l -3.418,-0.457 c 0,0 7.687,17.699 13.378,25.828 1.946,2.769 6.926,9.351 8.028,16.886 0.273,1.836 0.187,3.598 -0.731,2.77 -0.929,-0.832 -7.617,-7.242 -8.214,-7.844 -0.692,-0.691 -2.977,-0.574 -3.418,-0.551 0,0 7.656,15.313 11.632,19.649 1.629,1.789 2.02,3.047 2.118,4.43 0.089,1.386 0.742,18.914 17.804,24.359 2.789,0.887 21.492,4.703 32.02,-12.918 1.426,-2.41 9.59,-15.871 -3.321,-37.273 -0.878,-1.461 -6.835,-10.43 -12.011,-16.333 -0.996,-1.148 -12.539,-15.863 -12.539,-17.714 0,-0.18 0.722,0.117 0.722,0.117 0,0 6.289,1.082 6.836,1.269 0.567,0.184 9.883,-1.937 9.883,-1.937 l 10.703,2.582 -0.937,-3.133 -33.477,-17.996 -0.09,-2.953 6.828,1.844 c 0,0 0.735,0.652 3.868,0.093 3.144,-0.55 10.156,-1.754 11.25,-1.566 1.113,0.184 10.156,3.047 10.156,3.047 l -0.547,-3.504 -28.699,-15.785 0.371,-2.762 6.082,1.566 c 0,0 0.195,0.188 2.578,-0.277 2.402,-0.457 9.688,-1.289 9.688,-1.289 l 8.964,2.582 -0.195,-3.23 -21.68,-12.364 c 0,0 10.313,-15.215 12.676,-18.789 9.473,-14.269 3.574,-26.082 -0.488,-30.711 -0.879,-0.98 -7.578,-10.285 -23.809,-8.715 -1.582,0.153 -12.449,0.688 -34.597,14.805 -2.715,1.735 -10.371,6.231 -14.946,9.828 -1.922,1.516 -12.312,10.242 -12.312,10.242 l -5.176,-1.66 c 0,0 11.77,-9.804 13.34,-11.488 1.933,-2.078 14.055,-14.293 16.887,-18.543 0.828,-1.25 8.164,-7.059 16.328,-11.762 0.867,-0.504 5.32,-0.211 8.433,-2.769 2.844,-2.332 7.621,-8.949 8.176,-10.938 0.598,-2.152 -0.144,-4.699 0,-5.257 0.137,-0.551 14.824,-26.469 18.945,-35.567 0.977,-2.148 2.09,-3.871 6.153,-10.023 l 2.09,-2.399 -0.743,-2.648 -14.687,3.035 -11.758,-3.328 c 0,0 0.305,-9.946 -2.351,-11.899 -0.723,-0.523 -3.743,-1.664 -6.653,-0.691 0,0 -4.558,-4.988 -2.762,-8.16 0,0 -1.796,0.82 -2.765,1.242 0,0 -3.047,9.547 0.969,13.977 0.8,0.878 3.035,4.289 3.035,4.289 l -2.489,0.968 c 0,0 -5.136,-7.332 -9.542,-8.023 -1.243,-0.199 -4.161,0.691 -5.672,2.766 -0.332,0.445 -6.653,-3.739 -7.2,-5.536 l -1.25,3.184 c 0,0 4.016,7.75 5.813,9.406 1.805,1.66 2.215,2.492 4.297,3.184 2.07,0.695 9.687,1.246 10.515,1.523 0.832,0.274 0.274,0.418 0.274,0.418 v 2.211 c 0,0 -6.777,0 -7.754,0.692 -0.965,0.695 -1.238,4.429 -2.352,5.398 -1.105,0.969 -4.843,1.938 -7.882,1.387 0,0 2.07,3.734 5.812,3.734 1.746,0 7.469,2.77 13.008,-0.551 1.961,-1.183 6.504,-3.32 11.348,-8.996 l 6.23,1.52 c 0,0 -7.891,13.98 -13.43,18.679 -2.695,2.301 -13.007,14.258 -14.394,15.778 -1.375,1.523 -2.305,2.601 -19.239,4.707 -2.332,0.293 -27.441,-0.926 -32.382,1.383 -3.575,1.679 -15.586,13.964 -18.36,19.515 -1.601,3.199 2.051,12.407 4.551,22.762 0.859,3.563 5.285,18.758 5.285,21.707 0,2.953 0,7.383 0,7.383 l -4.804,3.504 c 0,0 0.222,-7.934 0.039,-9.594 -0.188,-1.66 -3.547,-16.418 -10.188,-38.75 -0.703,-2.371 -1.648,-7.254 1.66,-10.887 1.758,-1.926 9.27,-11.621 9.27,-11.621 0,0 -1.457,-0.953 -1.848,-1.297 -1.726,-1.496 -5.723,-5.812 -7.051,-8.672 -1.113,-2.394 -2.773,-3.687 -2.402,-8.855 0.168,-2.242 0.559,-7.199 0.559,-7.199 0,0 -3.926,-4.793 -7.805,-7.196 -1.992,-1.007 -4.395,-1.187 -6.59,-0.738 0,0 -29.707,-22.144 -31.367,-22.879 -1.66,-0.738 -9.063,-10.918 -9.063,-10.918 l -1.671,0.008 c 0,0 -0.821,3.844 -1.063,5.59 -0.176,1.223 -0.469,2.066 -0.684,2.707 -0.46,1.387 -0.703,1.445 -3.261,1.937 -4.016,0.774 -5.899,1.141 -6.27,-0.894 -0.156,-0.883 -1.476,-5.809 -1.476,-5.809 0,0 -3.457,-3.554 -5.723,-5.722 -1.668,-1.602 -4.207,-2.239 -7.246,-3.184 -0.399,-0.125 -1.25,0.184 -1.25,0.184 0,0 -2.578,0.547 -3.125,0.547 0,0 6.094,3.601 6.094,5.82 0,0.137 0,0.555 0,0.555 0,0 -3.184,4.566 -2.352,6.086 0.828,1.523 3.27,4.753 7.566,6.414 l -1.472,1.937 c 0,0 -9.141,-1.848 -10.43,-1.289 -1.289,0.551 -3.32,2.676 -4.152,4.703 -0.301,0.731 0,1.66 -1.66,1.66 -1.661,0 -3.875,-0.273 -4.891,-0.925 -1.016,-0.645 -2.949,-1.84 -2.949,-1.84 l 0.086,3.507 c 0,0 6.093,4.887 7.011,5.165 0.93,0.273 6.922,1.66 7.657,1.566 0.742,-0.09 0.558,0.281 3.234,-0.922 2.676,-1.199 6.738,-4.059 7.195,-3.785 0.461,0.281 1.934,1.754 1.934,1.754 0,0 -6.824,7.199 -7.012,7.933 -0.183,0.743 1.203,4.25 2.864,5.352 0,0 0.644,2.219 -0.547,3.879 -1.203,1.66 -3.879,4.148 -4.25,4.43 l 4.523,0.457 c 0,0 6.27,-4.243 6.738,-4.887 0.457,-0.645 2.118,-4.524 3.868,-6.738 0.75,-0.942 1.015,-4.153 1.113,-4.981 0.086,-0.828 0.359,-6.824 0.359,-7.473 0,0 4.063,-1.293 8.313,-0.925 0.984,0.086 14.941,13.285 19.004,18.914 0.808,1.125 6.453,7.66 8.3,8.488 1.844,0.836 3.321,1.387 3.321,1.387 0,0 -3.692,3.785 -4.336,6.453 -0.84,3.508 -0.461,30.91 3.32,41.707 0.77,2.18 6.836,7.195 8.856,8.391 1.086,0.64 17.628,14.121 23.253,16.707 0.868,0.394 0.829,0.55 0.555,1.289 -0.195,0.507 -2.078,9.316 -4.57,15.961 -1.649,3.519 -4.246,5.718 -6.961,9.781 l 20.203,28.508 -3.691,3.136 -49.129,-69.32 h -1.946 l -2.714,10.18 c 0,0 -4.793,1.109 -5.536,0.738 -0.734,-0.367 -5.625,-11.75 -6.828,-12.543 -0.554,-0.371 -3.047,0.641 -3.23,0.731 v -22.047 h -7.188 v 21.496 c 0,0 -1.945,-0.18 -3.32,-2.949 -0.449,-0.891 -1.855,-3.692 -1.855,-3.692 l -1.563,3.32 c 0,0 2.117,9.043 3.965,11.067 1.238,1.371 2.859,2.676 2.859,3.418 0,0.738 -0.273,8.117 -0.273,8.117 0,0 -3.133,-0.18 -3.875,0.465 -0.742,0.644 -2.676,6.824 -4.153,7.375 -1.472,0.558 -7.382,0.187 -8.308,-0.09 0,0 1.199,2.859 3.047,3.875 1.453,0.801 7.293,3.227 13.289,2.031 v 68.043 c 0,0 -0.508,0.414 -1.621,-0.695 -1.102,-1.106 -3.035,-3.32 -4.285,-2.766 -1.25,0.555 -3.321,4.289 -6.504,1.938 -1.543,-1.145 -4.289,-4.567 -4.289,-4.567 l -1.317,1.461 0.77,4.539 c 0,0 2.5,5.032 5.801,8.254 1.406,1.375 7.199,4.707 11.484,5.121 l 0.148,2.77 c 0,0 -6.925,0.137 -7.89,0.832 -0.969,0.687 -3.047,5.394 -2.91,6.773 0,0 -3.047,3.047 -9.407,1.805 l 2.071,3.598 c 0,0 8.027,1.937 11.211,1.382 3.183,-0.554 5.949,-1.109 6.777,-1.382 v 19.789 c 0,0 -5.926,0.843 -9.402,-1.11 -5.676,-3.183 -20.071,-19.375 -22.149,-22.832 0,0 -15.078,26.297 -12.871,61.168 z m 126.082,-37.273 0.82,-5.535 18.137,-2.016 -1.105,5.199 z m 4.121,10.769 c 0.207,-5.257 5.988,-4.062 7.063,-3.668 6.367,2.356 3.875,6.301 3.875,6.301 10.996,0.969 23.527,-4.777 23.527,-4.777 0,0 5.937,3.75 6.297,4.015 0.519,0.387 -0.985,0.629 -0.985,0.629 l -37.695,6.567 -7.062,-6.918 0.898,-4.223 z m 39.25,-4.964 c 0.313,-0.211 2.383,-1.215 4.082,-6.129 0,0 2.625,2.566 3.426,4.742 0.137,0.371 -0.352,1.972 -0.066,3.25 0,0 -1.633,0.969 -2.911,1.043 -1.281,0.066 -3.214,-1.981 -3.976,-2.078 -0.528,-0.071 -0.555,-0.828 -0.555,-0.828 z m -68.449,-67.68 c 0.117,0.488 6.535,14.055 8.555,15.789 1.933,1.66 12.218,3.863 12.218,3.863 l 1.727,4.922 c -9.344,-1.867 -11.582,-2.98 -15.703,-4.449 -4.149,-1.473 -11.914,-20.152 -11.914,-20.152 z m -44.727,-71.348 c 0,0 -0.359,1.797 -0.457,2.168 -0.058,0.242 -0.265,0.266 -0.781,0.371 -0.781,0.149 -3.457,-0.328 -3.457,-0.328 v -4.472 l 4.695,2.261" /><path
         id="path26"
         style="fill:#231f20;fill-opacity:1;fill-rule:nonzero;stroke:none"
         d="M 57.1211,107.262 H 0 v 5.039 h 9.12109 v 69.121 H 0 v 5.039 h 49.4453 v 3.359 h 6.4844 v -19.078 h -6.3672 v 8.637 H 24.6016 v -28.32 h 19.1992 v 8.16 l 6.4804,0.121 v -23.637 l -6.4804,-0.121 v 8.398 H 24.6016 v -29.64 h 26.0429 v 8.883 h 6.4766 v -15.961" /><path
         id="path28"
         style="fill:#231f20;fill-opacity:1;fill-rule:nonzero;stroke:none"
         d="m 175.801,107.262 h -35.633 v 5.039 h 10.078 v 51.84 L 123.84,106.059 94.9219,163.062 V 112.301 H 105 v -5.039 H 77.2852 v 5.039 h 10.0781 v 69.121 H 77.2852 v 5.039 h 21.2421 l 28.4377,-55.801 25.078,55.801 h 23.758 v -5.039 h -10.078 v -69.121 h 10.078 v -5.039" /><path
         id="path30"
         style="fill:#231f20;fill-opacity:1;fill-rule:nonzero;stroke:none"
         d="m 195.84,107.262 v 5.039 h 9.121 v 69.121 h -9.121 v 5.039 h 38.523 c 14.641,0 22.793,-6.84 22.793,-19.078 0,-11.641 -7.312,-18.121 -20.633,-18.36 15.715,-0.484 24.602,-7.921 24.602,-20.882 0,-13.2 -9.004,-20.879 -24.484,-20.879 z m 24.601,44.398 h 8.524 c 6.953,0 12.234,6.363 12.234,14.399 0,8.402 -4.918,13.804 -12.476,13.804 h -8.282 z m 0,-37.922 h 8.282 c 10.918,0 16.433,5.164 16.433,15.242 0,9.719 -6.355,16.079 -15.957,16.079 h -8.758 v -31.321" /><path
         id="path32"
         style="fill:#231f20;fill-opacity:1;fill-rule:nonzero;stroke:none"
         d="m 355.559,107.262 h -29.278 v 5.039 h 8.399 l -7.442,19.441 h -29.164 l -7.793,-19.441 h 9.602 v -5.039 h -24.844 v 5.039 h 7.441 l 30.958,76.679 h 7.324 l 29.758,-76.679 h 5.039 z m -31.075,31.8 -11.41,30 -12.117,-30 h 23.527" /><path
         id="path34"
         style="fill:#231f20;fill-opacity:1;fill-rule:nonzero;stroke:none"
         d="m 403.801,107.262 h -33.606 v 5.039 h 9.121 v 69.121 h -9.121 v 5.039 h 33.606 v -5.039 h -9.004 v -69.121 h 9.004 v -5.039" /><path
         id="path36"
         style="fill:#231f20;fill-opacity:1;fill-rule:nonzero;stroke:none"
         d="m 498.477,107.262 h -34.688 v 5.039 h 7.813 l -16.094,25.558 -19.082,-25.558 h 11.054 v -5.039 h -30.136 v 5.039 h 9.121 l 24.238,32.758 -22.91,36.363 h -9.238 v 5.039 h 34.55 v -5.039 h -7.91 l 15,-23.762 17.637,23.762 h -10.566 v 5.039 h 30.117 v -5.039 h -9.473 l -23.164,-31.082 24.238,-38.039 h 9.493 v -5.039" /><path
         id="path38"
         style="fill:#231f20;fill-opacity:1;fill-rule:nonzero;stroke:none"
         d="m 587.031,107.262 h -29.277 v 5.039 h 8.398 l -7.441,19.441 h -29.16 l -7.793,-19.441 h 9.59 v -5.039 h -24.844 v 5.039 h 7.441 l 30.957,76.679 h 7.325 l 29.765,-76.679 h 5.039 z m -31.074,31.8 -11.406,30 -12.129,-30 h 23.535" /><path
         id="path40"
         style="fill:#231f20;fill-opacity:1;fill-rule:nonzero;stroke:none"
         d="m 602.148,107.262 v 5.039 h 9.122 v 69.121 h -9.122 v 5.039 h 37.442 c 22.676,0 40.312,-17.281 40.312,-39.481 0,-11.039 -4.433,-21.359 -12.597,-29.281 -7.559,-7.195 -16.075,-10.437 -27.832,-10.437 z m 24.61,6.601 h 9.707 c 15.117,0 26.523,14.278 26.523,33.117 0,17.641 -11.992,32.762 -26.035,32.762 h -10.195 v -65.879" /><path
         id="path42"
         style="fill:#231f20;fill-opacity:1;fill-rule:nonzero;stroke:none"
         d="m 774.484,107.262 h -29.277 v 5.039 h 8.398 l -7.441,19.441 h -29.16 l -7.824,-19.441 h 9.621 v -5.039 h -24.856 v 5.039 h 7.442 l 30.968,76.679 h 7.325 l 29.765,-76.679 h 5.039 z m -31.074,31.8 -11.406,30 -12.129,-30 h 23.535" /><path
         id="path44"
         style="fill:#231f20;fill-opacity:1;fill-rule:nonzero;stroke:none"
         d="m 837.414,107.617 v 5.039 h 9.121 v 69.121 h -9.121 v 5.039 h 37.441 c 22.676,0 40.313,-17.281 40.313,-39.476 0,-11.043 -4.434,-21.363 -12.598,-29.285 -7.558,-7.196 -16.074,-10.438 -27.832,-10.438 z m 24.59,6.602 h 9.726 c 15.118,0 26.524,14.277 26.524,33.121 0,17.637 -12.012,32.758 -26.059,32.758 h -10.191 v -65.879" /><path
         id="path46"
         style="fill:#231f20;fill-opacity:1;fill-rule:nonzero;stroke:none"
         d="m 1009.72,107.617 h -29.279 v 5.039 h 8.399 l -7.442,19.442 h -29.16 l -7.793,-19.442 h 9.61 v -5.039 h -24.844 v 5.039 h 7.441 l 30.957,76.68 h 7.325 l 29.746,-76.68 h 5.04 z m -31.075,31.801 -11.407,30 -12.109,-30 h 23.516" /><path
         id="path48"
         style="fill:#231f20;fill-opacity:1;fill-rule:nonzero;stroke:none"
         d="m 1132.12,106.297 h -8.4 l -41.76,58.801 v -52.442 h 9.48 v -5.039 h -27.11 v 5.039 h 9.96 v 63.004 l -3.85,6.117 h -8.63 v 5.039 h 23.87 l 38.88,-55.316 v 50.277 h -9.47 v 5.039 h 27.11 v -5.039 h -10.08 v -75.48" /><path
         id="path50"
         style="fill:#231f20;fill-opacity:1;fill-rule:nonzero;stroke:none"
         d="m 1199.93,106.059 c -22.09,0 -39.61,18.238 -39.61,41.156 0,22.922 17.52,41.043 39.61,41.043 22.07,0 39.71,-18.121 39.71,-41.043 0,-22.918 -17.64,-41.156 -39.71,-41.156 z m 0,6.836 c 12.11,0 22.8,16.085 22.8,34.32 0,18.121 -10.69,34.203 -22.8,34.203 -12.01,0 -22.69,-16.082 -22.69,-34.203 0,-18.235 10.68,-34.32 22.69,-34.32" /><path
         id="path52"
         style="fill:#231f20;fill-opacity:1;fill-rule:nonzero;stroke:none"
         d="m 1332.88,107.617 h -15.23 c -7.09,0 -8.28,0.719 -12.36,7.078 l -18.01,28.2 h -3.24 v -30.239 h 9 v -5.039 h -33.59 v 5.039 h 9.12 v 69.121 h -9.12 v 5.039 h 35.39 c 10.33,0 16.09,-1.558 20.41,-5.878 3.96,-3.961 5.87,-9.122 5.87,-15.477 0,-10.805 -5.52,-17.766 -16.79,-21.242 l 17.03,-26.164 c 2.77,-4.2 4.2,-5.278 6.6,-5.278 h 4.92 z m -48.84,41.278 h 7.08 c 8.29,0 13.93,6.605 13.93,16.082 0,9.605 -4.92,15.121 -13.44,15.121 h -7.57 v -31.203" /><path
         id="path54"
         style="fill:#231f20;fill-opacity:1;fill-rule:nonzero;stroke:none"
         d="m 1430.44,181.777 h -10.08 v -45.121 c 0,-13.562 -4.68,-22.082 -14.88,-26.883 -5.27,-2.394 -11.15,-3.714 -17.4,-3.714 -19.44,0 -32.03,10.679 -32.03,27.238 v 48.48 h -9.12 v 5.039 h 33.59 v -5.039 h -9 v -44.761 c 0,-12.118 2.16,-17.641 8.28,-20.879 2.89,-1.442 6.36,-2.282 9.96,-2.282 14.41,0 22.81,8.524 22.81,23.161 v 44.64 h -9.96 v 5.16 h 27.83 v -5.039" /><path
         id="path56"
         style="fill:#231f20;fill-opacity:1;fill-rule:nonzero;stroke:none"
         d="m 1506.65,107.617 h -57.13 v 5.039 h 9.12 v 69.121 h -9.12 v 5.039 h 49.44 v 3.36 h 6.48 v -19.078 h -6.37 v 8.636 h -24.94 v -28.316 h 19.2 v 8.156 l 6.47,0.121 v -23.636 l -6.47,-0.121 v 8.398 h -19.2 v -29.641 h 26.04 v 8.883 h 6.48 v -15.961" /><path
         id="path58"
         style="fill:#231f20;fill-opacity:1;fill-rule:nonzero;stroke:none"
         d="m 1599.52,110.613 c -11.75,-3.234 -19.2,-4.554 -27.48,-4.554 -26.29,0 -44.76,17.16 -44.76,41.281 0,17.394 10.92,33.234 26.64,38.398 5.29,1.68 11.29,2.641 17.77,2.641 7.31,0 11.76,-0.84 19.55,-3.598 v 4.438 h 6.6 v -21.364 h -6.6 v 9.122 c -6.11,3.242 -10.92,4.562 -18.01,4.562 -16.3,0 -29.02,-15 -29.02,-34.199 0,-18.606 13.91,-34.082 30.59,-34.082 3.36,0 5.04,0.359 9.24,1.68 v 19.921 h -10.32 v 5.039 h 34.81 v -5.039 h -9.01 v -24.246" /><path
         id="path60"
         style="fill:#231f20;fill-opacity:1;fill-rule:nonzero;stroke:none"
         d="m 1701.16,107.617 h -29.27 v 5.039 h 8.4 l -7.45,19.442 h -29.16 l -7.79,-19.442 h 9.59 v -5.039 h -24.84 v 5.039 h 7.44 l 30.96,76.68 h 7.32 l 29.76,-76.68 h 5.04 z m -31.07,31.801 -11.41,30 -12.13,-30 h 23.54" /></g></g></svg>